<svg width="40" height="40" viewBox="0 0 40 40" fill="none" xmlns="http://www.w3.org/2000/svg">
<path d="M30.3789 21.0098H34.9385V31.9297H30.3789V21.0098Z" fill="black"/>
<path d="M21.749 21.0098H26.3086V31.9297H21.749V21.0098Z" fill="black"/>
<path d="M13.1084 21.0098H17.6689V31.9297H13.1084V21.0098Z" fill="black"/>
<path d="M4.46875 21.0098H9.03906V31.9297H4.46875V21.0098Z" fill="black"/>
<path d="M36.4688 17.5894V16.4492H2.94922V17.5894C2.94922 17.7391 2.97787 17.8871 3.03516 18.0254C3.09245 18.1637 3.17734 18.2896 3.2832 18.3955C3.38906 18.5014 3.51403 18.5853 3.65234 18.6426C3.79065 18.6999 3.93916 18.7295 4.08887 18.7295H35.3184C35.6216 18.7295 35.9135 18.6095 36.1289 18.396C36.3443 18.1825 36.4661 17.8926 36.4688 17.5894Z" fill="black"/>
<path d="M38.0488 34.21H1.40918C1.25947 34.21 1.11097 34.2391 0.972656 34.2964C0.834345 34.3537 0.708398 34.4381 0.602539 34.5439C0.49668 34.6498 0.412759 34.7753 0.355469 34.9136C0.298178 35.0519 0.268555 35.1999 0.268555 35.3496V38.3496C0.268555 38.652 0.388748 38.942 0.602539 39.1558C0.816331 39.3696 1.10683 39.4897 1.40918 39.4897H38.0488C38.3512 39.4897 38.6407 39.3696 38.8545 39.1558C39.0683 38.942 39.1885 38.652 39.1885 38.3496V35.3496C39.1885 35.1999 39.1598 35.0519 39.1025 34.9136C39.0452 34.7753 38.9604 34.6498 38.8545 34.5439C38.7486 34.4381 38.6237 34.3537 38.4854 34.2964C38.347 34.2391 38.1985 34.21 38.0488 34.21Z" fill="black"/>
<path d="M1.38843 14.1699H38.0486C38.297 14.1689 38.5388 14.0876 38.7371 13.938C38.9354 13.7884 39.0791 13.5784 39.1482 13.3398C39.2121 13.1011 39.1981 12.8479 39.1082 12.6177C39.0182 12.3874 38.857 12.1918 38.6482 12.0596L20.3289 0.779785C20.1475 0.671436 19.9396 0.614258 19.7283 0.614258C19.517 0.614258 19.3101 0.671436 19.1287 0.779785L0.808355 12.0596C0.597198 12.1899 0.434298 12.3858 0.344488 12.6172C0.254678 12.8485 0.243408 13.1031 0.311285 13.3418C0.379162 13.5805 0.522366 13.7905 0.720464 13.9399C0.918563 14.0894 1.16078 14.1702 1.40894 14.1699H1.38843ZM18.9285 7.31982H20.4783C20.628 7.31982 20.7765 7.34945 20.9148 7.40674C21.0531 7.46403 21.1791 7.54795 21.2849 7.65381C21.3908 7.75967 21.4747 7.88513 21.532 8.02344C21.5893 8.16175 21.6189 8.31025 21.6189 8.45996C21.6189 8.60967 21.5893 8.75768 21.532 8.896C21.4747 9.03431 21.3908 9.16025 21.2849 9.26611C21.1791 9.37197 21.0531 9.45589 20.9148 9.51318C20.7765 9.57047 20.628 9.59961 20.4783 9.59961H18.9285C18.7788 9.59961 18.6303 9.57047 18.4919 9.51318C18.3536 9.45589 18.2287 9.37197 18.1228 9.26611C18.0169 9.16025 17.933 9.03431 17.8757 8.896C17.8184 8.75768 17.7888 8.60967 17.7888 8.45996C17.7888 8.31025 17.8184 8.16175 17.8757 8.02344C17.933 7.88513 18.0169 7.75967 18.1228 7.65381C18.2287 7.54795 18.3536 7.46403 18.4919 7.40674C18.6303 7.34945 18.7788 7.31982 18.9285 7.31982Z" fill="black"/>
</svg>
