<svg width="1415" height="978" viewBox="0 0 1415 978" fill="none" xmlns="http://www.w3.org/2000/svg">
<path d="M1441.18 -869.709C1400.72 -911.804 1351.9 -944.976 1297.86 -967.098C1245.72 -988.381 1189.93 -999.291 1133.61 -999.218C1050.49 -999.369 969.041 -975.905 898.74 -931.558C833.215 -982.019 754.53 -1012.52 672.113 -1019.4C589.696 -1026.28 507.044 -1009.25 434.059 -970.347C361.075 -931.449 300.854 -872.331 260.612 -800.078C220.371 -727.825 201.815 -645.502 207.17 -562.972C212.525 -480.442 241.562 -401.206 290.802 -334.759C340.043 -268.312 407.398 -217.471 484.797 -188.33C562.196 -159.188 646.357 -152.981 727.193 -170.453C808.03 -187.925 882.115 -228.334 940.57 -286.839L1243.9 -590.178L1149.3 -684.768L845.981 -381.439C806.557 -341.855 756.757 -314.208 702.313 -301.678C647.869 -289.149 590.994 -292.247 538.234 -310.616C485.473 -328.986 438.971 -361.879 404.081 -405.511C369.19 -449.143 347.328 -501.741 341.012 -557.249C334.695 -612.758 344.181 -668.922 368.377 -719.278C392.572 -769.633 430.495 -812.133 477.779 -841.887C525.064 -871.64 579.789 -887.438 635.656 -887.461C691.523 -887.484 746.261 -871.732 793.57 -842.018L537.3 -585.748L631.901 -491.149L916.76 -775.998C945.62 -804.874 980.005 -827.634 1017.86 -842.919C1054.65 -857.774 1093.95 -865.416 1133.62 -865.428C1172.53 -865.502 1211.09 -857.985 1247.12 -843.299C1283.96 -828.235 1317.23 -805.626 1344.8 -776.928C1397.81 -722.138 1427.46 -648.888 1427.47 -572.649C1427.5 -534.221 1420.16 -496.145 1405.83 -460.488C1390.98 -423.66 1368.83 -390.217 1340.72 -362.169L898.921 79.6415L736.03 -83.2184L729.791 -89.4484C717.705 -101.54 703.356 -111.131 687.563 -117.675C671.769 -124.22 654.841 -127.588 637.746 -127.588C620.65 -127.588 603.722 -124.22 587.929 -117.675C572.135 -111.131 557.786 -101.54 545.701 -89.4484L101.32 354.942C60.4889 395.696 28.3151 444.282 6.73058 497.782C-14.0097 549.335 -24.6491 604.393 -24.6093 659.962C-24.5859 770.799 18.4607 877.299 95.4606 957.022C135.921 999.119 184.735 1032.29 238.771 1054.41C290.898 1075.7 346.675 1086.62 402.981 1086.56C459.872 1086.57 516.232 1075.61 568.981 1054.3C592.961 1044.56 616.032 1032.72 637.921 1018.9C703.448 1069.37 782.139 1099.88 864.564 1106.77C946.989 1113.65 1029.65 1096.63 1102.65 1057.73C1175.64 1018.83 1235.87 959.71 1276.12 887.451C1316.37 815.191 1334.93 732.86 1329.57 650.321C1324.22 567.782 1295.18 488.538 1245.93 422.084C1196.69 355.63 1129.32 304.785 1051.92 275.642C974.508 246.5 890.338 240.295 809.494 257.772C728.649 275.25 654.559 315.667 596.101 374.182L292.771 677.522L387.36 772.112L690.671 468.782C730.095 429.194 779.896 401.544 834.342 389.012C888.789 376.481 945.667 379.578 998.431 397.947C1051.2 416.316 1097.7 449.21 1132.59 492.844C1167.49 536.478 1189.35 589.078 1195.67 644.59C1201.98 700.101 1192.5 756.268 1168.3 806.626C1144.1 856.984 1106.18 899.486 1058.89 929.24C1011.6 958.994 956.871 974.791 901.002 974.813C845.132 974.834 790.391 959.079 743.081 929.362L999.34 673.092L904.74 578.492L619.88 863.351C591.026 892.229 556.644 914.99 518.791 930.272C481.988 945.132 442.67 952.774 402.981 952.782C364.069 952.858 325.516 945.345 289.481 930.661C252.649 915.597 219.378 892.989 191.811 864.291C138.794 809.502 109.147 736.252 109.13 660.012C109.102 621.584 116.451 583.508 130.78 547.851C145.625 511.019 167.774 477.574 195.891 449.532L637.691 7.72156L800.561 170.592L806.8 176.822C818.885 188.913 833.233 198.504 849.026 205.048C864.819 211.592 881.746 214.96 898.84 214.96C915.935 214.96 932.862 211.592 948.655 205.048C964.447 198.504 978.796 188.913 990.88 176.822L1435.27 -267.569C1476.1 -308.338 1508.28 -356.942 1529.85 -410.459C1550.59 -462.013 1561.23 -517.07 1561.19 -572.638C1561.19 -683.47 1518.16 -789.973 1441.18 -869.709Z" fill="#F1F2F2"/>
</svg>
