<svg width="146" height="138" viewBox="0 0 146 138" fill="none" xmlns="http://www.w3.org/2000/svg">
<path d="M86.21 14.6402V4.64015C86.21 4.22171 86.1272 3.80738 85.9668 3.42091C85.8064 3.03445 85.5708 2.68338 85.2744 2.38796C84.9781 2.09253 84.6272 1.85846 84.2402 1.69923C83.8533 1.54001 83.438 1.45866 83.0195 1.45998H19.2295C18.811 1.45866 18.3967 1.54001 18.0098 1.69923C17.6228 1.85846 17.271 2.09253 16.9746 2.38796C16.6783 2.68338 16.4436 3.03445 16.2832 3.42091C16.1228 3.80738 16.04 4.22171 16.04 4.64015V14.6402" fill="#4ADBC8"/>
<path d="M86.21 14.6402V4.64015C86.21 4.22171 86.1272 3.80738 85.9668 3.42091C85.8064 3.03445 85.5708 2.68338 85.2744 2.38796C84.9781 2.09253 84.6272 1.85846 84.2402 1.69923C83.8533 1.54001 83.438 1.45866 83.0195 1.45998H19.2295C18.811 1.45866 18.3967 1.54001 18.0098 1.69923C17.6228 1.85846 17.271 2.09253 16.9746 2.38796C16.6783 2.68338 16.4436 3.03445 16.2832 3.42091C16.1228 3.80738 16.04 4.22171 16.04 4.64015V14.6402" stroke="#1B1787" stroke-width="2" stroke-linecap="round" stroke-linejoin="round"/>
<path d="M56.4395 136.61V115.98C56.4403 112.849 57.4555 109.803 59.332 107.298C61.2086 104.792 63.8458 102.961 66.8496 102.08L80.7295 98.0098L84.3799 96.0098L85.5 95.7197L97.7197 103.83L107.72 95.7297L110.649 96.0198L114.359 98.0198L128.16 102.07C131.164 102.951 133.801 104.782 135.678 107.288C137.554 109.793 138.569 112.839 138.569 115.97V136.6" fill="#4ADBC8"/>
<path d="M56.4395 136.61V115.98C56.4403 112.849 57.4555 109.803 59.332 107.298C61.2086 104.792 63.8458 102.961 66.8496 102.08L80.7295 98.0098L84.3799 96.0098L85.5 95.7197L97.7197 103.83L107.72 95.7297L110.649 96.0198L114.359 98.0198L128.16 102.07C131.164 102.951 133.801 104.782 135.678 107.288C137.554 109.793 138.569 112.839 138.569 115.97V136.6" stroke="#1B1787" stroke-width="2" stroke-linecap="round" stroke-linejoin="round"/>
<path d="M42.9902 136.61V106.8H21.6299V136.64" stroke="#1B1787" stroke-width="2" stroke-linecap="round" stroke-linejoin="round"/>
<path d="M20.8194 37.5298V28.1299C20.818 27.8349 20.8753 27.5425 20.9873 27.2695C21.0993 26.9966 21.2645 26.7484 21.4727 26.5393C21.6808 26.3302 21.9278 26.1645 22.2002 26.0513C22.4726 25.9381 22.7646 25.8799 23.0596 25.8799H32.46C33.0567 25.8799 33.6288 26.1169 34.0508 26.5388C34.4728 26.9608 34.71 27.5331 34.71 28.1299V37.5298C34.71 38.1265 34.4728 38.6989 34.0508 39.1208C33.6288 39.5428 33.0567 39.7798 32.46 39.7798H23.0596C22.7646 39.7798 22.4726 39.7216 22.2002 39.6084C21.9278 39.4952 21.6808 39.3292 21.4727 39.1201C21.2645 38.9111 21.0993 38.6631 20.9873 38.3901C20.8753 38.1172 20.818 37.8248 20.8194 37.5298Z" stroke="#1B1787" stroke-width="2" stroke-linecap="round" stroke-linejoin="round"/>
<path d="M44.1797 37.5298V28.1299C44.1797 27.5331 44.4169 26.9608 44.8389 26.5388C45.2608 26.1169 45.833 25.8799 46.4297 25.8799H55.8193C56.4161 25.8799 56.9892 26.1169 57.4111 26.5388C57.8331 26.9608 58.0693 27.5331 58.0693 28.1299V37.5298C58.0693 38.1265 57.8331 38.6989 57.4111 39.1208C56.9892 39.5428 56.4161 39.7798 55.8193 39.7798H46.4297C45.833 39.7798 45.2608 39.5428 44.8389 39.1208C44.4169 38.6989 44.1797 38.1265 44.1797 37.5298Z" stroke="#1B1787" stroke-width="2" stroke-linecap="round" stroke-linejoin="round"/>
<path d="M67.54 37.5298V28.1299C67.54 27.5331 67.7773 26.9608 68.1992 26.5388C68.6212 26.1169 69.1933 25.8799 69.79 25.8799H79.1797C79.7764 25.8799 80.3486 26.1169 80.7705 26.5388C81.1925 26.9608 81.4297 27.5331 81.4297 28.1299V37.5298C81.4297 38.1265 81.1925 38.6989 80.7705 39.1208C80.3486 39.5428 79.7764 39.7798 79.1797 39.7798H69.79C69.1933 39.7798 68.6212 39.5428 68.1992 39.1208C67.7773 38.6989 67.54 38.1265 67.54 37.5298Z" stroke="#1B1787" stroke-width="2" stroke-linecap="round" stroke-linejoin="round"/>
<path d="M20.8194 61.6699V52.2698C20.8194 51.6757 21.0555 51.1059 21.4756 50.6858C21.8957 50.2657 22.4655 50.0298 23.0596 50.0298H32.46C32.755 50.0285 33.0474 50.0856 33.3203 50.1975C33.5933 50.3095 33.8408 50.4743 34.0498 50.6824C34.2589 50.8905 34.4249 51.1378 34.5381 51.4102C34.6513 51.6826 34.71 51.9748 34.71 52.2698V61.6699C34.71 62.2667 34.4728 62.8388 34.0508 63.2608C33.6288 63.6827 33.0567 63.9199 32.46 63.9199H23.0596C22.7646 63.9199 22.4726 63.8615 22.2002 63.7483C21.9278 63.6351 21.6808 63.4693 21.4727 63.2603C21.2645 63.0512 21.0993 62.803 20.9873 62.5301C20.8753 62.2571 20.818 61.9649 20.8194 61.6699Z" stroke="#1B1787" stroke-width="2" stroke-linecap="round" stroke-linejoin="round"/>
<path d="M44.1797 61.6699V52.2698C44.1797 51.9748 44.2384 51.6826 44.3516 51.4102C44.4648 51.1378 44.6308 50.8905 44.8398 50.6824C45.0489 50.4743 45.2964 50.3095 45.5693 50.1975C45.8423 50.0856 46.1347 50.0285 46.4297 50.0298H55.8193C56.1143 50.0285 56.4068 50.0856 56.6797 50.1975C56.9526 50.3095 57.2011 50.4743 57.4102 50.6824C57.6192 50.8905 57.7852 51.1378 57.8984 51.4102C58.0116 51.6826 58.0693 51.9748 58.0693 52.2698V61.6699C58.0693 62.2667 57.8331 62.8388 57.4111 63.2608C56.9892 63.6827 56.4161 63.9199 55.8193 63.9199H46.4297C45.833 63.9199 45.2608 63.6827 44.8389 63.2608C44.4169 62.8388 44.1797 62.2667 44.1797 61.6699Z" stroke="#1B1787" stroke-width="2" stroke-linecap="round" stroke-linejoin="round"/>
<path d="M20.8194 85.8V76.4102C20.818 76.1152 20.8753 75.8227 20.9873 75.5498C21.0993 75.2769 21.2645 75.0286 21.4727 74.8196C21.6808 74.6105 21.9278 74.4447 22.2002 74.3315C22.4726 74.2183 22.7646 74.1602 23.0596 74.1602H32.46C33.0567 74.1602 33.6288 74.3971 34.0508 74.8191C34.4728 75.241 34.71 75.8134 34.71 76.4102V85.8C34.71 86.3968 34.4728 86.9692 34.0508 87.3911C33.6288 87.8131 33.0567 88.05 32.46 88.05H23.0596C22.7646 88.0501 22.4726 87.9919 22.2002 87.8787C21.9278 87.7655 21.6808 87.5994 21.4727 87.3904C21.2645 87.1813 21.0993 86.9333 20.9873 86.6604C20.8753 86.3875 20.818 86.0951 20.8194 85.8Z" stroke="#1B1787" stroke-width="2" stroke-linecap="round" stroke-linejoin="round"/>
<path d="M44.1797 85.8V76.4102C44.1797 75.8134 44.4169 75.241 44.8389 74.8191C45.2608 74.3971 45.833 74.1602 46.4297 74.1602H55.8194C56.4161 74.1602 56.9892 74.3971 57.4112 74.8191C57.8331 75.241 58.0694 75.8134 58.0694 76.4102V85.8C58.0694 86.3968 57.8331 86.9692 57.4112 87.3911C56.9892 87.8131 56.4161 88.05 55.8194 88.05H46.4297C46.1339 88.0514 45.841 87.9942 45.5674 87.8816C45.2938 87.769 45.0452 87.6032 44.836 87.394C44.6268 87.1848 44.4613 86.9362 44.3487 86.6626C44.2361 86.389 44.1784 86.0959 44.1797 85.8Z" stroke="#1B1787" stroke-width="2" stroke-linecap="round" stroke-linejoin="round"/>
<path d="M80.1602 74.4002C79.8504 74.2435 79.5072 74.1646 79.1602 74.1702H69.7695C69.1728 74.1702 68.6007 74.4072 68.1787 74.8291C67.7568 75.2511 67.5195 75.8235 67.5195 76.4202V85.8001C67.5195 86.3968 67.7568 86.9692 68.1787 87.3911C68.6007 87.8131 69.1728 88.0501 69.7695 88.0501H79.1602C79.7569 88.0501 80.329 87.8131 80.751 87.3911C81.1729 86.9692 81.4102 86.3968 81.4102 85.8001V78.5601" stroke="#1B1787" stroke-width="2" stroke-linecap="round" stroke-linejoin="round"/>
<path d="M70.0996 129.69V136.61" stroke="#1B1787" stroke-width="2" stroke-linecap="round" stroke-linejoin="round"/>
<path d="M124.939 129.69V136.61" stroke="#1B1787" stroke-width="2" stroke-linecap="round" stroke-linejoin="round"/>
<path d="M92.8896 39.3201V20.1201C92.8896 18.6667 92.3129 17.2728 91.2852 16.2451C90.2575 15.2174 88.8635 14.6401 87.4102 14.6401H14.8301C13.3775 14.6428 11.9851 15.2209 10.958 16.248C9.93088 17.2752 9.35225 18.6675 9.34961 20.1201V136.61" stroke="#1B1787" stroke-width="2" stroke-linecap="round" stroke-linejoin="round"/>
<path d="M80.9696 101.13L88.4296 108.6C88.8881 109.042 89.4934 109.3 90.1298 109.324C90.7662 109.348 91.3893 109.136 91.8798 108.73L95.2694 105.89L97.7196 103.84L88.0692 96.6301L87.7597 96.3901C87.2797 96.0344 86.7139 95.8126 86.12 95.7476C85.5261 95.6825 84.9254 95.7765 84.3798 96.02L81.6894 97.23C81.3335 97.3897 81.022 97.6334 80.7812 97.9402C80.5403 98.2469 80.3774 98.6077 80.3065 98.9912C80.2357 99.3748 80.2594 99.7698 80.3749 100.142C80.4904 100.515 80.6943 100.854 80.9696 101.13Z" stroke="#1B1787" stroke-width="2" stroke-linecap="round" stroke-linejoin="round"/>
<path d="M97.7197 103.8L100.06 105.8L103.22 108.5C103.706 108.915 104.329 109.135 104.969 109.116C105.608 109.098 106.218 108.843 106.68 108.4L114.14 101.14C114.553 100.733 114.808 100.191 114.855 99.6131C114.903 99.0349 114.741 98.4589 114.399 97.9898C114.14 97.6472 113.795 97.3783 113.399 97.2098L110.649 95.9898C110.097 95.7451 109.489 95.654 108.889 95.7262C108.289 95.7983 107.719 96.0312 107.24 96.4L106.93 96.64L97.7197 103.8Z" stroke="#1B1787" stroke-width="2" stroke-linecap="round" stroke-linejoin="round"/>
<path d="M106.97 96.6799V86.27" stroke="#1B1787" stroke-width="2" stroke-linecap="round" stroke-linejoin="round"/>
<path d="M88.0498 86.27V96.6301" stroke="#1B1787" stroke-width="2" stroke-linecap="round" stroke-linejoin="round"/>
<path d="M113.52 46.3198H113.35C112.88 46.3198 112.431 46.1332 112.099 45.8013C111.767 45.4693 111.58 45.0192 111.58 44.5498C111.58 43.1627 111.029 41.8324 110.048 40.8516C109.067 39.8707 107.737 39.3198 106.35 39.3198H88.3496C85.167 39.3198 82.1147 40.584 79.8643 42.8345C77.6138 45.0849 76.3496 48.1372 76.3496 51.3198V62.9297H79.96C80.9253 62.9297 81.8506 62.5464 82.5332 61.8638C83.2158 61.1811 83.5996 60.2552 83.5996 59.2898V57.2898C83.5987 56.6812 83.743 56.0811 84.0195 55.5391C84.2961 54.997 84.6972 54.5284 85.1904 54.1719C85.6836 53.8154 86.254 53.5813 86.8555 53.4888C87.4569 53.3962 88.0719 53.4481 88.6494 53.6399C94.4445 55.5598 100.705 55.5598 106.5 53.6399C107.078 53.4481 107.692 53.3962 108.294 53.4888C108.895 53.5813 109.466 53.8154 109.959 54.1719C110.452 54.5284 110.854 54.997 111.131 55.5391C111.407 56.0811 111.551 56.6812 111.55 57.2898V59.2898C111.55 60.2552 111.934 61.1811 112.616 61.8638C113.299 62.5464 114.224 62.9297 115.189 62.9297H118.8V51.5098C118.795 50.8221 118.654 50.1422 118.386 49.509C118.117 48.8758 117.727 48.3019 117.236 47.8198C116.746 47.3378 116.165 46.9571 115.527 46.6997C114.89 46.4423 114.207 46.3132 113.52 46.3198Z" stroke="#1B1787" stroke-width="2" stroke-linecap="round" stroke-linejoin="round"/>
<path d="M76.29 62.9697V68.9199C76.29 69.6502 76.5793 70.3506 77.0947 70.8679C77.6102 71.3852 78.3098 71.677 79.04 71.6797C79.2703 71.6793 79.4918 71.7674 79.6592 71.9255C79.8266 72.0837 79.9267 72.2999 79.9395 72.5298C80.2403 76.9874 82.2235 81.1642 85.4873 84.2151C88.7511 87.266 93.0518 88.9631 97.5195 88.9631C101.987 88.9631 106.288 87.266 109.552 84.2151C112.816 81.1642 114.799 76.9874 115.1 72.5298C115.112 72.2999 115.213 72.0837 115.381 71.9255C115.548 71.7674 115.77 71.6793 116 71.6797C116.73 71.677 117.43 71.3852 117.945 70.8679C118.461 70.3506 118.75 69.6502 118.75 68.9199V62.9697" stroke="#1B1787" stroke-width="2" stroke-linecap="round" stroke-linejoin="round"/>
<path d="M104.21 136.61L100.149 113.69H94.8994L90.8398 136.61" fill="white"/>
<path d="M104.21 136.61L100.149 113.69H94.8994L90.8398 136.61" stroke="#1B1787" stroke-width="2" stroke-linecap="round" stroke-linejoin="round"/>
<path d="M97.7197 103.8L91.9697 108.61L94.8994 113.61H100.149L103.08 108.35L97.7197 103.8Z" fill="white" stroke="#1B1787" stroke-width="2" stroke-linecap="round" stroke-linejoin="round"/>
<path d="M76.3701 50.0298H69.79C69.495 50.0285 69.2026 50.0856 68.9297 50.1975C68.6568 50.3095 68.4083 50.4743 68.1992 50.6824C67.9902 50.8905 67.8241 51.1378 67.7109 51.4102C67.5977 51.6826 67.54 51.9748 67.54 52.2698V61.6699C67.54 62.2667 67.7773 62.8388 68.1992 63.2608C68.6212 63.6827 69.1933 63.9199 69.79 63.9199H76.29" stroke="#1B1787" stroke-width="2" stroke-linecap="round" stroke-linejoin="round"/>
<path d="M1.17969 136.61H144.05" stroke="#1B1787" stroke-width="2" stroke-linecap="round" stroke-linejoin="round"/>
</svg>
