<svg width="89" height="67" viewBox="0 0 89 67" fill="none" xmlns="http://www.w3.org/2000/svg">
<path d="M54.2695 51.9895H8.42969C6.53777 51.9895 4.72349 51.2387 3.38477 49.9019C2.04604 48.565 1.29269 46.7515 1.29004 44.8596V8.64966C1.29269 6.75775 2.04604 4.94403 3.38477 3.60718C4.72349 2.27033 6.53777 1.51953 8.42969 1.51953H66.6201C68.5111 1.51953 70.324 2.27078 71.6611 3.60791C72.9983 4.94504 73.75 6.75866 73.75 8.64966V13.4395" stroke="#1B1787" stroke-width="2" stroke-linecap="round" stroke-linejoin="round"/>
<path d="M73.75 13.4395H1.29004V25.8994H73.75V13.4395Z" fill="#4ADBC8" stroke="#1B1787" stroke-width="2" stroke-linecap="round" stroke-linejoin="round"/>
<path d="M26.7402 38.9902H9.45996" stroke="#1B1787" stroke-width="2" stroke-linecap="round" stroke-linejoin="round"/>
<path d="M37.5195 38.9902H32.1699" stroke="#1B1787" stroke-width="2" stroke-linecap="round" stroke-linejoin="round"/>
<path d="M81.1494 59.1201L70.4795 65.5601L59.8096 59.1201C57.9563 57.9993 56.4238 56.419 55.3604 54.5322C54.2969 52.6454 53.7393 50.516 53.7402 48.3501V25.9102H87.2295V48.3501C87.2284 50.5167 86.6686 52.6462 85.6035 54.533C84.5384 56.4197 83.0039 57.9998 81.1494 59.1201Z" fill="#4ADBC8" stroke="#1B1787" stroke-width="2" stroke-linecap="round" stroke-linejoin="round"/>
<path d="M64.0596 42.0103L68.7803 46.7305L76.8701 38.6406" stroke="#1B1787" stroke-width="2" stroke-linecap="round" stroke-linejoin="round"/>
</svg>
