<svg width="66" height="66" viewBox="0 0 66 66" fill="none" xmlns="http://www.w3.org/2000/svg">
<path d="M18.0493 36.1699H5.32912C4.86077 36.1699 4.39743 36.0775 3.96486 35.8979C3.53229 35.7184 3.13932 35.4552 2.80861 35.1235C2.4779 34.7919 2.21593 34.3984 2.03761 33.9653C1.85929 33.5323 1.76823 33.068 1.76955 32.5996C1.76955 32.1321 1.86163 31.6692 2.04054 31.2373C2.21945 30.8054 2.48145 30.4131 2.81203 30.0825C3.1426 29.7519 3.53489 29.4899 3.96681 29.311C4.39873 29.1321 4.86161 29.04 5.32912 29.04H60.8394C61.3069 29.04 61.7698 29.1321 62.2017 29.311C62.6336 29.4899 63.0259 29.7519 63.3565 30.0825C63.687 30.4131 63.9495 30.8054 64.1284 31.2373C64.3073 31.6692 64.3994 32.1321 64.3994 32.5996C64.4007 33.068 64.3097 33.5323 64.1314 33.9653C63.953 34.3984 63.6911 34.7919 63.3604 35.1235C63.0297 35.4552 62.6367 35.7184 62.2041 35.8979C61.7715 36.0775 61.3077 36.1699 60.8394 36.1699H44.5293" fill="#4ADBC8"/>
<path d="M18.0493 36.1699H5.32912C4.86077 36.1699 4.39743 36.0775 3.96486 35.8979C3.53229 35.7184 3.13932 35.4552 2.80861 35.1235C2.4779 34.7919 2.21593 34.3984 2.03761 33.9653C1.85929 33.5323 1.76823 33.068 1.76955 32.5996C1.76955 32.1321 1.86163 31.6692 2.04054 31.2373C2.21945 30.8054 2.48145 30.4131 2.81203 30.0825C3.1426 29.7519 3.53489 29.4899 3.96681 29.311C4.39873 29.1321 4.86161 29.04 5.32912 29.04H60.8394C61.3069 29.04 61.7698 29.1321 62.2017 29.311C62.6336 29.4899 63.0259 29.7519 63.3565 30.0825C63.687 30.4131 63.9495 30.8054 64.1284 31.2373C64.3073 31.6692 64.3994 32.1321 64.3994 32.5996C64.4007 33.068 64.3097 33.5323 64.1314 33.9653C63.953 34.3984 63.6911 34.7919 63.3604 35.1235C63.0297 35.4552 62.6367 35.7184 62.2041 35.8979C61.7715 36.0775 61.3077 36.1699 60.8394 36.1699H44.5293" stroke="#1B1787" stroke-width="2" stroke-linecap="round" stroke-linejoin="round"/>
<path d="M7.84962 29.0405V20.2603C7.84731 19.3072 8.17335 18.3823 8.77247 17.6411C9.37159 16.9 10.2073 16.3879 11.1397 16.1904C12.073 15.9932 12.9105 15.4812 13.5112 14.7402C14.112 13.9993 14.4399 13.074 14.44 12.1201V11.9902H21.6196V12.1201C21.6192 13.0727 21.9456 13.9965 22.5444 14.7373C23.1433 15.4781 23.9782 15.9912 24.9097 16.1904C25.843 16.3876 26.6805 16.8997 27.2813 17.6406C27.882 18.3816 28.2099 19.3063 28.21 20.2603V29.0405" stroke="#1B1787" stroke-width="2" stroke-linecap="round" stroke-linejoin="round"/>
<path d="M22.6602 6.5H13.4102V11.9897H22.6602V6.5Z" fill="#4ADBC8" stroke="#1B1787" stroke-width="2" stroke-linecap="round" stroke-linejoin="round"/>
<path d="M20.7789 1.41016H15.2789C15.1283 1.41015 14.9793 1.44013 14.8404 1.49805C14.7014 1.55596 14.5753 1.64064 14.4693 1.74756C14.3633 1.85448 14.2794 1.98163 14.2227 2.12109C14.166 2.26056 14.1374 2.40951 14.1387 2.56006V6.50049H21.9288V2.56006C21.9288 2.25506 21.8075 1.96274 21.5918 1.74707C21.3762 1.5314 21.0839 1.41016 20.7789 1.41016Z" stroke="#1B1787" stroke-width="2" stroke-linecap="round" stroke-linejoin="round"/>
<path d="M57.439 29.0405C57.2659 27.5608 56.6782 26.1601 55.7441 24.9995C54.81 23.839 53.5672 22.9657 52.1587 22.4805C50.6015 21.9385 49.252 20.925 48.2969 19.5811C47.3418 18.2371 46.8284 16.6293 46.8286 14.9805H37.8286C36.043 19.4735 34.9668 24.2168 34.6387 29.0405" stroke="#1B1787" stroke-width="2" stroke-linecap="round" stroke-linejoin="round"/>
<path d="M56.3999 1.41016H39.48C38.3997 1.41016 37.33 1.62339 36.332 2.03711C35.3341 2.45083 34.4275 3.05693 33.6641 3.82129C32.9006 4.58565 32.2953 5.49325 31.8828 6.4917C31.4703 7.49015 31.2585 8.55983 31.2598 9.64014V11.1904C32.787 10.1702 34.5833 9.62714 36.4199 9.63037H46.8296L49.6397 7.16016H56.3999C56.5439 7.16148 56.6864 7.13426 56.8198 7.08008C56.9532 7.02589 57.075 6.94607 57.1773 6.84473C57.2795 6.74338 57.3606 6.62265 57.416 6.48975C57.4714 6.35685 57.5 6.2143 57.5 6.07031V2.51025C57.5 2.21852 57.384 1.93871 57.1777 1.73242C56.9715 1.52613 56.6916 1.41016 56.3999 1.41016Z" fill="#4ADBC8" stroke="#1B1787" stroke-width="2" stroke-linecap="round" stroke-linejoin="round"/>
<path d="M52.4492 1.41016V7.16016" stroke="#1B1787" stroke-width="2" stroke-linecap="round" stroke-linejoin="round"/>
<path d="M37.8398 14.98H46.8398V9.62988H37.8398V14.98Z" fill="#4ADBC8" stroke="#1B1787" stroke-width="2" stroke-linecap="round" stroke-linejoin="round"/>
<path d="M52.4297 14.7998C51.0593 14.7972 49.7458 14.2517 48.7769 13.2827C47.8079 12.3137 47.2624 11.0002 47.2598 9.62988" stroke="#1B1787" stroke-width="2" stroke-linecap="round" stroke-linejoin="round"/>
<path d="M61.5298 36.1699L58.1499 57.98C57.8873 59.6715 57.0279 61.2129 55.7275 62.3262C54.4272 63.4394 52.7714 64.051 51.0596 64.0498H15.0596C13.3478 64.051 11.6924 63.4394 10.3921 62.3262C9.09174 61.2129 8.23235 59.6715 7.96973 57.98L4.58984 36.1699" stroke="#1B1787" stroke-width="2" stroke-linecap="round" stroke-linejoin="round"/>
<path d="M33.2896 41.5898V55.3096C33.2869 55.9851 33.0172 56.6322 32.5396 57.1099C32.0619 57.5875 31.4147 57.8572 30.7393 57.8599C30.063 57.8599 29.4143 57.591 28.936 57.1128C28.4578 56.6346 28.1895 55.9859 28.1895 55.3096V41.5898" stroke="#1B1787" stroke-width="2" stroke-linecap="round" stroke-linejoin="round"/>
<path d="M28.1899 41.5898V52.7197C28.1899 53.396 27.9211 54.0447 27.4429 54.5229C26.9647 55.0012 26.316 55.27 25.6396 55.27C24.9633 55.27 24.3151 55.0012 23.8369 54.5229C23.3587 54.0447 23.0898 53.396 23.0898 52.7197V41.5898" stroke="#1B1787" stroke-width="2" stroke-linecap="round" stroke-linejoin="round"/>
<path d="M38.3789 36.5V52.7197C38.3789 53.3943 38.1113 54.0416 37.6353 54.5195C37.1592 54.9975 36.5134 55.2674 35.8389 55.27C35.504 55.27 35.1722 55.2038 34.8628 55.0757C34.5534 54.9475 34.2724 54.7597 34.0356 54.5229C33.7989 54.2862 33.6111 54.0052 33.4829 53.6958C33.3548 53.3864 33.2891 53.0546 33.2891 52.7197V41.5898" stroke="#1B1787" stroke-width="2" stroke-linecap="round" stroke-linejoin="round"/>
<path d="M23.1094 41.5498V45.9297C23.1094 46.606 22.8405 47.2547 22.3623 47.7329C21.8841 48.2111 21.2354 48.48 20.5591 48.48C19.8845 48.4773 19.2388 48.2074 18.7627 47.7295C18.2866 47.2516 18.0195 46.6043 18.0195 45.9297V29.0498H42.8691L44.4995 34.52V41.3296C44.4969 42.1394 44.1732 42.9156 43.5996 43.4873C43.026 44.059 42.2493 44.3799 41.4395 44.3799C41.0371 44.3866 40.6373 44.3125 40.2642 44.1616C39.8911 44.0107 39.5522 43.786 39.2676 43.5015C38.983 43.2169 38.7588 42.878 38.6079 42.5049C38.457 42.1318 38.3824 41.732 38.3892 41.3296V36.5" fill="white"/>
<path d="M23.1094 41.5498V45.9297C23.1094 46.606 22.8405 47.2547 22.3623 47.7329C21.8841 48.2111 21.2354 48.48 20.5591 48.48C19.8845 48.4773 19.2388 48.2074 18.7627 47.7295C18.2866 47.2516 18.0195 46.6043 18.0195 45.9297V29.0498H42.8691L44.4995 34.52V41.3296C44.4969 42.1394 44.1732 42.9156 43.5996 43.4873C43.026 44.059 42.2493 44.3799 41.4395 44.3799C41.0371 44.3866 40.6373 44.3125 40.2642 44.1616C39.8911 44.0107 39.5522 43.786 39.2676 43.5015C38.983 43.2169 38.7588 42.878 38.6079 42.5049C38.457 42.1318 38.3824 41.732 38.3892 41.3296V36.5" stroke="#1B1787" stroke-width="2" stroke-linecap="round" stroke-linejoin="round"/>
</svg>
