<svg width="17" height="17" viewBox="0 0 17 17" fill="none" xmlns="http://www.w3.org/2000/svg">
<path d="M16.1686 8.65063C16.1686 10.136 15.7282 11.5877 14.903 12.8228C14.0778 14.0578 12.9052 15.0205 11.5329 15.5889C10.1606 16.1573 8.64984 16.3059 7.19304 16.0161C5.73624 15.7263 4.3986 15.0112 3.34831 13.9609C2.29802 12.9106 1.58242 11.5725 1.29265 10.1157C1.00287 8.65893 1.15197 7.14888 1.72038 5.77661C2.2888 4.40434 3.25099 3.23146 4.48601 2.40625C5.72102 1.58104 7.17352 1.14062 8.65886 1.14062C9.64509 1.14062 10.6217 1.33475 11.5329 1.71216C12.444 2.08957 13.272 2.64272 13.9694 3.34009C14.6668 4.03746 15.2199 4.86546 15.5973 5.77661C15.9747 6.68777 16.1686 7.66441 16.1686 8.65063Z" stroke="#F8A31D" stroke-linecap="round" stroke-linejoin="round"/>
<path d="M8.66016 4.90039V8.65039H12.4102" stroke="#F8A31D" stroke-linecap="round" stroke-linejoin="round"/>
</svg>
