<svg width="17" height="17" viewBox="0 0 17 17" fill="none" xmlns="http://www.w3.org/2000/svg">
<path d="M16.1686 8.20923C16.1686 9.69457 15.7282 11.1466 14.903 12.3816C14.0778 13.6166 12.9052 14.5793 11.5329 15.1477C10.1606 15.7161 8.64984 15.8647 7.19304 15.575C5.73624 15.2852 4.3986 14.5701 3.34831 13.5198C2.29802 12.4695 1.58242 11.1314 1.29265 9.67456C1.00287 8.21776 1.15197 6.70772 1.72038 5.33545C2.2888 3.96318 3.25099 2.7903 4.48601 1.96509C5.72102 1.13988 7.17352 0.699219 8.65886 0.699219C9.64509 0.699219 10.6217 0.893583 11.5329 1.271C12.444 1.64841 13.272 2.20156 13.9694 2.89893C14.6668 3.59629 15.2199 4.42429 15.5973 5.33545C15.9747 6.2466 16.1686 7.223 16.1686 8.20923Z" stroke="#EE271A" stroke-linecap="round" stroke-linejoin="round"/>
<path d="M8.66016 4.45898V8.20898H12.4102" stroke="#EE271A" stroke-linecap="round" stroke-linejoin="round"/>
</svg>
