<svg width="17" height="17" viewBox="0 0 17 17" fill="none" xmlns="http://www.w3.org/2000/svg">
<path d="M16.3288 8.70923C16.3288 10.1946 15.8884 11.6466 15.0632 12.8816C14.2379 14.1166 13.0653 15.079 11.693 15.6475C10.3208 16.2159 8.80999 16.3647 7.35319 16.075C5.8964 15.7852 4.55876 15.0698 3.50847 14.0195C2.45818 12.9692 1.74258 11.6311 1.4528 10.1743C1.16303 8.71752 1.31212 7.20748 1.88054 5.83521C2.44895 4.46293 3.41115 3.29005 4.64616 2.46484C5.88118 1.63963 7.33368 1.19922 8.81901 1.19922C10.8108 1.19922 12.7212 1.99053 14.1296 3.39893C15.538 4.80732 16.3288 6.71745 16.3288 8.70923Z" stroke="#00CB25" stroke-linecap="round" stroke-linejoin="round"/>
<path d="M8.82031 4.92969V8.70972H12.5703" stroke="#00CB25" stroke-linecap="round" stroke-linejoin="round"/>
</svg>
