<svg width="110" height="137" viewBox="0 0 110 137" fill="none" xmlns="http://www.w3.org/2000/svg">
<path d="M25.1201 36.1299V14.1299C25.1201 10.6821 26.4898 7.37547 28.9277 4.9375C31.3657 2.49953 34.6723 1.12988 38.1201 1.12988H71.96C75.4078 1.12988 78.7144 2.49953 81.1523 4.9375C83.5903 7.37547 84.96 10.6821 84.96 14.1299V36.1299" stroke="#1B1787" stroke-width="2" stroke-linecap="round" stroke-linejoin="round"/>
<path d="M54.9103 72.8906C46.9655 72.8088 39.3746 69.589 33.7941 63.9335C28.2136 58.2781 25.0961 50.6455 25.1203 42.7004V32.2404C33.6208 32.2751 42.0476 30.6691 49.9396 27.5104C54.0202 25.8702 57.9239 23.8198 61.59 21.3906C61.9184 21.175 62.3158 21.0913 62.7033 21.1562C63.0907 21.2211 63.4395 21.4296 63.6798 21.7404C66.1924 24.9865 69.4102 27.6186 73.09 29.4377C76.7697 31.2568 80.8153 32.2152 84.9201 32.2404V43.0204C84.9175 46.9541 84.1379 50.8485 82.6271 54.4804C81.1163 58.1124 78.9044 61.4105 76.1164 64.1855C73.3283 66.9605 70.02 69.1578 66.381 70.6516C62.742 72.1453 58.8439 72.9064 54.9103 72.8906Z" stroke="#1B1787" stroke-width="2" stroke-linecap="round" stroke-linejoin="round"/>
<path d="M38.2002 82.8003L53.8496 98.4402C54.2358 98.8255 54.7591 99.042 55.3047 99.042C55.8502 99.042 56.3736 98.8255 56.7598 98.4402L72.2695 82.9502L71.6494 82.7402L96.4902 91.0903C99.8941 92.2351 102.853 94.4187 104.95 97.334C107.047 100.249 108.177 103.749 108.18 107.34V128.24C108.18 130.081 107.449 131.846 106.147 133.148C104.846 134.449 103.081 135.18 101.24 135.18H8.79004C6.94944 135.18 5.18431 134.449 3.88281 133.148C2.58131 131.846 1.84961 130.081 1.84961 128.24V107.34C1.85191 103.748 2.98274 100.246 5.08203 97.3306C7.18132 94.4149 10.1432 92.2321 13.5498 91.0903L38.3896 82.7402L38.2002 82.8003Z" fill="#4ADBC8" stroke="#1B1787" stroke-width="2" stroke-linecap="round" stroke-linejoin="round"/>
<path d="M38.3896 82.8C39.5254 82.4189 40.5131 81.6907 41.2129 80.7183C41.9126 79.7458 42.2895 78.5782 42.29 77.3801V70.04" stroke="#1B1787" stroke-width="2" stroke-linecap="round" stroke-linejoin="round"/>
<path d="M67.75 70.0498V77.3499C67.7506 78.5479 68.1274 79.7155 68.8271 80.688C69.5269 81.6605 70.5136 82.3886 71.6494 82.7698" stroke="#1B1787" stroke-width="2" stroke-linecap="round" stroke-linejoin="round"/>
<path d="M17.4502 125.43H15.0498C14.5794 125.43 14.1285 125.244 13.7949 124.913C13.4614 124.581 13.2722 124.131 13.2695 123.661V115.19C13.2695 112.392 14.3809 109.709 16.3594 107.73C18.3379 105.752 21.0213 104.641 23.8193 104.641C26.6174 104.641 29.3008 105.752 31.2793 107.73C33.2578 109.709 34.3701 112.392 34.3701 115.19V123.661C34.3701 123.893 34.3243 124.123 34.2354 124.338C34.1464 124.553 34.0159 124.748 33.8516 124.912C33.6872 125.076 33.4921 125.207 33.2773 125.296C33.0626 125.385 32.832 125.43 32.5996 125.43H30.1895" stroke="#1B1787" stroke-width="2" stroke-linecap="round" stroke-linejoin="round"/>
<path d="M96.7602 116.2C96.7622 118.028 96.2216 119.815 95.2075 121.336C94.1934 122.857 92.7512 124.043 91.063 124.744C89.3748 125.445 87.5171 125.629 85.7241 125.273C83.9311 124.918 82.283 124.039 80.9897 122.747C79.6965 121.455 78.8158 119.809 78.4585 118.016C78.1011 116.223 78.2838 114.365 78.9829 112.676C79.682 110.987 80.8665 109.544 82.3862 108.528C83.9059 107.512 85.6921 106.97 87.52 106.97C89.9689 106.97 92.3177 107.942 94.0503 109.673C95.7828 111.403 96.7576 113.751 96.7602 116.2Z" stroke="#1B1787" stroke-width="2" stroke-linecap="round" stroke-linejoin="round"/>
<path d="M87.5195 106.969C88.8452 104.001 89.5303 100.786 89.5303 97.5347C89.5303 94.2833 88.8452 91.0684 87.5195 88.0996" stroke="#1B1787" stroke-width="2" stroke-linecap="round" stroke-linejoin="round"/>
<path d="M23.8194 104.64C21.8362 99.2464 21.8362 93.3232 23.8194 87.9297" stroke="#1B1787" stroke-width="2" stroke-linecap="round" stroke-linejoin="round"/>
</svg>
