<svg width="148" height="138" viewBox="0 0 148 138" fill="none" xmlns="http://www.w3.org/2000/svg">
<path d="M101.649 111.42V136.31H1.80957V106.94C1.80999 104.27 2.64543 101.668 4.19824 99.4966C5.75106 97.3252 7.94369 95.6935 10.4697 94.8301L38.1201 85.3701V73.21" stroke="#1B1787" stroke-width="2" stroke-linecap="round" stroke-linejoin="round"/>
<path d="M65.3496 73.21V85.3701L92.9902 94.8301C95.3345 95.6264 97.3951 97.0895 98.9199 99.04" stroke="#1B1787" stroke-width="2" stroke-linecap="round" stroke-linejoin="round"/>
<path d="M75.0498 32.5898V55.1599C75.0498 60.8833 72.7765 66.3722 68.7295 70.4192C64.6825 74.4662 59.1931 76.7397 53.4697 76.7397H49.9102C44.1868 76.7397 38.6974 74.4662 34.6504 70.4192C30.6034 66.3722 28.3301 60.8833 28.3301 55.1599V32.5898" stroke="#1B1787" stroke-width="2" stroke-linecap="round" stroke-linejoin="round"/>
<path d="M51.7305 95.6504L42.0898 101.541L46.9102 110.11H56.5498L61.3701 101.541L51.7305 95.6504Z" fill="#4ADBC8" stroke="#1B1787" stroke-width="2" stroke-linecap="round" stroke-linejoin="round"/>
<path d="M46.9102 110.109L42.0898 136.31H61.3701L56.5498 110.109H46.9102Z" fill="#4ADBC8" stroke="#1B1787" stroke-width="2" stroke-linecap="round" stroke-linejoin="round"/>
<path d="M28.3701 32.5898H23.6895C21.9699 32.5925 20.3224 33.2773 19.1074 34.4941C17.8925 35.711 17.21 37.3603 17.21 39.0798V43.9397C17.2087 44.7915 17.3751 45.6353 17.7002 46.4226C18.0253 47.21 18.5026 47.9255 19.1045 48.5283C19.7064 49.1311 20.4212 49.6093 21.208 49.9355C21.9949 50.2618 22.8377 50.4297 23.6895 50.4297H28.3701V32.5898Z" stroke="#1B1787" stroke-width="2" stroke-linecap="round" stroke-linejoin="round"/>
<path d="M75.0498 32.5898H79.7295C81.449 32.5925 83.0976 33.2773 84.3125 34.4941C85.5274 35.711 86.21 37.3603 86.21 39.0798V43.9397C86.2113 44.7915 86.0448 45.6353 85.7197 46.4226C85.3947 47.21 84.9173 47.9255 84.3154 48.5283C83.7136 49.1311 82.9988 49.6093 82.2119 49.9355C81.4251 50.2618 80.5813 50.4297 79.7295 50.4297H75.0498V32.5898Z" stroke="#1B1787" stroke-width="2" stroke-linecap="round" stroke-linejoin="round"/>
<path d="M38.1104 85.3906L51.7305 95.6504L32.4404 107.431V87.3105L38.1104 85.3906Z" stroke="#1B1787" stroke-width="2" stroke-linecap="round" stroke-linejoin="round"/>
<path d="M65.3496 85.3906L51.7305 95.6504L71.0195 107.431V87.3105L65.3496 85.3906Z" stroke="#1B1787" stroke-width="2" stroke-linecap="round" stroke-linejoin="round"/>
<path d="M49.0498 1.2998H61.2402C63.6854 1.2998 66.1062 1.78154 68.3652 2.71729C70.6243 3.65303 72.6772 5.02439 74.4062 6.75342C76.1353 8.48244 77.5066 10.5351 78.4424 12.7942C79.3781 15.0533 79.8594 17.4747 79.8594 19.9199V32.5898H73.6299C70.3176 32.5905 67.0919 31.5321 64.4238 29.5693C61.7558 27.6065 59.7852 24.842 58.7998 21.6797L57.3701 17.0698L52.2803 25.2598C50.8892 27.5026 48.9481 29.353 46.6416 30.6357C44.3351 31.9185 41.7388 32.5912 39.0996 32.5898H23.6201V19.9199C23.6215 15.4565 25.2252 11.1418 28.1396 7.76123C31.0541 4.38063 35.0854 2.15861 39.5 1.49976L49.0498 1.2998Z" stroke="#1B1787" stroke-width="2" stroke-linecap="round" stroke-linejoin="round"/>
<path d="M138.17 108.96V136.31H101.65V109.06" stroke="#1B1787" stroke-width="2" stroke-linecap="round" stroke-linejoin="round"/>
<path d="M126.06 118.09H113.91V136.31H126.06V118.09Z" fill="#4ADBC8" stroke="#1B1787" stroke-width="2" stroke-linecap="round" stroke-linejoin="round"/>
<path d="M138.17 136.311H144.21" stroke="#1B1787" stroke-width="2" stroke-linecap="round" stroke-linejoin="round"/>
<path d="M141.05 111.24L119.96 94.6604L98.8701 111.24L92.96 103.71L116.96 84.8103C117.805 84.1486 118.847 83.7891 119.92 83.7891C120.993 83.7891 122.035 84.1486 122.88 84.8103L146.88 103.71L141.05 111.24Z" fill="#4ADBC8" stroke="#1B1787" stroke-width="2" stroke-linecap="round" stroke-linejoin="round"/>
</svg>
