<svg width="26" height="19" viewBox="0 0 26 19" fill="none" xmlns="http://www.w3.org/2000/svg">
<path d="M13.6899 12.5205C13.4688 12.6511 13.2168 12.7198 12.96 12.7202C12.7029 12.7213 12.4505 12.6525 12.23 12.5205L0.589844 5.41016V14.8501C0.589844 15.8208 0.975238 16.7521 1.66162 17.4385C2.348 18.1249 3.27931 18.5103 4.25 18.5103H21.6997C22.1799 18.5103 22.6556 18.4155 23.0991 18.2314C23.5426 18.0474 23.9451 17.7775 24.2842 17.4375C24.6232 17.0975 24.8919 16.694 25.0747 16.25C25.2575 15.806 25.3509 15.3303 25.3496 14.8501V5.41016L13.6899 12.5205Z" fill="white"/>
<path d="M21.7007 0.269531H4.25098C3.42278 0.269376 2.61932 0.55277 1.9751 1.07324C1.33088 1.59371 0.884813 2.31965 0.710938 3.12939L12.9907 10.6191L25.2407 3.12939C25.0651 2.32051 24.6185 1.59585 23.9746 1.07568C23.3308 0.555515 22.5284 0.271218 21.7007 0.269531Z" fill="white"/>
</svg>
