<svg width="60" height="55" viewBox="0 0 60 55" fill="none" xmlns="http://www.w3.org/2000/svg">
<path d="M35.2578 22.0205H54.0479" stroke="#1B1787" stroke-width="2" stroke-linecap="round" stroke-linejoin="round"/>
<path d="M35.2578 28.5H54.0479" stroke="#1B1787" stroke-width="2" stroke-linecap="round" stroke-linejoin="round"/>
<path d="M35.2578 34.9805H54.0479" stroke="#1B1787" stroke-width="2" stroke-linecap="round" stroke-linejoin="round"/>
<path d="M30.2095 17.7305C28.9232 17.7305 27.6893 17.2191 26.7798 16.3096C25.8702 15.4 25.3594 14.1667 25.3594 12.8804V2.23047C25.3594 1.92282 25.4817 1.6277 25.6992 1.41016C25.9168 1.19261 26.2119 1.07031 26.5195 1.07031H33.9092C34.061 1.07031 34.2114 1.10027 34.3516 1.15869C34.4917 1.21711 34.6192 1.3028 34.7261 1.41064C34.833 1.51849 34.9174 1.64643 34.9746 1.78711C35.0318 1.92779 35.0604 2.07861 35.0591 2.23047V12.8804C35.0591 14.1667 34.5482 15.4 33.6387 16.3096C32.7291 17.2191 31.4958 17.7305 30.2095 17.7305Z" fill="#4ADBC8" stroke="#1B1787" stroke-width="2" stroke-linecap="round" stroke-linejoin="round"/>
<path d="M44.0488 44.0995C44.0488 43.1106 44.3422 42.1439 44.8916 41.3216C45.441 40.4994 46.2216 39.8588 47.1353 39.4803C48.0489 39.1019 49.0545 39.0027 50.0244 39.1956C50.9943 39.3886 51.8852 39.865 52.5845 40.5643C53.2837 41.2636 53.7597 42.1545 53.9526 43.1244C54.1456 44.0943 54.0469 45.0994 53.6685 46.013C53.29 46.9267 52.6489 47.7078 51.8267 48.2572C51.0044 48.8066 50.0377 49.0995 49.0488 49.0995C47.7227 49.0995 46.4509 48.5728 45.5132 47.6351C44.5755 46.6974 44.0488 45.4255 44.0488 44.0995Z" fill="#4ADBC8" stroke="#1B1787" stroke-width="2" stroke-linecap="round" stroke-linejoin="round"/>
<path d="M30.2086 7.7998C29.8665 7.7998 29.5317 7.69839 29.2472 7.50829C28.9627 7.3182 28.7409 7.04804 28.61 6.73192C28.479 6.41581 28.4451 6.068 28.5118 5.73241C28.5786 5.39683 28.743 5.08862 28.985 4.84667C29.2269 4.60473 29.5351 4.43979 29.8707 4.37304C30.2063 4.30629 30.5546 4.34073 30.8707 4.47167C31.1868 4.60261 31.457 4.82438 31.6471 5.10888C31.8372 5.39337 31.9386 5.72765 31.9386 6.06982C31.9386 6.52864 31.7562 6.96852 31.4318 7.29296C31.1073 7.6174 30.6674 7.7998 30.2086 7.7998Z" stroke="#1B1787" stroke-width="2" stroke-linecap="round" stroke-linejoin="round"/>
<path d="M18.3989 38.9702C17.11 38.9702 15.8738 38.4583 14.9624 37.5469C14.051 36.6354 13.5391 35.3993 13.5391 34.1104V32.1802C13.5391 30.8912 14.051 29.6551 14.9624 28.7437C15.8738 27.8322 17.11 27.3203 18.3989 27.3203C19.6879 27.3203 20.924 27.8322 21.8354 28.7437C22.7469 29.6551 23.2588 30.8912 23.2588 32.1802V34.1104C23.2588 34.7486 23.1329 35.3806 22.8887 35.9702C22.6444 36.5599 22.2867 37.0956 21.8354 37.5469C21.3842 37.9982 20.8484 38.3563 20.2588 38.6006C19.6691 38.8448 19.0372 38.9702 18.3989 38.9702Z" stroke="#1B1787" stroke-width="2" stroke-linecap="round" stroke-linejoin="round"/>
<path d="M23.8687 40.0098H20.7891V41.0796C20.7891 41.7135 20.5371 42.3218 20.0889 42.77C19.6407 43.2182 19.0328 43.4697 18.3989 43.4697C17.7651 43.4697 17.1572 43.2182 16.709 42.77C16.2608 42.3218 16.0088 41.7135 16.0088 41.0796V40.0098H12.9287C12.5497 40.0098 12.1743 40.0846 11.8242 40.23C11.4742 40.3753 11.1563 40.5884 10.8887 40.8569C10.6211 41.1254 10.4093 41.4439 10.2652 41.7944C10.121 42.145 10.0475 42.5209 10.0488 42.8999V49.1099H26.7588V42.8999C26.7588 42.5204 26.6843 42.1446 26.5391 41.7939C26.3938 41.4433 26.181 41.1248 25.9126 40.8564C25.6443 40.5881 25.3253 40.3752 24.9746 40.23C24.624 40.0847 24.2482 40.0098 23.8687 40.0098Z" stroke="#1B1787" stroke-width="2" stroke-linecap="round" stroke-linejoin="round"/>
<path d="M18.3979 38.9697C17.5602 38.9701 16.7365 38.7531 16.0078 38.3398V41.0796C16.0078 41.7135 16.2598 42.3218 16.708 42.77C17.1562 43.2182 17.7641 43.4697 18.3979 43.4697C19.0318 43.4697 19.6397 43.2182 20.0879 42.77C20.5361 42.3218 20.7881 41.7135 20.7881 41.0796V38.3398C20.0599 38.7544 19.2359 38.9715 18.3979 38.9697Z" stroke="#1B1787" stroke-width="2" stroke-linecap="round" stroke-linejoin="round"/>
<path d="M25.1484 22.0205H30.4082V49.1104H6.4082V22.0205H21.4082" stroke="#1B1787" stroke-width="2" stroke-linecap="round" stroke-linejoin="round"/>
<path d="M1.52881 34.98V50.7998C1.52749 51.1789 1.60097 51.5542 1.74512 51.9048C1.88926 52.2554 2.10109 52.5743 2.36865 52.8428C2.63622 53.1113 2.95413 53.3244 3.3042 53.4697C3.65427 53.6151 4.02964 53.6899 4.40869 53.6899H56.0488C56.8153 53.6899 57.5503 53.3852 58.0923 52.8433C58.6343 52.3013 58.939 51.5663 58.939 50.7998V14.52C58.9363 13.7544 58.6308 13.0204 58.0894 12.479C57.5479 11.9376 56.8145 11.6325 56.0488 11.6299H35.0488V12.8398C35.0488 14.1261 34.538 15.3595 33.6284 16.269C32.7189 17.1786 31.485 17.6899 30.1987 17.6899C28.9124 17.6899 27.6791 17.1786 26.7695 16.269C25.86 15.3595 25.3486 14.1261 25.3486 12.8398V11.6299H4.34863C3.58389 11.6325 2.85134 11.9383 2.31152 12.48C1.7717 13.0217 1.46875 13.7553 1.46875 14.52V34.9399L1.52881 34.98Z" stroke="#1B1787" stroke-width="2" stroke-linecap="round" stroke-linejoin="round"/>
<path d="M47.6797 45.4399L50.3696 42.75" stroke="#1B1787" stroke-width="2" stroke-linecap="round" stroke-linejoin="round"/>
</svg>
