<svg width="37" height="28" viewBox="0 0 37 28" fill="none" xmlns="http://www.w3.org/2000/svg">
<path d="M26.1895 27.4409C29.6357 27.4409 32.4287 24.6472 32.4287 21.2009C32.4287 17.7547 29.6357 14.9609 26.1895 14.9609C22.7432 14.9609 19.9492 17.7547 19.9492 21.2009C19.9492 24.6472 22.7432 27.4409 26.1895 27.4409Z" fill="#949494"/>
<path d="M14.4395 12.6792C17.8857 12.6792 20.6787 9.88547 20.6787 6.43921C20.6787 2.99295 17.8857 0.199219 14.4395 0.199219C10.9932 0.199219 8.19922 2.99295 8.19922 6.43921C8.19922 9.88547 10.9932 12.6792 14.4395 12.6792Z" fill="#949494"/>
<path d="M35.8398 21.1992H32.4297" stroke="#949494" stroke-width="2" stroke-linecap="round" stroke-linejoin="round"/>
<path d="M1.78906 6.43945H8.18945" stroke="#949494" stroke-width="2" stroke-linecap="round" stroke-linejoin="round"/>
<path d="M19.9492 21.1992H1.78906" stroke="#949494" stroke-width="2" stroke-linecap="round" stroke-linejoin="round"/>
<path d="M20.6797 6.43945H35.8398" stroke="#949494" stroke-width="2" stroke-linecap="round" stroke-linejoin="round"/>
</svg>
