<svg width="67" height="55" viewBox="0 0 67 55" fill="none" xmlns="http://www.w3.org/2000/svg">
<path d="M33.5005 43.5098C42.2155 43.5098 49.2803 36.4455 49.2803 27.7305C49.2803 19.0154 42.2155 11.9502 33.5005 11.9502C24.7854 11.9502 17.7207 19.0154 17.7207 27.7305C17.7207 36.4455 24.7854 43.5098 33.5005 43.5098Z" fill="#4ADBC8" stroke="#1B1787" stroke-width="2" stroke-linecap="round" stroke-linejoin="round"/>
<path d="M55.7202 16.7099C53.9115 13.0662 51.2346 9.92301 47.9248 7.55804C44.6151 5.19306 40.7743 3.67894 36.7412 3.14837C32.7081 2.6178 28.6062 3.08754 24.7974 4.51604C20.9886 5.94455 17.5899 8.28786 14.9004 11.3398" stroke="#1B1787" stroke-width="2" stroke-linecap="round" stroke-linejoin="round"/>
<path d="M11.8691 39.8599C14.5202 44.5806 18.6433 48.3041 23.6089 50.4619C28.5745 52.6197 34.1097 53.093 39.3696 51.8101C44.6296 50.5271 49.3254 47.5582 52.7397 43.3564C56.1541 39.1547 58.0996 33.9512 58.2793 28.54" stroke="#1B1787" stroke-width="2" stroke-linecap="round" stroke-linejoin="round"/>
<path d="M2.56929 1.66992L1.47945 12.52C1.38743 13.4622 1.49324 14.4132 1.79048 15.312C2.08773 16.2108 2.5699 17.0372 3.20552 17.7388C3.84115 18.4403 4.6162 19.0011 5.4814 19.3853C6.3466 19.7695 7.28278 19.9686 8.22945 19.9697C9.17658 19.9702 10.113 19.7724 10.979 19.3887C11.8449 19.005 12.6209 18.4441 13.2568 17.7422C13.8927 17.0403 14.3747 16.213 14.6713 15.3135C14.968 14.414 15.073 13.4625 14.9794 12.52L13.8994 1.66992" stroke="#1B1787" stroke-width="2" stroke-linecap="round" stroke-linejoin="round"/>
<path d="M5.20029 19.9697L4.44052 49.8999C4.42854 50.4056 4.51727 50.9086 4.70224 51.3794C4.88721 51.8502 5.16467 52.2793 5.51767 52.6416C5.87067 53.0039 6.29255 53.2921 6.75839 53.4893C7.22423 53.6864 7.72472 53.7888 8.23056 53.79C8.7368 53.7902 9.23773 53.6889 9.7042 53.4922C10.1707 53.2955 10.5931 53.0071 10.9464 52.6445C11.2997 52.2819 11.5768 51.8523 11.7613 51.3809C11.9458 50.9094 12.034 50.406 12.0206 49.8999L11.2603 19.9697" stroke="#1B1787" stroke-width="2" stroke-linecap="round" stroke-linejoin="round"/>
<path d="M1.48047 12.5195H14.9805" stroke="#1B1787" stroke-width="2" stroke-linecap="round" stroke-linejoin="round"/>
<path d="M8.23047 12.4004V1.66992" stroke="#1B1787" stroke-width="2" stroke-linecap="round" stroke-linejoin="round"/>
<path d="M57.9908 7.23012L54.9908 20.5099C54.7659 21.4876 54.8066 22.5079 55.109 23.4645C55.4115 24.4211 55.9649 25.2792 56.7111 25.9498C57.3336 26.5117 57.8226 27.2055 58.1427 27.9806C58.4628 28.7557 58.6054 29.5924 58.5607 30.4298L57.5607 49.8498C57.5335 50.3575 57.6105 50.8658 57.7863 51.3429C57.962 51.82 58.2331 52.2559 58.5831 52.6247C58.9332 52.9934 59.3546 53.2871 59.8219 53.4874C60.2892 53.6878 60.7925 53.7909 61.3009 53.7902C62.2911 53.7875 63.2399 53.3922 63.9391 52.6911C64.6383 51.99 65.0309 51.0401 65.0309 50.0499V1.67006C63.4005 1.65982 61.8153 2.20447 60.5358 3.21499C59.2563 4.2255 58.3587 5.64175 57.9908 7.23012Z" stroke="#1B1787" stroke-width="2" stroke-linecap="round" stroke-linejoin="round"/>
</svg>
