<svg width="104" height="136" viewBox="0 0 104 136" fill="none" xmlns="http://www.w3.org/2000/svg">
<path d="M48.4902 30.02L3.0498 59.8001C2.58049 60.1059 2.19487 60.524 1.92773 61.0164C1.66059 61.5087 1.52009 62.0599 1.51953 62.6201V66.3001C1.51953 67.1152 1.84252 67.897 2.41797 68.4744C2.99342 69.0517 3.77471 69.3775 4.58984 69.3801H99.8398C100.655 69.3775 101.436 69.0517 102.012 68.4744C102.587 67.897 102.91 67.1152 102.91 66.3001V62.6401C102.912 62.0746 102.77 61.5177 102.499 61.0212C102.228 60.5248 101.836 60.1047 101.359 59.8001L54.96 30.03C53.9952 29.4103 52.8732 29.0799 51.7266 29.0781C50.5799 29.0764 49.4569 29.4033 48.4902 30.02Z" stroke="#1B1787" stroke-width="2" stroke-linecap="round" stroke-linejoin="round"/>
<path d="M22.2295 58.4299L49.1202 40.8201C49.9132 40.3089 50.8368 40.0371 51.7803 40.0371C52.7238 40.0371 53.6465 40.3089 54.4395 40.8201L81.9102 58.4399C82.062 58.5366 82.1781 58.6801 82.2412 58.8486C82.3044 59.0171 82.3106 59.2016 82.2598 59.3743C82.209 59.5469 82.1034 59.6984 81.959 59.8059C81.8147 59.9134 81.64 59.9708 81.46 59.97H22.6797C22.4968 59.9745 22.3178 59.9185 22.17 59.8105C22.0222 59.7026 21.9137 59.5487 21.8623 59.373C21.811 59.1974 21.8194 59.0097 21.8858 58.8391C21.9522 58.6686 22.0729 58.5246 22.2295 58.4299Z" stroke="#1B1787" stroke-width="2" stroke-linecap="round" stroke-linejoin="round"/>
<path d="M26.8496 69.34H15.3301C14.2608 69.3924 13.2519 69.8539 12.5137 70.6293C11.7754 71.4046 11.3643 72.4344 11.3643 73.505C11.3643 74.5756 11.7754 75.6051 12.5137 76.3805C13.2519 77.1558 14.2608 77.6176 15.3301 77.67V114.57H26.8496V77.67C27.4137 77.6977 27.9774 77.6103 28.5068 77.4135C29.0362 77.2166 29.5207 76.9143 29.9297 76.5248C30.3387 76.1353 30.6642 75.6669 30.8867 75.1478C31.1092 74.6287 31.2236 74.0698 31.2236 73.505C31.2236 72.9402 31.1092 72.3813 30.8867 71.8622C30.6642 71.3431 30.3387 70.8745 29.9297 70.485C29.5207 70.0955 29.0362 69.7931 28.5068 69.5963C27.9774 69.3995 27.4137 69.3123 26.8496 69.34Z" fill="#4ADBC8" stroke="#1B1787" stroke-width="2" stroke-linecap="round" stroke-linejoin="round"/>
<path d="M57.4795 69.3398H45.96C44.8906 69.3923 43.8818 69.8538 43.1436 70.6292C42.4053 71.4045 41.9941 72.4343 41.9941 73.5049C41.9941 74.5755 42.4053 75.605 43.1436 76.3804C43.8818 77.1557 44.8906 77.6175 45.96 77.6699V114.57H57.4795V77.6699C58.5488 77.6175 59.5576 77.1557 60.2959 76.3804C61.0342 75.605 61.4453 74.5755 61.4453 73.5049C61.4453 72.4343 61.0342 71.4045 60.2959 70.6292C59.5576 69.8538 58.5488 69.3923 57.4795 69.3398Z" fill="#4ADBC8" stroke="#1B1787" stroke-width="2" stroke-linecap="round" stroke-linejoin="round"/>
<path d="M88.1094 69.34H76.5898C76.0257 69.3123 75.462 69.3995 74.9326 69.5963C74.4032 69.7931 73.9188 70.0955 73.5098 70.485C73.1007 70.8745 72.7752 71.3431 72.5527 71.8622C72.3302 72.3813 72.2158 72.9402 72.2158 73.505C72.2158 74.0698 72.3302 74.6287 72.5527 75.1478C72.7752 75.6669 73.1007 76.1353 73.5098 76.5248C73.9188 76.9143 74.4032 77.2166 74.9326 77.4135C75.462 77.6103 76.0257 77.6977 76.5898 77.67V114.57H88.1094V77.67C89.1787 77.6176 90.1875 77.1558 90.9258 76.3805C91.6641 75.6051 92.0752 74.5756 92.0752 73.505C92.0752 72.4344 91.6641 71.4046 90.9258 70.6293C90.1875 69.8539 89.1787 69.3924 88.1094 69.34Z" fill="#4ADBC8" stroke="#1B1787" stroke-width="2" stroke-linecap="round" stroke-linejoin="round"/>
<path d="M61.4395 124.8H92.5C92.8073 124.8 93.1116 124.739 93.3955 124.622C93.6794 124.504 93.937 124.332 94.1543 124.115C94.3716 123.897 94.5445 123.639 94.6621 123.355C94.7797 123.071 94.8398 122.767 94.8398 122.46V116.95C94.8398 116.329 94.5931 115.734 94.1543 115.295C93.7155 114.856 93.1206 114.61 92.5 114.61H10.9395C10.3188 114.61 9.72399 114.856 9.28516 115.295C8.84632 115.734 8.59961 116.329 8.59961 116.95V122.46C8.59961 122.767 8.66072 123.071 8.77832 123.355C8.89592 123.639 9.06787 123.897 9.28516 124.115C9.50245 124.332 9.76004 124.504 10.0439 124.622C10.3278 124.739 10.6322 124.8 10.9395 124.8H42.29" stroke="#1B1787" stroke-width="2" stroke-linecap="round" stroke-linejoin="round"/>
<path d="M3.87012 124.8C3.24859 124.802 2.65339 125.051 2.21484 125.492C1.77629 125.932 1.53027 126.528 1.53027 127.15V132.66C1.53027 133.281 1.77601 133.876 2.21484 134.314C2.65368 134.753 3.24951 135 3.87012 135H100.58C101.201 135 101.796 134.753 102.234 134.314C102.673 133.876 102.92 133.281 102.92 132.66V127.15C102.92 126.528 102.674 125.932 102.235 125.492C101.797 125.051 101.202 124.802 100.58 124.8H3.87012Z" fill="#4ADBC8" stroke="#1B1787" stroke-width="2" stroke-linecap="round" stroke-linejoin="round"/>
<path d="M52.0498 18.4199H77.8896L69.2695 9.80981L77.8896 1.19971H52.0498V18.4199Z" fill="#4ADBC8" stroke="#1B1787" stroke-width="2" stroke-linecap="round" stroke-linejoin="round"/>
<path d="M52.0498 18.4199V28.3198" stroke="#1B1787" stroke-width="2" stroke-linecap="round" stroke-linejoin="round"/>
</svg>
