<svg width="99" height="22" viewBox="0 0 99 22" fill="none" xmlns="http://www.w3.org/2000/svg">
<path d="M37.25 4.88966C37.253 5.32598 37.1785 5.75939 37.03 6.16969C36.8938 6.54653 36.6752 6.88818 36.39 7.16969C36.1094 7.45591 35.7675 7.67463 35.39 7.80958C34.9884 7.96538 34.5608 8.04354 34.13 8.03969H31.78V1.74965H34.13C34.5608 1.7458 34.9884 1.82383 35.39 1.97963C35.7675 2.11458 36.1094 2.33342 36.39 2.61964C36.6709 2.90454 36.889 3.24521 37.03 3.61964C37.1753 4.02731 37.2497 4.45687 37.25 4.88966ZM36.38 4.88966C36.3778 4.55013 36.3239 4.21293 36.22 3.88966C36.1208 3.60652 35.968 3.34509 35.77 3.11964C35.5775 2.907 35.3377 2.74259 35.07 2.63966C34.7772 2.52394 34.4648 2.46616 34.15 2.46962H32.66V7.37965H34.15C34.4648 7.38311 34.7772 7.32533 35.07 7.20961C35.3377 7.10668 35.5775 6.94228 35.77 6.72963C35.9701 6.50572 36.1232 6.24384 36.22 5.95961C36.3324 5.6143 36.3865 5.25274 36.38 4.88966Z" fill="white"/>
<path d="M40.1001 3.51995C40.4011 3.51413 40.7003 3.56844 40.9801 3.67987C41.2315 3.78235 41.4569 3.93956 41.6401 4.13995C41.8291 4.34779 41.9722 4.59309 42.0601 4.85992C42.2602 5.47403 42.2602 6.13583 42.0601 6.74994C41.9722 7.01677 41.8291 7.26207 41.6401 7.46991C41.4569 7.6703 41.2315 7.82739 40.9801 7.92987C40.7003 8.04129 40.4011 8.09573 40.1001 8.0899C39.7957 8.09572 39.4933 8.04131 39.2101 7.92987C38.9587 7.82739 38.7332 7.6703 38.5501 7.46991C38.3575 7.26299 38.2109 7.01763 38.1201 6.74994C37.9334 6.13376 37.9334 5.4761 38.1201 4.85992C38.2109 4.59223 38.3575 4.34686 38.5501 4.13995C38.7332 3.93956 38.9587 3.78235 39.2101 3.67987C39.4933 3.56842 39.7957 3.51413 40.1001 3.51995ZM40.1001 7.51995C40.2902 7.53528 40.4811 7.50301 40.6557 7.4262C40.8302 7.3494 40.9829 7.2304 41.1001 7.07989C41.3102 6.7022 41.4205 6.27713 41.4205 5.84491C41.4205 5.41268 41.3102 4.98762 41.1001 4.60992C40.9829 4.45941 40.8302 4.34042 40.6557 4.26361C40.4811 4.1868 40.2902 4.15465 40.1001 4.16998C39.9012 4.16677 39.7039 4.20419 39.5201 4.27996C39.3564 4.35138 39.2148 4.46528 39.1101 4.60992C38.9895 4.76649 38.9042 4.94732 38.8601 5.13995C38.8059 5.37271 38.7791 5.61094 38.7801 5.84991C38.7531 6.28492 38.869 6.7168 39.1101 7.07989C39.2299 7.22232 39.3828 7.33328 39.5553 7.40301C39.7279 7.47274 39.9149 7.49913 40.1001 7.47992V7.51995Z" fill="white"/>
<path d="M42.66 3.58954H43.2701C43.3223 3.57453 43.3778 3.57453 43.4301 3.58954C43.4689 3.61993 43.4969 3.66199 43.51 3.70953L44.36 6.56952C44.36 6.66952 44.4101 6.76957 44.4301 6.86957C44.4524 6.96517 44.4691 7.06204 44.48 7.15961C44.5007 7.06139 44.5275 6.9645 44.5601 6.86957L44.6501 6.56952L45.5901 3.68951C45.6073 3.64683 45.6347 3.60906 45.67 3.57953C45.7119 3.56333 45.7582 3.56333 45.8 3.57953H46.14C46.1888 3.5635 46.2413 3.5635 46.29 3.57953C46.3222 3.61183 46.3493 3.64892 46.3701 3.68951L47.2801 6.56952L47.3701 6.86957C47.3701 6.96957 47.4201 7.06961 47.4401 7.15961L47.5001 6.86957C47.5001 6.76957 47.5 6.66952 47.57 6.56952L48.4401 3.70953C48.4509 3.66098 48.4794 3.6182 48.5201 3.58954C48.5688 3.57351 48.6213 3.57351 48.67 3.58954H49.2501L47.82 8.0296H47.2C47.12 8.0296 47.07 8.02958 47.04 7.87958L46.04 4.87958L45.98 4.66962C45.98 4.59962 45.98 4.53954 45.98 4.46954C45.98 4.39954 45.9801 4.59962 45.9301 4.66962C45.9193 4.74089 45.9025 4.8111 45.88 4.87958L44.88 7.87958C44.8729 7.92195 44.8508 7.96034 44.8178 7.98785C44.7848 8.01536 44.743 8.0302 44.7 8.0296H44.05L42.66 3.58954Z" fill="white"/>
<path d="M50.05 7.99004V3.5501H50.5201C50.5437 3.54732 50.5677 3.54916 50.5906 3.55572C50.6135 3.56228 50.6349 3.57343 50.6535 3.58831C50.6721 3.60319 50.6875 3.6216 50.699 3.64251C50.7104 3.66341 50.7176 3.68632 50.7201 3.71001L50.7801 4.18999C50.9681 3.98362 51.1874 3.80824 51.4301 3.6701C51.6864 3.5382 51.9718 3.4728 52.26 3.48003C52.4794 3.47545 52.6973 3.51631 52.9001 3.60003C53.0814 3.67461 53.2425 3.79109 53.3701 3.93999C53.4983 4.09587 53.5936 4.27621 53.6501 4.47002C53.7155 4.69422 53.7491 4.92654 53.7501 5.16009V7.99004H52.9601V5.16009C52.9819 4.88065 52.9 4.60294 52.73 4.38006C52.6437 4.28144 52.5353 4.2046 52.4137 4.15594C52.292 4.10727 52.1606 4.08813 52.0301 4.10003C51.8019 4.0958 51.5769 4.15467 51.38 4.27007C51.1724 4.38758 50.9863 4.53973 50.83 4.72002V7.99004H50.05Z" fill="white"/>
<path d="M55.7201 1.5697V7.98975H54.9401V1.52979L55.7201 1.5697Z" fill="white"/>
<path d="M58.8501 3.51995C59.1511 3.51413 59.4503 3.56844 59.7301 3.67987C59.9815 3.78235 60.2069 3.93956 60.3901 4.13995C60.5791 4.34779 60.7222 4.59309 60.8101 4.85992C61.0102 5.47403 61.0102 6.13583 60.8101 6.74994C60.7222 7.01677 60.5791 7.26207 60.3901 7.46991C60.2069 7.6703 59.9815 7.82739 59.7301 7.92987C59.4503 8.04129 59.1511 8.09573 58.8501 8.0899C58.5457 8.09572 58.2433 8.04131 57.9601 7.92987C57.7087 7.82739 57.4832 7.6703 57.3001 7.46991C57.1075 7.26299 56.9609 7.01763 56.8701 6.74994C56.6834 6.13376 56.6834 5.4761 56.8701 4.85992C56.9609 4.59223 57.1075 4.34686 57.3001 4.13995C57.4832 3.93956 57.7087 3.78235 57.9601 3.67987C58.2433 3.56842 58.5457 3.51413 58.8501 3.51995ZM58.8501 7.51995C59.0402 7.53528 59.2311 7.50301 59.4057 7.4262C59.5802 7.3494 59.7329 7.2304 59.8501 7.07989C60.0602 6.7022 60.1705 6.27713 60.1705 5.84491C60.1705 5.41268 60.0602 4.98762 59.8501 4.60992C59.7329 4.45941 59.5802 4.34042 59.4057 4.26361C59.2311 4.1868 59.0402 4.15465 58.8501 4.16998C58.6512 4.16677 58.4539 4.20419 58.2701 4.27996C58.1064 4.35138 57.9648 4.46528 57.8601 4.60992C57.7395 4.76649 57.6542 4.94732 57.6101 5.13995C57.5559 5.37271 57.5291 5.61094 57.5301 5.84991C57.5031 6.28492 57.619 6.7168 57.8601 7.07989C57.9799 7.22232 58.1328 7.33328 58.3053 7.40301C58.4779 7.47274 58.6649 7.49913 58.8501 7.47992V7.51995Z" fill="white"/>
<path d="M64.7701 7.98955C64.7109 8.00322 64.6493 8.00322 64.5901 7.98955C64.5423 7.95265 64.5102 7.89907 64.5001 7.83953L64.4101 7.42949C64.2901 7.52949 64.1801 7.62952 64.0701 7.70952C63.9559 7.78904 63.8355 7.85935 63.7101 7.9196C63.5873 7.97335 63.4602 8.01683 63.3301 8.04961C63.1739 8.06594 63.0164 8.06594 62.8601 8.04961C62.6968 8.04907 62.5347 8.02197 62.3801 7.96953C62.2344 7.92618 62.0985 7.85489 61.9801 7.75957C61.866 7.65577 61.7742 7.5299 61.7101 7.38957C61.6435 7.22432 61.6096 7.04772 61.6101 6.86955C61.6132 6.68913 61.665 6.5129 61.7601 6.35954C61.874 6.1755 62.0367 6.02659 62.2301 5.92949C62.4924 5.7833 62.7757 5.67878 63.0701 5.61955C63.491 5.53004 63.9198 5.48313 64.3501 5.47954V5.13957C64.3718 4.85858 64.2939 4.57886 64.1301 4.34954C64.0472 4.26146 63.9461 4.19254 63.8339 4.14763C63.7216 4.10272 63.6009 4.0829 63.4801 4.08953C63.3139 4.08291 63.1478 4.1067 62.9901 4.15959C62.8724 4.20295 62.7586 4.2564 62.6501 4.31951L62.4101 4.47954C62.3528 4.52545 62.2832 4.55326 62.2101 4.5595C62.1647 4.57474 62.1155 4.57474 62.0701 4.5595C62.0297 4.53404 61.9956 4.49989 61.9701 4.45952L61.8301 4.20952C62.0633 3.98684 62.3341 3.80735 62.6301 3.67949C62.9285 3.55907 63.2484 3.50128 63.5701 3.50957C63.7959 3.50507 64.0203 3.54586 64.2301 3.62956C64.414 3.70989 64.5805 3.82535 64.7201 3.96953C64.8553 4.12222 64.9544 4.30338 65.0101 4.49956C65.0804 4.72267 65.1142 4.95561 65.1101 5.1895V7.98955H64.7701ZM63.0901 7.50957C63.2163 7.5259 63.344 7.5259 63.4701 7.50957C63.581 7.48173 63.6883 7.44148 63.7901 7.38957C63.8926 7.33567 63.9898 7.27198 64.0801 7.19951C64.1794 7.12684 64.27 7.04295 64.3501 6.94951V5.98955C64.0421 5.99688 63.7348 6.02355 63.4301 6.06951C63.221 6.10772 63.0165 6.16811 62.8201 6.24956C62.6821 6.30305 62.5612 6.39291 62.4701 6.50957C62.4 6.60542 62.3615 6.72075 62.3601 6.83953C62.3567 6.94281 62.3772 7.04554 62.4201 7.13957C62.4532 7.22289 62.5086 7.29549 62.5801 7.34953C62.6437 7.41077 62.7235 7.45242 62.8101 7.46953C62.8857 7.50788 62.9666 7.53492 63.0501 7.54961L63.0901 7.50957Z" fill="white"/>
<path d="M69.5101 7.98975C69.4602 7.9928 69.4109 7.97703 69.3721 7.94556C69.3332 7.91409 69.3075 7.86916 69.3001 7.8197L69.2301 7.27979C69.0508 7.5059 68.8303 7.69587 68.5801 7.83972C68.324 7.98371 68.0339 8.05632 67.7401 8.0498C67.5017 8.0525 67.2658 8.00119 67.0501 7.89978C66.8402 7.80308 66.658 7.65517 66.5201 7.46973C66.3609 7.25792 66.2453 7.01662 66.1801 6.75977C66.0934 6.4337 66.0531 6.09708 66.0601 5.75977C66.0605 5.45183 66.1043 5.14546 66.1901 4.84973C66.2718 4.58243 66.4004 4.33185 66.5701 4.10974C66.7343 3.90694 66.9386 3.74015 67.1701 3.61975C67.423 3.50023 67.7005 3.44194 67.9801 3.44971C68.2212 3.4409 68.461 3.48887 68.6801 3.58972C68.874 3.68553 69.0499 3.81409 69.2001 3.96973V1.50977H69.9801V7.98975H69.5101ZM67.9901 7.4198C68.2293 7.42613 68.4653 7.3636 68.6701 7.23975C68.875 7.10991 69.0546 6.94388 69.2001 6.74976V4.59973C69.0765 4.42791 68.9114 4.29026 68.7201 4.19971C68.543 4.1131 68.3471 4.07187 68.1501 4.07971C67.9595 4.0596 67.767 4.08969 67.5916 4.16687C67.4162 4.24405 67.264 4.36568 67.1501 4.51978C66.9081 4.89362 66.7924 5.33529 66.8201 5.77979C66.8147 6.03164 66.8382 6.28328 66.8901 6.52979C66.9331 6.70823 67.0076 6.87756 67.1101 7.02979C67.2031 7.15583 67.3272 7.25563 67.4701 7.3197C67.6274 7.41304 67.8072 7.46148 67.9901 7.45972V7.4198Z" fill="white"/>
<path d="M74.45 2.18948C74.4651 2.26204 74.4651 2.33702 74.45 2.40958C74.4193 2.47223 74.3788 2.52953 74.33 2.5795C74.2782 2.63062 74.2171 2.67135 74.15 2.69949C74.0775 2.71459 74.0026 2.71459 73.93 2.69949C73.8608 2.71467 73.7892 2.71467 73.72 2.69949C73.6559 2.67135 73.598 2.63054 73.55 2.5795C73.5013 2.52953 73.4608 2.47223 73.43 2.40958C73.3981 2.34058 73.381 2.26552 73.38 2.18948C73.3812 2.11668 73.3983 2.04505 73.43 1.97952C73.4582 1.91241 73.4989 1.85138 73.55 1.79959C73.5948 1.74262 73.6533 1.6979 73.72 1.66959C73.7892 1.65441 73.8608 1.65441 73.93 1.66959C74.0026 1.65449 74.0775 1.65449 74.15 1.66959C74.2197 1.69757 74.2815 1.74221 74.33 1.79959C74.3811 1.85138 74.4219 1.91241 74.45 1.97952C74.4649 2.04873 74.4649 2.12027 74.45 2.18948ZM74.28 3.58951V7.98953H73.5V3.54959L74.28 3.58951Z" fill="white"/>
<path d="M76.92 8.0997C76.7728 8.11189 76.6247 8.09127 76.4864 8.03939C76.348 7.98752 76.2229 7.90576 76.12 7.79977C76.0189 7.68569 75.9412 7.55267 75.8914 7.40853C75.8416 7.2644 75.8208 7.11188 75.83 6.95968V4.23971H75.3C75.2609 4.25138 75.2192 4.25138 75.18 4.23971C75.163 4.2228 75.1497 4.20243 75.1411 4.18002C75.1325 4.15761 75.1287 4.13368 75.13 4.10971V3.79977L75.86 3.69967L76.04 2.32968C76.0499 2.28834 76.0706 2.2504 76.1 2.21969C76.1392 2.20802 76.1809 2.20802 76.22 2.21969H76.61V3.74972H77.9V4.31967H76.61V6.9797C76.6042 7.05551 76.6135 7.13169 76.6376 7.20382C76.6616 7.27595 76.6999 7.34261 76.75 7.39974C76.7959 7.44549 76.8506 7.4814 76.9107 7.50546C76.9709 7.52952 77.0353 7.54125 77.1 7.53976C77.1691 7.55595 77.241 7.55595 77.31 7.53976L77.47 7.46969L77.58 7.39974H77.66C77.6836 7.40263 77.7061 7.4115 77.7254 7.4255C77.7446 7.4395 77.76 7.45812 77.77 7.4797L78 7.8497C77.8585 7.9816 77.6918 8.08368 77.51 8.14974C77.3119 8.16835 77.1121 8.15137 76.92 8.0997Z" fill="white"/>
<path d="M81.2401 7.9897V4.20967H80.7501C80.6953 4.19867 80.6438 4.17471 80.6001 4.13972C80.5777 4.12467 80.5601 4.10341 80.5494 4.07857C80.5388 4.05372 80.5355 4.02635 80.5401 3.99971V3.67964H81.2401V3.25972C81.234 3.02898 81.2678 2.79886 81.3401 2.57967C81.4087 2.39381 81.5142 2.22374 81.6501 2.07967C81.7831 1.93949 81.9477 1.83326 82.1301 1.76973C82.3319 1.69596 82.5452 1.65873 82.7601 1.65974C82.9472 1.65795 83.1333 1.68836 83.3101 1.74971V2.13972C83.3117 2.15456 83.3099 2.16948 83.305 2.18355C83.3 2.19761 83.2919 2.21048 83.2814 2.22102C83.2708 2.23157 83.2581 2.23961 83.244 2.24458C83.2299 2.24955 83.2149 2.25128 83.2001 2.24971H82.9101C82.7842 2.24839 82.6591 2.26862 82.5401 2.30965C82.4332 2.34019 82.3365 2.39895 82.2601 2.47969C82.1753 2.56646 82.1134 2.67306 82.0801 2.78975C82.0366 2.94593 82.0164 3.10765 82.0201 3.26973V3.66975H83.3001V4.2397H82.0501V7.9897H81.2401Z" fill="white"/>
<path d="M84.05 7.98977V3.54982H84.5001C84.555 3.52997 84.6151 3.52997 84.67 3.54982C84.7085 3.59899 84.7328 3.65773 84.7401 3.71975V4.3998C84.8544 4.12227 85.0325 3.87551 85.26 3.67971C85.4709 3.50715 85.7378 3.41817 86.01 3.42971H86.2801C86.3604 3.44923 86.4378 3.47959 86.51 3.5198L86.45 4.10976C86.4452 4.14067 86.4295 4.16878 86.4056 4.18898C86.3817 4.20919 86.3513 4.22012 86.32 4.21975H86.14C86.0504 4.20886 85.9597 4.20886 85.8701 4.21975C85.74 4.21815 85.611 4.242 85.4901 4.28981C85.3814 4.32797 85.2824 4.38933 85.2 4.46975C85.1079 4.55685 85.0303 4.65818 84.9701 4.7698C84.895 4.89722 84.8314 5.03111 84.7801 5.16982V7.98977H84.05Z" fill="white"/>
<path d="M88.9001 3.52007C89.2012 3.51343 89.5006 3.56777 89.7801 3.67999C90.0315 3.78247 90.257 3.93968 90.4401 4.14007C90.6327 4.34698 90.7793 4.59235 90.8701 4.86004C91.0568 5.47622 91.0568 6.13388 90.8701 6.75006C90.7793 7.01775 90.6327 7.26311 90.4401 7.47003C90.257 7.67042 90.0315 7.82751 89.7801 7.92999C89.2129 8.14332 88.5874 8.14332 88.0201 7.92999C87.7656 7.82792 87.5368 7.67087 87.3501 7.47003C87.1643 7.25987 87.0216 7.01526 86.9301 6.75006C86.73 6.13595 86.73 5.47415 86.9301 4.86004C87.0216 4.59483 87.1643 4.35022 87.3501 4.14007C87.5368 3.93922 87.7656 3.78206 88.0201 3.67999C88.2996 3.56777 88.599 3.51343 88.9001 3.52007ZM88.9001 7.52007C89.0903 7.53632 89.2815 7.50454 89.4562 7.42767C89.631 7.35079 89.7836 7.23121 89.9001 7.08001C90.1159 6.70419 90.2295 6.2784 90.2295 5.84503C90.2295 5.41165 90.1159 4.98586 89.9001 4.61004C89.7836 4.45884 89.631 4.33938 89.4562 4.26251C89.2815 4.18563 89.0903 4.15385 88.9001 4.1701C88.7014 4.16798 88.5042 4.20536 88.3201 4.28008C88.1607 4.35839 88.0207 4.47106 87.9101 4.61004C87.7934 4.76895 87.7085 4.94895 87.6601 5.14007C87.606 5.37283 87.5791 5.61106 87.5801 5.85003C87.5532 6.28504 87.669 6.71692 87.9101 7.08001C88.0315 7.22045 88.1847 7.33004 88.3568 7.39959C88.529 7.46915 88.7152 7.4967 88.9001 7.48004V7.52007Z" fill="white"/>
<path d="M92.05 7.98965V3.54971H92.5201C92.5437 3.54693 92.5677 3.54876 92.5906 3.55532C92.6135 3.56188 92.6349 3.57303 92.6535 3.58792C92.6721 3.6028 92.6875 3.62121 92.699 3.64212C92.7104 3.66302 92.7176 3.68593 92.7201 3.70962L92.7801 4.15969C92.9384 3.9703 93.1237 3.80522 93.33 3.6697C93.5473 3.53962 93.7969 3.47368 94.05 3.47964C94.3136 3.46466 94.5725 3.55453 94.7701 3.72964C94.9674 3.90796 95.1067 4.14138 95.17 4.39968C95.2292 4.24663 95.3137 4.1046 95.42 3.97964C95.5166 3.86765 95.6316 3.77293 95.76 3.69961C95.8817 3.61867 96.0173 3.5611 96.16 3.52969C96.3027 3.50958 96.4474 3.50958 96.5901 3.52969C96.8053 3.52386 97.0195 3.56125 97.2201 3.63967C97.396 3.70953 97.5534 3.81898 97.6801 3.95962C97.8114 4.11495 97.9101 4.29525 97.9701 4.48965C98.0417 4.72276 98.0754 4.96582 98.07 5.20962V7.98965H97.29V5.15969C97.3089 4.87748 97.2274 4.59765 97.0601 4.36965C96.9779 4.27728 96.8758 4.20491 96.7614 4.15811C96.647 4.11131 96.5234 4.0913 96.4001 4.09963C96.2764 4.09681 96.1536 4.12076 96.04 4.1697C95.9178 4.21091 95.807 4.28037 95.7166 4.37246C95.6263 4.46455 95.5589 4.57659 95.5201 4.69961C95.4686 4.84732 95.4448 5.00336 95.45 5.15969V7.98965H94.66V5.15969C94.6813 4.87706 94.6073 4.59541 94.45 4.35964C94.372 4.27086 94.2746 4.20124 94.1654 4.15615C94.0561 4.11107 93.938 4.09172 93.82 4.09963C93.6328 4.09903 93.4492 4.15103 93.29 4.24966C93.1143 4.36334 92.9616 4.50917 92.8401 4.67959V7.98965H92.05Z" fill="white"/>
<path d="M35.9 18.4498C35.5233 18.5598 35.1324 18.6137 34.74 18.6099C34.2589 18.6216 33.7801 18.5401 33.33 18.3699C32.931 18.2226 32.5668 17.9944 32.26 17.6998C31.9615 17.4194 31.7263 17.0784 31.57 16.6998C31.4072 16.286 31.3257 15.8446 31.33 15.3999C31.3256 14.9528 31.4036 14.5087 31.56 14.0898C31.7138 13.7172 31.9379 13.3777 32.22 13.0898C32.5047 12.8012 32.8449 12.5734 33.22 12.4199C33.6582 12.2579 34.123 12.1798 34.59 12.1898C34.8313 12.1886 35.0723 12.2088 35.31 12.2499C35.5212 12.2886 35.7286 12.3456 35.93 12.4199C36.1128 12.4863 36.2872 12.5735 36.45 12.6798C36.6065 12.7761 36.7538 12.8867 36.89 13.0099L36.55 13.5499C36.53 13.5893 36.5018 13.6239 36.4673 13.6515C36.4328 13.6791 36.3928 13.699 36.35 13.7098C36.2511 13.7242 36.1505 13.6991 36.07 13.6399L35.78 13.4799C35.6793 13.418 35.572 13.3676 35.46 13.3298L35.06 13.2299C34.8904 13.2134 34.7196 13.2134 34.55 13.2299C34.2587 13.2239 33.9693 13.2784 33.7 13.3899C33.4515 13.4877 33.229 13.6417 33.05 13.8398C32.8731 14.0472 32.7343 14.2842 32.64 14.5399C32.5403 14.8396 32.4929 15.1541 32.5 15.4699C32.4931 15.8093 32.5438 16.1474 32.65 16.4699C32.7484 16.7362 32.8979 16.9808 33.09 17.1898C33.2802 17.3888 33.5125 17.5426 33.77 17.6399C34.0535 17.7503 34.3558 17.8047 34.66 17.7999C34.8719 17.7998 35.0832 17.7763 35.29 17.7299C35.4747 17.6765 35.6551 17.6097 35.83 17.5299V16.3699H35.05C35.0175 16.3726 34.9848 16.3687 34.9538 16.3584C34.9229 16.3481 34.8944 16.3315 34.87 16.3098C34.8494 16.2888 34.8333 16.2638 34.823 16.2362C34.8127 16.2086 34.8083 16.1793 34.81 16.1499V15.4899H36.91V18.0499C36.5983 18.2393 36.2569 18.3745 35.9 18.4498Z" fill="white"/>
<path d="M44.1201 15.38C44.1219 15.8204 44.044 16.2575 43.8901 16.6701C43.7376 17.041 43.5172 17.3801 43.2401 17.6701C42.9555 17.9587 42.6153 18.1865 42.2401 18.34C41.396 18.6596 40.4642 18.6596 39.6201 18.34C39.2465 18.1837 38.9068 17.9562 38.6201 17.6701C38.34 17.3826 38.1191 17.0428 37.9701 16.6701C37.8115 16.2588 37.7334 15.8208 37.7401 15.38C37.7316 14.9391 37.8098 14.5008 37.9701 14.09C38.1127 13.7036 38.3351 13.3517 38.6228 13.057C38.9106 12.7624 39.2572 12.5317 39.6401 12.38C40.0569 12.2152 40.502 12.1337 40.9501 12.14C41.257 12.1353 41.5632 12.1723 41.8601 12.25C42.1321 12.3202 42.3942 12.4242 42.6401 12.56C42.8711 12.6984 43.0829 12.8665 43.2701 13.06C43.4606 13.2524 43.6223 13.4713 43.7501 13.71C43.8868 13.9544 43.9878 14.2171 44.0501 14.49C44.1095 14.7827 44.133 15.0816 44.1201 15.38ZM42.9101 15.38C42.9137 15.0613 42.8664 14.7439 42.7701 14.44C42.6918 14.1793 42.555 13.9399 42.3701 13.74C42.1972 13.5464 41.9815 13.3958 41.7401 13.3001C41.478 13.1882 41.195 13.1336 40.9101 13.14C40.622 13.134 40.3358 13.1886 40.0701 13.3001C39.8315 13.4008 39.6168 13.5506 39.4401 13.74C39.2588 13.9424 39.1224 14.181 39.0401 14.44C38.8533 15.0493 38.8533 15.7006 39.0401 16.31C39.1224 16.569 39.2588 16.8076 39.4401 17.01C39.6164 17.2023 39.831 17.3556 40.0701 17.46C40.3379 17.5634 40.6231 17.6143 40.9101 17.61C41.1939 17.615 41.476 17.564 41.7401 17.46C41.9821 17.3608 42.1978 17.2068 42.3701 17.01C42.555 16.8102 42.6918 16.5707 42.7701 16.31C42.8654 16.0093 42.9126 15.6955 42.9101 15.38Z" fill="white"/>
<path d="M51.2 15.3798C51.2018 15.8201 51.1239 16.2572 50.97 16.6698C50.8291 17.0543 50.6082 17.4045 50.3221 17.6975C50.036 17.9905 49.6911 18.2197 49.31 18.3697C48.8895 18.5336 48.4413 18.6151 47.99 18.6097C47.5419 18.6151 47.0971 18.5336 46.68 18.3697C46.3003 18.2155 45.9562 17.985 45.669 17.6926C45.3817 17.4002 45.1575 17.0522 45.01 16.6698C44.8562 16.2572 44.7782 15.8201 44.78 15.3798C44.7764 14.9393 44.8544 14.5018 45.01 14.0897C45.1605 13.7154 45.385 13.3753 45.67 13.0897C45.9537 12.7975 46.294 12.5662 46.67 12.4098C47.0871 12.246 47.5319 12.1645 47.98 12.1698C48.5702 12.1612 49.1525 12.3058 49.67 12.5897C49.904 12.7281 50.1192 12.8961 50.31 13.0897C50.5005 13.2821 50.6622 13.5011 50.79 13.7397C50.9225 13.9861 51.0233 14.2482 51.09 14.5198C51.1604 14.8011 51.1974 15.0898 51.2 15.3798ZM50 15.3798C50.0046 15.0601 49.9539 14.742 49.85 14.4397C49.7712 14.1813 49.6383 13.9427 49.46 13.7397C49.2833 13.5504 49.0686 13.4005 48.83 13.2998C48.5643 13.1883 48.2781 13.1338 47.99 13.1398C47.7051 13.1334 47.4221 13.1879 47.16 13.2998C46.9187 13.3955 46.703 13.5461 46.53 13.7397C46.3452 13.9396 46.2084 14.179 46.13 14.4397C45.9308 15.0471 45.9308 15.7023 46.13 16.3097C46.2084 16.5704 46.3452 16.8099 46.53 17.0098C46.7024 17.2065 46.918 17.3605 47.16 17.4597C47.4241 17.5638 47.7062 17.6148 47.99 17.6097C48.277 17.614 48.5622 17.5631 48.83 17.4597C49.0691 17.3553 49.2837 17.2021 49.46 17.0098C49.6383 16.8068 49.7712 16.5681 49.85 16.3097C49.9702 16.0137 50.0379 15.699 50.05 15.3798H50Z" fill="white"/>
<path d="M56.4401 18.4498C56.0599 18.5596 55.6657 18.6136 55.27 18.6099C54.789 18.6216 54.3102 18.5401 53.86 18.3699C53.4611 18.2226 53.0968 17.9944 52.79 17.6998C52.4915 17.4194 52.2563 17.0784 52.1 16.6998C51.9372 16.286 51.8557 15.8446 51.86 15.3999C51.8556 14.9528 51.9336 14.5087 52.0901 14.0898C52.2438 13.7172 52.4679 13.3777 52.7501 13.0898C53.0356 12.8023 53.3755 12.5746 53.7501 12.4199C54.1882 12.2579 54.653 12.1798 55.1201 12.1898C55.3614 12.1881 55.6024 12.2082 55.8401 12.2499C56.0512 12.2886 56.2586 12.3456 56.46 12.4199C56.6451 12.4883 56.8227 12.5753 56.99 12.6798C57.1417 12.7785 57.2855 12.8889 57.42 13.0099L57.08 13.5499C57.06 13.5893 57.0318 13.6239 56.9973 13.6515C56.9628 13.6791 56.9228 13.699 56.88 13.7098C56.7811 13.7242 56.6805 13.6991 56.6 13.6399L56.3101 13.4799C56.2094 13.418 56.102 13.3676 55.99 13.3298L55.5901 13.2299C55.4205 13.2134 55.2496 13.2134 55.08 13.2299C54.7887 13.2239 54.4993 13.2784 54.23 13.3899C53.9831 13.4854 53.7634 13.6398 53.5901 13.8398C53.4064 14.0441 53.2638 14.2818 53.17 14.5399C53.0748 14.8406 53.0275 15.1544 53.0301 15.4699C53.0231 15.8093 53.0738 16.1474 53.1801 16.4699C53.2784 16.7362 53.4279 16.9808 53.6201 17.1898C53.8102 17.3888 54.0426 17.5426 54.3 17.6399C54.5836 17.7503 54.8858 17.8047 55.1901 17.7999C55.402 17.7998 55.6132 17.7763 55.82 17.7299C56.0047 17.6765 56.1852 17.6097 56.36 17.5299V16.3699H55.5601C55.4946 16.3733 55.4303 16.3518 55.38 16.3098C55.3594 16.2888 55.3434 16.2638 55.333 16.2362C55.3227 16.2086 55.3183 16.1793 55.32 16.1499V15.4899H57.42V18.0499C57.1171 18.2353 56.7862 18.3703 56.4401 18.4498Z" fill="white"/>
<path d="M59.7801 17.5697H62.3101V18.5697H58.6001V12.2397H59.7801V17.5697Z" fill="white"/>
<path d="M67.15 12.21V13.14H64.34V14.9H66.56V15.8099H64.34V17.6H67.15V18.54H63.15V12.21H67.15Z" fill="white"/>
<path d="M71.5101 16.3096V18.5397H70.3301V12.2096H72.3901C72.7623 12.2026 73.1333 12.2532 73.4901 12.3596C73.768 12.4448 74.0263 12.5842 74.2501 12.7697C74.4541 12.9395 74.6093 13.1603 74.7001 13.4097C74.8024 13.6708 74.8533 13.9492 74.8501 14.2296C74.8534 14.5166 74.8025 14.8015 74.7001 15.0696C74.5976 15.321 74.4405 15.5465 74.2401 15.7296C74.0175 15.9269 73.7548 16.0736 73.4701 16.1597C73.1201 16.2655 72.7557 16.316 72.3901 16.3096H71.5101ZM71.5101 15.3897H72.3901C72.58 15.3963 72.7696 15.3691 72.9501 15.3096C73.0995 15.2652 73.2365 15.1864 73.3501 15.0796C73.4612 14.9796 73.544 14.8519 73.5901 14.7096C73.6442 14.5554 73.6712 14.3931 73.6701 14.2296C73.6705 14.0728 73.6435 13.9172 73.5901 13.7697C73.5434 13.6358 73.4644 13.5156 73.3601 13.4197C73.2455 13.3165 73.1086 13.2411 72.9601 13.1996C72.7763 13.1396 72.5833 13.1125 72.3901 13.1197H71.5101V15.3897Z" fill="white"/>
<path d="M76.93 17.5697H79.47V18.5697H75.75V12.2397H76.93V17.5697Z" fill="white"/>
<path d="M85.7401 18.54H84.83C84.741 18.5477 84.6522 18.5227 84.58 18.47C84.5136 18.4215 84.4618 18.3559 84.4301 18.28L83.9601 16.98H81.33L80.86 18.28C80.83 18.3513 80.7817 18.4133 80.7201 18.46C80.6873 18.4884 80.6492 18.5102 80.608 18.5239C80.5668 18.5377 80.5233 18.5431 80.48 18.54H79.55L82.05 12.21H83.2501L85.7401 18.54ZM81.64 16.15H83.64L82.86 14.04L82.7501 13.71L82.6201 13.3C82.6201 13.45 82.5401 13.59 82.5001 13.71C82.4601 13.83 82.43 13.95 82.39 14.05L81.64 16.15Z" fill="white"/>
<path d="M88.46 16.0898V18.5399H87.29V16.0898L84.98 12.2098H85.98C86.069 12.2022 86.1578 12.2271 86.23 12.2799C86.2906 12.3341 86.3414 12.3983 86.38 12.4699L87.54 14.5898L87.71 14.9498C87.76 15.0598 87.81 15.1699 87.85 15.2799C87.8872 15.1644 87.9306 15.0508 87.98 14.9398L88.15 14.5898L89.31 12.4699C89.3469 12.4029 89.3942 12.3422 89.45 12.2899C89.5223 12.2366 89.6101 12.2084 89.7 12.2098H90.7L88.46 16.0898Z" fill="white"/>
<path d="M1.19012 21.2402H1.0501C0.981691 21.2137 0.922997 21.1669 0.881892 21.1062C0.840787 21.0454 0.819221 20.9736 0.820094 20.9002V0.590183C0.819926 0.515726 0.841643 0.442934 0.882533 0.38071C0.923423 0.318486 0.981694 0.269598 1.0501 0.240207C1.11728 0.212872 1.19099 0.205842 1.26211 0.220066C1.33323 0.234289 1.3986 0.269094 1.4501 0.320163L11.6801 10.4602C11.7503 10.5326 11.7897 10.6294 11.7901 10.7302C11.7902 10.7787 11.7806 10.8268 11.7617 10.8714C11.7428 10.9161 11.715 10.9565 11.6801 10.9902L1.4501 21.1402C1.41591 21.1738 1.37519 21.1999 1.33047 21.2171C1.28575 21.2343 1.23799 21.2422 1.19012 21.2402ZM1.56011 1.4802V19.9902L10.8901 10.7402L1.56011 1.4802Z" fill="white"/>
<path d="M11.4201 11.0999C11.3225 11.0979 11.2294 11.0586 11.1601 10.9899L0.930086 0.849854C0.895177 0.816164 0.867445 0.775759 0.848543 0.731079C0.82964 0.6864 0.81994 0.638357 0.82007 0.589844C0.820405 0.518972 0.837862 0.449275 0.870942 0.386597C0.904023 0.323918 0.95175 0.270126 1.01007 0.229858C1.06597 0.196373 1.12991 0.178711 1.19507 0.178711C1.26023 0.178711 1.32417 0.196373 1.38007 0.229858L14.3801 7.71985C14.4309 7.74767 14.4745 7.78711 14.5073 7.83484C14.5401 7.88257 14.5612 7.93723 14.569 7.99463C14.5768 8.05203 14.571 8.11054 14.5521 8.16528C14.5331 8.22003 14.5016 8.26947 14.4601 8.30981L11.7101 11.0299C11.6696 11.0616 11.6227 11.0842 11.5727 11.0963C11.5226 11.1084 11.4706 11.1096 11.4201 11.0999ZM3.32007 2.16992L11.4201 10.1699L13.5601 8.04993L3.32007 2.16992Z" fill="white"/>
<path d="M1.19009 21.3201C1.13083 21.3334 1.06933 21.3334 1.01007 21.3201C0.952955 21.2883 0.905292 21.242 0.871918 21.1858C0.838543 21.1296 0.820647 21.0655 0.820068 21.0001C0.820037 20.878 0.858548 20.7591 0.930084 20.6602L11.1601 10.5101C11.2293 10.4417 11.3227 10.4033 11.4201 10.4033C11.5174 10.4033 11.6108 10.4417 11.6801 10.5101L14.4301 13.2401C14.4693 13.281 14.4995 13.3299 14.5184 13.3833C14.5374 13.4367 14.5448 13.4937 14.5401 13.5502C14.5322 13.6071 14.5109 13.6612 14.4778 13.7081C14.4448 13.7551 14.401 13.7935 14.3501 13.8201L1.35007 21.3201C1.29725 21.3306 1.24291 21.3306 1.19009 21.3201ZM11.4201 11.2501L3.32007 19.2501L13.5601 13.3301L11.4201 11.2501Z" fill="white"/>
<path d="M14.17 13.8201C14.1222 13.8221 14.0744 13.8143 14.0297 13.7971C13.9849 13.7799 13.9442 13.7537 13.91 13.7201L11.16 10.9901C11.1251 10.9564 11.0974 10.916 11.0785 10.8713C11.0596 10.8267 11.0499 10.7786 11.0501 10.7301C11.0504 10.6293 11.0898 10.5325 11.16 10.4601L13.91 7.74012C13.9661 7.68237 14.0399 7.64504 14.1197 7.63416C14.1995 7.62329 14.2805 7.63943 14.35 7.68006L19.07 10.4102C19.1279 10.4411 19.1761 10.4873 19.2096 10.5437C19.2431 10.6001 19.2605 10.6645 19.26 10.7301C19.2595 10.7955 19.2416 10.8596 19.2082 10.9158C19.1748 10.972 19.1272 11.0184 19.07 11.0502L14.35 13.7702C14.2972 13.8062 14.2339 13.8237 14.17 13.8201ZM11.95 10.7301L14.23 12.9901L18.14 10.7301L14.23 8.4701L11.95 10.7301Z" fill="white"/>
</svg>
