<svg width="95" height="20" viewBox="0 0 95 20" fill="none" xmlns="http://www.w3.org/2000/svg">
<path d="M33.48 3.88966C33.4879 4.32637 33.4133 4.76067 33.26 5.16969C33.1236 5.54405 32.9088 5.88498 32.63 6.16969C32.3477 6.4538 32.0063 6.67219 31.63 6.80958C31.2284 6.96538 30.8008 7.04354 30.3701 7.03969H28.05V0.749648H30.4001C30.8308 0.745798 31.2584 0.82383 31.66 0.979628C32.0363 1.11702 32.3777 1.33553 32.66 1.61964C32.9343 1.9079 33.1484 2.24783 33.29 2.61964C33.4296 3.02801 33.494 3.45832 33.48 3.88966ZM32.61 3.88966C32.6124 3.54977 32.5584 3.21184 32.45 2.88966C32.3582 2.60533 32.2084 2.34311 32.01 2.11964C31.8159 1.90891 31.5766 1.74483 31.3101 1.63966C31.017 1.5249 30.7047 1.46716 30.39 1.46962H28.89V6.37965H30.39C30.7047 6.38211 31.017 6.32437 31.3101 6.20961C31.5766 6.10444 31.8159 5.94036 32.01 5.72963C32.2106 5.50776 32.3607 5.24505 32.45 4.95961C32.5678 4.61559 32.622 4.25308 32.61 3.88966Z" fill="white"/>
<path d="M36.3301 2.52007C36.6312 2.51343 36.9305 2.56777 37.2101 2.67999C37.4625 2.78585 37.6905 2.9425 37.88 3.14007C38.0659 3.35022 38.2086 3.59483 38.3001 3.86004C38.5002 4.47415 38.5002 5.13595 38.3001 5.75006C38.2086 6.01526 38.0659 6.25987 37.88 6.47003C37.6905 6.6676 37.4625 6.82412 37.2101 6.92999C36.9305 7.0422 36.6312 7.09667 36.3301 7.09002C36.029 7.09585 35.7298 7.04141 35.45 6.92999C35.1976 6.82412 34.9696 6.6676 34.7801 6.47003C34.5942 6.25987 34.4515 6.01526 34.3601 5.75006C34.1599 5.13595 34.1599 4.47415 34.3601 3.86004C34.4515 3.59483 34.5942 3.35022 34.7801 3.14007C34.9696 2.9425 35.1976 2.78585 35.45 2.67999C35.7298 2.56856 36.029 2.51425 36.3301 2.52007ZM36.3301 6.52007C36.52 6.53363 36.7103 6.50056 36.8846 6.42388C37.0588 6.34721 37.2117 6.22918 37.3301 6.08001C37.5402 5.70232 37.6505 5.27725 37.6505 4.84503C37.6505 4.4128 37.5402 3.98774 37.3301 3.61004C37.2117 3.46087 37.0588 3.34284 36.8846 3.26617C36.7103 3.18949 36.52 3.15654 36.3301 3.1701C36.1313 3.16798 35.9342 3.20536 35.7501 3.28008C35.5907 3.35839 35.4506 3.47106 35.3401 3.61004C35.2228 3.76733 35.1409 3.94816 35.1 4.14007C35.0411 4.37197 35.0142 4.61082 35.0201 4.85003C34.9901 5.28392 35.1025 5.71571 35.3401 6.08001C35.4615 6.22045 35.6146 6.33004 35.7867 6.39959C35.9589 6.46915 36.1451 6.4967 36.3301 6.48004V6.52007Z" fill="white"/>
<path d="M38.89 2.58989H39.51C39.5587 2.57386 39.6113 2.57386 39.66 2.58989C39.7011 2.62018 39.7325 2.66191 39.75 2.70989L40.6 5.56987C40.6 5.66987 40.6 5.76992 40.67 5.86992C40.74 5.96992 40.67 6.05996 40.72 6.15996C40.7407 6.06175 40.7674 5.96486 40.8 5.86992C40.8 5.76992 40.86 5.66987 40.89 5.56987L41.83 2.68987C41.8436 2.64785 41.8677 2.61001 41.9 2.57988C41.9453 2.56387 41.9947 2.56387 42.04 2.57988H42.38C42.428 2.5774 42.4756 2.59076 42.5153 2.61785C42.555 2.64493 42.5848 2.6843 42.6 2.72991L43.52 5.60991C43.52 5.70991 43.58 5.80996 43.6 5.90996C43.62 6.00996 43.65 6.10988 43.68 6.19988C43.6914 6.10162 43.7115 6.00466 43.74 5.90996C43.74 5.80996 43.74 5.70991 43.81 5.60991L44.68 2.74993C44.6908 2.70137 44.7193 2.65859 44.76 2.62993C44.8055 2.61538 44.8545 2.61538 44.9 2.62993H45.49L44.05 6.98992H43.43C43.3567 6.98992 43.3067 6.93989 43.28 6.83989L42.28 3.83989C42.2587 3.7711 42.2419 3.70098 42.23 3.62993C42.23 3.55993 42.23 3.49986 42.18 3.42986C42.13 3.35986 42.18 3.55993 42.18 3.62993L42.12 3.83989L41.12 6.83989C41.1188 6.86092 41.1133 6.88151 41.1041 6.90044C41.0949 6.91937 41.082 6.93631 41.0662 6.95024C41.0504 6.96418 41.032 6.9748 41.0121 6.98161C40.9921 6.98843 40.971 6.99127 40.95 6.98992H40.36L38.89 2.58989Z" fill="white"/>
<path d="M46.25 6.98968V2.54974H46.72C46.7685 2.54636 46.8165 2.5607 46.8551 2.59015C46.8938 2.61959 46.9204 2.66203 46.93 2.70965L46.99 3.18963C47.1758 2.98092 47.3956 2.80521 47.64 2.66974C47.8961 2.53702 48.1817 2.47157 48.47 2.47967C48.6893 2.47595 48.907 2.51677 49.11 2.59967C49.2885 2.67427 49.4463 2.79088 49.57 2.93963C49.7014 3.09496 49.8 3.27527 49.86 3.46966C49.922 3.69434 49.9523 3.92666 49.95 4.15973V6.98968H49.17V4.15973C49.1873 3.88079 49.1059 3.60462 48.94 3.3797C48.8523 3.28293 48.7436 3.20739 48.6223 3.15887C48.501 3.11036 48.3703 3.09011 48.24 3.09967C48.0118 3.09544 47.7869 3.15431 47.59 3.26971C47.3805 3.38457 47.194 3.53708 47.04 3.71966V6.98968H46.25Z" fill="white"/>
<path d="M51.95 0.569702V6.98975H51.17V0.529785L51.95 0.569702Z" fill="white"/>
<path d="M55.05 2.52007C55.3512 2.51343 55.6505 2.56777 55.93 2.67999C56.1825 2.78585 56.4105 2.9425 56.6 3.14007C56.7859 3.35022 56.9286 3.59483 57.02 3.86004C57.2201 4.47415 57.2201 5.13595 57.02 5.75006C56.9286 6.01526 56.7859 6.25987 56.6 6.47003C56.4105 6.6676 56.1825 6.82412 55.93 6.92999C55.6505 7.0422 55.3512 7.09667 55.05 7.09002C54.749 7.09585 54.4498 7.04141 54.17 6.92999C53.9176 6.82412 53.6895 6.6676 53.5 6.47003C53.3142 6.25987 53.1715 6.01526 53.08 5.75006C52.8799 5.13595 52.8799 4.47415 53.08 3.86004C53.1715 3.59483 53.3142 3.35022 53.5 3.14007C53.6895 2.9425 53.9176 2.78585 54.17 2.67999C54.4498 2.56856 54.749 2.51425 55.05 2.52007ZM55.05 6.52007C55.2399 6.53363 55.4303 6.50056 55.6045 6.42388C55.7788 6.34721 55.9317 6.22918 56.05 6.08001C56.2602 5.70232 56.3705 5.27725 56.3705 4.84503C56.3705 4.4128 56.2602 3.98774 56.05 3.61004C55.9317 3.46087 55.7788 3.34284 55.6045 3.26617C55.4303 3.18949 55.2399 3.15654 55.05 3.1701C54.8513 3.16798 54.6542 3.20536 54.47 3.28008C54.3106 3.35839 54.1706 3.47106 54.06 3.61004C53.9427 3.76733 53.8608 3.94816 53.82 4.14007C53.761 4.37197 53.7341 4.61082 53.74 4.85003C53.7101 5.28392 53.8225 5.71571 54.06 6.08001C54.1815 6.22045 54.3346 6.33004 54.5067 6.39959C54.6789 6.46915 54.8651 6.4967 55.05 6.48004V6.52007Z" fill="white"/>
<path d="M61.05 6.9899C60.9908 7.00357 60.9292 7.00357 60.87 6.9899C60.8221 6.95133 60.7871 6.89894 60.77 6.83987L60.69 6.42984L60.34 6.70987C60.2292 6.78929 60.1122 6.85961 59.99 6.91995C59.8643 6.9752 59.7337 7.01872 59.6 7.04995C59.4471 7.06633 59.2929 7.06633 59.14 7.04995C58.9734 7.04945 58.808 7.02236 58.65 6.96988C58.5083 6.92426 58.3761 6.85313 58.26 6.75992C58.1399 6.66162 58.047 6.53426 57.99 6.38992C57.9187 6.2261 57.8845 6.04849 57.89 5.8699C57.89 5.69042 57.9384 5.51425 58.03 5.35989C58.1492 5.18034 58.3106 5.03265 58.5 4.92984C58.766 4.78413 59.0526 4.67967 59.35 4.6199C59.7708 4.52978 60.1996 4.48285 60.63 4.47989V4.13992C60.6488 3.85771 60.5674 3.57788 60.4 3.34988C60.3184 3.26011 60.2175 3.19009 60.1049 3.14505C59.9923 3.1 59.871 3.0811 59.75 3.08987C59.5871 3.08403 59.4244 3.10782 59.27 3.15994C59.1522 3.20329 59.0384 3.25674 58.93 3.31985L58.69 3.47989C58.63 3.52768 58.5566 3.55559 58.48 3.55984C58.438 3.57513 58.3919 3.57513 58.35 3.55984C58.3096 3.53438 58.2754 3.50024 58.25 3.45987L58.11 3.20987C58.3395 2.98733 58.607 2.80779 58.9 2.67984C59.1986 2.56023 59.5184 2.50247 59.84 2.50992C60.069 2.50644 60.2964 2.54718 60.51 2.62991C60.6924 2.7077 60.8561 2.8236 60.99 2.96988C61.1245 3.12465 61.2265 3.30492 61.29 3.49991C61.3603 3.72301 61.394 3.95596 61.39 4.18985V6.9899H61.05ZM59.37 6.50992C59.4962 6.52571 59.6238 6.52571 59.75 6.50992C59.8603 6.48045 59.9675 6.44026 60.07 6.38992C60.1725 6.33601 60.2696 6.27232 60.36 6.19986C60.4549 6.12198 60.545 6.0385 60.63 5.94986V4.9899C60.3219 4.99674 60.0146 5.02342 59.71 5.06985C59.4976 5.10825 59.2899 5.16863 59.09 5.24991C58.9549 5.30363 58.8372 5.39361 58.75 5.50992C58.6798 5.60577 58.6414 5.7211 58.64 5.83987C58.6366 5.94316 58.6571 6.04589 58.7 6.13992C58.7294 6.22254 58.7813 6.29525 58.85 6.34988C58.915 6.40904 58.9942 6.45037 59.08 6.46988C59.1591 6.50835 59.2432 6.53537 59.33 6.54995L59.37 6.50992Z" fill="white"/>
<path d="M65.7501 6.98975C65.7002 6.9928 65.6509 6.97703 65.6121 6.94556C65.5732 6.91409 65.5475 6.86916 65.5401 6.8197L65.4701 6.27979C65.2908 6.5059 65.0702 6.69587 64.8201 6.83972C64.5631 6.98148 64.2736 7.05394 63.9801 7.0498C63.7415 7.05466 63.5051 7.00325 63.2901 6.89978C63.0789 6.80069 62.894 6.65335 62.7501 6.46973C62.5989 6.25448 62.4872 6.01411 62.4201 5.75977C62.3334 5.4337 62.293 5.09708 62.3001 4.75977C62.2955 4.45149 62.3393 4.14437 62.4301 3.84973C62.5076 3.58077 62.6367 3.32946 62.8101 3.10974C62.9722 2.9048 63.1769 2.7376 63.4101 2.61975C63.6598 2.50141 63.9338 2.44314 64.2101 2.44971C64.4514 2.43856 64.6917 2.48664 64.9101 2.58972C65.1071 2.68031 65.284 2.80953 65.4301 2.96973V0.509766H66.2101V6.98975H65.7501ZM64.2301 6.4198C64.4691 6.42448 64.7047 6.36207 64.9101 6.23975C65.1114 6.10895 65.2876 5.94298 65.4301 5.74976V3.59973C65.3124 3.4264 65.15 3.28815 64.9601 3.19971C64.783 3.1131 64.5871 3.07187 64.3901 3.07971C64.2077 3.06834 64.0253 3.10262 63.8594 3.17944C63.6935 3.25627 63.5494 3.37328 63.4401 3.51978C63.1981 3.89362 63.0824 4.33529 63.1101 4.77979C63.1047 5.03164 63.1282 5.28328 63.1801 5.52979C63.2186 5.7097 63.2935 5.87985 63.4001 6.02979C63.4871 6.1575 63.6085 6.25795 63.7501 6.3197C63.8967 6.40398 64.0612 6.45199 64.2301 6.45972V6.4198Z" fill="white"/>
<path d="M70.6801 1.18979C70.6951 1.26235 70.6951 1.33733 70.6801 1.40988C70.649 1.47495 70.6047 1.53277 70.55 1.57981C70.5001 1.62854 70.4427 1.66904 70.38 1.6998C70.3074 1.71409 70.2327 1.71409 70.16 1.6998C70.091 1.71599 70.0191 1.71599 69.95 1.6998C69.8829 1.67166 69.8218 1.63093 69.77 1.57981C69.7213 1.52984 69.6808 1.47254 69.6501 1.40988C69.635 1.33733 69.635 1.26235 69.6501 1.18979C69.6349 1.12061 69.6349 1.04901 69.6501 0.979831C69.6782 0.912721 69.7189 0.851689 69.77 0.799899C69.8186 0.744627 69.8787 0.700622 69.9461 0.671237C70.0135 0.641853 70.0865 0.627768 70.16 0.629855C70.2327 0.615569 70.3074 0.615569 70.38 0.629855C70.4451 0.660933 70.503 0.705209 70.55 0.75986C70.6074 0.808345 70.6521 0.870077 70.6801 0.939792C70.7017 1.02172 70.7017 1.10786 70.6801 1.18979ZM70.52 2.58982V6.98984H69.7401V2.5499L70.52 2.58982Z" fill="white"/>
<path d="M73.16 7.09971C73.0115 7.10937 72.8627 7.08768 72.7231 7.03599C72.5836 6.98431 72.4564 6.90385 72.35 6.79979C72.2502 6.68522 72.174 6.55188 72.126 6.4077C72.0779 6.26352 72.0589 6.11127 72.07 5.9597V3.23973H71.5301C71.494 3.2495 71.4561 3.2495 71.42 3.23973C71.4011 3.22431 71.3865 3.20419 71.3777 3.18138C71.369 3.15857 71.3663 3.13387 71.3701 3.10972V2.79979L72.1 2.69969L72.27 1.32969C72.28 1.28836 72.3007 1.25042 72.33 1.21971C72.3695 1.20997 72.4106 1.20997 72.45 1.21971H72.85V2.74974H74.13V3.31968H72.85V5.97972C72.8428 6.05485 72.8506 6.13064 72.8729 6.20274C72.8952 6.27484 72.9316 6.34185 72.98 6.39976C73.077 6.49182 73.2063 6.54212 73.3401 6.53978C73.4091 6.55597 73.481 6.55597 73.55 6.53978C73.6035 6.5246 73.6541 6.5009 73.7 6.46971L73.82 6.39976C73.82 6.39976 73.8701 6.39976 73.9001 6.39976C73.9301 6.39976 73.97 6.39972 74.01 6.47972L74.23 6.84971C74.0938 6.9835 73.93 7.08594 73.7501 7.14976C73.552 7.16753 73.3523 7.15056 73.16 7.09971Z" fill="white"/>
<path d="M77.4701 6.98977V3.20974H76.9801C76.9267 3.19457 76.876 3.17099 76.8301 3.1398C76.8099 3.12273 76.7939 3.10111 76.7835 3.07681C76.7731 3.0525 76.7685 3.02618 76.7701 2.99978V2.67971H77.4701V2.25979C77.4672 2.02847 77.5044 1.79834 77.5801 1.57974C77.6435 1.39461 77.7472 1.22593 77.8839 1.08584C78.0205 0.94575 78.1866 0.837815 78.3701 0.769801C78.5714 0.6943 78.7851 0.65701 79.0001 0.659815C79.1872 0.658018 79.3733 0.688429 79.5501 0.749781V1.1398C79.5501 1.15512 79.547 1.17031 79.5409 1.18435C79.5347 1.19839 79.5257 1.21098 79.5144 1.22134C79.5031 1.2317 79.4898 1.23951 79.4752 1.24441C79.4607 1.24931 79.4453 1.25117 79.4301 1.24978H79.1501C79.0242 1.24764 78.8989 1.2679 78.7801 1.30972C78.6732 1.34026 78.5765 1.39902 78.5001 1.47976C78.4153 1.56653 78.3534 1.67313 78.3201 1.78982C78.2679 1.94428 78.2443 2.10689 78.2501 2.2698V2.66983H79.5301V3.23977H78.2801V6.98977H77.4701Z" fill="white"/>
<path d="M80.26 6.98961V2.54967H80.7C80.7581 2.52824 80.8219 2.52824 80.88 2.54967C80.9149 2.59991 80.9357 2.65856 80.94 2.71959L80.99 3.39965C81.1072 3.12371 81.2849 2.87755 81.51 2.67955C81.7226 2.51021 81.9883 2.42164 82.26 2.42955C82.3497 2.41866 82.4404 2.41866 82.53 2.42955C82.6115 2.44548 82.6894 2.47605 82.76 2.51964V3.10961C82.7531 3.14134 82.7353 3.16962 82.7097 3.18968C82.6842 3.20975 82.6525 3.22034 82.62 3.21959H82.44C82.3537 3.20828 82.2663 3.20828 82.18 3.21959C81.9301 3.215 81.6875 3.30419 81.5 3.46959C81.4109 3.55935 81.3335 3.66022 81.27 3.76964C81.2025 3.89948 81.1425 4.03305 81.09 4.16966V6.98961H80.26Z" fill="white"/>
<path d="M85.14 2.51995C85.4411 2.51413 85.7403 2.56844 86.02 2.67987C86.2714 2.78235 86.4969 2.93956 86.68 3.13995C86.869 3.34779 87.0121 3.59309 87.1 3.85992C87.3001 4.47403 87.3001 5.13583 87.1 5.74994C87.0121 6.01677 86.869 6.26207 86.68 6.46991C86.4969 6.6703 86.2714 6.82739 86.02 6.92987C85.7403 7.04129 85.4411 7.09573 85.14 7.0899C84.8357 7.09572 84.5332 7.04131 84.25 6.92987C83.9986 6.82739 83.7732 6.6703 83.59 6.46991C83.3974 6.26299 83.2508 6.01763 83.16 5.74994C82.9734 5.13376 82.9734 4.4761 83.16 3.85992C83.2508 3.59223 83.3974 3.34686 83.59 3.13995C83.7732 2.93956 83.9986 2.78235 84.25 2.67987C84.5332 2.56842 84.8357 2.51413 85.14 2.51995ZM85.14 6.51995C85.3301 6.53528 85.521 6.50301 85.6956 6.4262C85.8702 6.3494 86.0229 6.2304 86.14 6.07989C86.3502 5.7022 86.4605 5.27713 86.4605 4.84491C86.4605 4.41268 86.3502 3.98762 86.14 3.60992C86.0229 3.45941 85.8702 3.34042 85.6956 3.26361C85.521 3.1868 85.3301 3.15465 85.14 3.16998C84.9412 3.16677 84.7438 3.20419 84.56 3.27996C84.3963 3.35138 84.2548 3.46528 84.15 3.60992C84.0294 3.76649 83.9441 3.94732 83.9 4.13995C83.8459 4.37271 83.819 4.61094 83.82 4.84991C83.793 5.28492 83.9089 5.7168 84.15 6.07989C84.2698 6.22232 84.4227 6.33328 84.5953 6.40301C84.7679 6.47274 84.9549 6.49913 85.14 6.47992V6.51995Z" fill="white"/>
<path d="M88.24 6.98974V2.54979H88.7C88.7244 2.54555 88.7495 2.54636 88.7735 2.55224C88.7976 2.55811 88.8202 2.56883 88.8399 2.58385C88.8596 2.59887 88.876 2.61786 88.8881 2.63952C88.9002 2.66117 88.9076 2.68504 88.91 2.70971L88.97 3.15978C89.1259 2.96808 89.3116 2.80265 89.52 2.66979C89.7335 2.53948 89.98 2.47345 90.23 2.47973C90.3622 2.47097 90.4948 2.48857 90.6201 2.53148C90.7454 2.5744 90.8609 2.64178 90.96 2.72973C91.1541 2.91064 91.2928 3.14304 91.36 3.39977C91.4153 3.2449 91.5002 3.10222 91.61 2.97973C91.7066 2.86773 91.8215 2.77301 91.95 2.6997C92.0707 2.61699 92.2067 2.55927 92.35 2.52977C92.6983 2.4466 93.0634 2.4674 93.4 2.58971C93.5788 2.65948 93.7395 2.76896 93.87 2.90978C93.9977 3.06759 94.0959 3.24703 94.16 3.43969C94.2316 3.67279 94.2654 3.91598 94.26 4.15978V6.98974H93.47V4.15978C93.4917 3.87878 93.4138 3.59907 93.25 3.36974C93.1665 3.27908 93.0641 3.2079 92.9501 3.16124C92.836 3.11458 92.7131 3.09356 92.59 3.09972C92.4632 3.09786 92.3374 3.12174 92.22 3.16979C92.1095 3.21472 92.0078 3.27901 91.92 3.35973C91.8251 3.45568 91.7533 3.57191 91.71 3.6997C91.6549 3.84671 91.6278 4.0028 91.63 4.15978V6.98974H90.85V4.15978C90.8732 3.87552 90.7953 3.59213 90.63 3.35973C90.5535 3.27174 90.4578 3.20254 90.3503 3.15746C90.2428 3.11237 90.1263 3.0926 90.01 3.09972C89.8194 3.09723 89.632 3.1493 89.47 3.24974C89.2985 3.36872 89.1466 3.51374 89.02 3.67968V6.98974H88.24Z" fill="white"/>
<path d="M33.38 17.54H32.4601C32.3713 17.5444 32.2836 17.5198 32.2101 17.47C32.1494 17.4182 32.1015 17.3533 32.07 17.28L31.6 15.98H28.9701L28.5001 17.28C28.4665 17.3492 28.4188 17.4104 28.36 17.46C28.2898 17.5171 28.2005 17.5458 28.11 17.54H27.1901L29.6901 11.21H30.89L33.38 17.54ZM29.2701 15.15H31.2701L30.5001 13.04C30.4537 12.9325 30.4136 12.8222 30.38 12.71C30.38 12.59 30.3 12.45 30.26 12.3C30.26 12.45 30.18 12.59 30.14 12.71C30.1 12.83 30.0601 12.95 30.0201 13.05L29.2701 15.15Z" fill="white"/>
<path d="M35.2101 15.3097V17.5398H34.05V11.2097H36.05C36.4223 11.2021 36.7935 11.2527 37.1501 11.3598C37.431 11.4449 37.6926 11.5842 37.92 11.7698C38.118 11.945 38.2722 12.1642 38.3701 12.4098C38.4723 12.671 38.5233 12.9493 38.5201 13.2298C38.5249 13.5178 38.4704 13.8037 38.36 14.0697C38.265 14.3251 38.1068 14.5522 37.9001 14.7298C37.6786 14.9286 37.4155 15.0756 37.13 15.1598C36.7803 15.2671 36.4157 15.3176 36.05 15.3097H35.2101ZM35.2101 14.3898H36.05C36.2433 14.3969 36.4363 14.3698 36.6201 14.3097C36.7688 14.2637 36.9054 14.1851 37.0201 14.0797C37.1312 13.9797 37.214 13.852 37.26 13.7097C37.3141 13.5555 37.3412 13.3932 37.3401 13.2298C37.3405 13.0729 37.3134 12.9173 37.26 12.7698C37.2135 12.6334 37.1305 12.5124 37.0201 12.4198C36.9055 12.3166 36.7686 12.2412 36.6201 12.1997C36.4363 12.1397 36.2433 12.1126 36.05 12.1198H35.17L35.2101 14.3898Z" fill="white"/>
<path d="M40.6401 15.3096V17.5397H39.4601V11.2096H41.5201C41.8923 11.2026 42.2633 11.2532 42.6201 11.3596C42.9001 11.4471 43.1612 11.5862 43.3901 11.7697C43.5881 11.9449 43.7422 12.1641 43.8401 12.4097C43.9343 12.6727 43.9817 12.9502 43.9801 13.2296C43.9834 13.5166 43.9325 13.8015 43.8301 14.0696C43.7314 14.3231 43.5737 14.5494 43.3701 14.7296C43.1475 14.9269 42.8848 15.0736 42.6001 15.1597C42.25 15.2655 41.8857 15.316 41.5201 15.3096H40.6401ZM40.6401 14.3897H41.5201C41.7133 14.3962 41.9062 14.3691 42.0901 14.3096C42.2388 14.2635 42.3755 14.185 42.4901 14.0796C42.595 13.9762 42.6738 13.8494 42.7201 13.7096C42.779 13.5567 42.8062 13.3934 42.8001 13.2296C42.8054 13.0724 42.7782 12.9159 42.7201 12.7697C42.6734 12.6358 42.5944 12.5156 42.4901 12.4197C42.3755 12.3165 42.2386 12.2411 42.0901 12.1996C41.9063 12.1396 41.7133 12.1125 41.5201 12.1197H40.6401V14.3897Z" fill="white"/>
<path d="M50.14 12.3596C50.1172 12.4129 50.0789 12.4582 50.03 12.4896C49.9844 12.5035 49.9356 12.5035 49.89 12.4896C49.8183 12.4846 49.7492 12.4605 49.69 12.4196L49.43 12.2696C49.3181 12.2065 49.201 12.153 49.08 12.1096C48.9271 12.0668 48.7688 12.0466 48.61 12.0496C48.4644 12.0472 48.3194 12.0673 48.18 12.1096C48.0673 12.1424 47.9621 12.1968 47.87 12.2696C47.7927 12.339 47.7313 12.4243 47.69 12.5196C47.6421 12.6194 47.6181 12.7289 47.62 12.8396C47.6184 12.9774 47.6643 13.1116 47.75 13.2196C47.8414 13.325 47.9538 13.4102 48.08 13.4696C48.2319 13.5441 48.389 13.6076 48.55 13.6596L49.09 13.8396C49.275 13.8999 49.4555 13.9734 49.63 14.0595C49.8018 14.1379 49.9604 14.2425 50.1 14.3696C50.2366 14.5058 50.3483 14.6648 50.43 14.8396C50.5156 15.0523 50.5564 15.2804 50.55 15.5096C50.5524 15.7867 50.5015 16.0617 50.4 16.3195C50.3018 16.5694 50.1509 16.7953 49.9577 16.9816C49.7644 17.168 49.5333 17.3105 49.28 17.3996C48.9833 17.5127 48.6674 17.567 48.35 17.5595C48.1539 17.5797 47.9562 17.5797 47.76 17.5595C47.5654 17.5195 47.3748 17.4627 47.19 17.3896C47.0142 17.3178 46.8465 17.2272 46.69 17.1196C46.5353 17.0258 46.394 16.9114 46.27 16.7796L46.61 16.2196C46.6401 16.1759 46.6816 16.1413 46.73 16.1196C46.7702 16.0885 46.8192 16.071 46.87 16.0695C46.9577 16.0724 47.0421 16.1041 47.11 16.1596L47.41 16.3596C47.5416 16.4361 47.6787 16.5029 47.82 16.5595C48.0031 16.6234 48.1962 16.654 48.39 16.6496C48.6704 16.6658 48.9472 16.5806 49.17 16.4096C49.2628 16.3235 49.3352 16.2178 49.3819 16.1002C49.4286 15.9825 49.4485 15.8559 49.44 15.7296C49.4474 15.5833 49.4051 15.4388 49.32 15.3195C49.2289 15.2087 49.1167 15.117 48.99 15.0496C48.8389 14.976 48.6817 14.9157 48.52 14.8696L47.98 14.7095C47.7994 14.65 47.6224 14.5799 47.45 14.4996C47.2765 14.4201 47.1176 14.3118 46.98 14.1795C46.8366 14.0413 46.7242 13.8743 46.65 13.6895C46.5603 13.4533 46.5162 13.2022 46.52 12.9495C46.5225 12.7158 46.5715 12.4848 46.6642 12.2702C46.757 12.0556 46.8915 11.8616 47.06 11.6995C47.2482 11.5221 47.4689 11.383 47.71 11.2896C47.9948 11.1847 48.2966 11.1338 48.6 11.1396C48.9408 11.1362 49.2795 11.1937 49.6 11.3095C49.9006 11.416 50.1762 11.5828 50.41 11.7996L50.14 12.3596Z" fill="white"/>
<path d="M56.05 11.21V12.21H54.05V17.5699H52.8701V12.21H51.05V11.21H56.05Z" fill="white"/>
<path d="M62.67 14.3799C62.6767 14.8207 62.5986 15.2586 62.44 15.6699C62.2991 16.0544 62.0782 16.4046 61.7921 16.6976C61.506 16.9907 61.1611 17.2198 60.78 17.3699C59.9326 17.6901 58.9974 17.6901 58.15 17.3699C57.7757 17.2147 57.4359 16.987 57.15 16.6998C56.8699 16.4103 56.6461 16.0712 56.49 15.6998C56.3362 15.2872 56.2582 14.8503 56.26 14.4099C56.2564 13.9694 56.3344 13.532 56.49 13.1199C56.6438 12.7473 56.8679 12.4078 57.15 12.1199C57.4337 11.8277 57.774 11.5963 58.15 11.4398C58.5671 11.276 59.012 11.1945 59.46 11.1998C59.767 11.1939 60.0733 11.2309 60.37 11.3098C60.642 11.38 60.9041 11.4842 61.15 11.6199C61.384 11.7582 61.5991 11.9263 61.79 12.1199C61.9805 12.3123 62.1422 12.5313 62.27 12.7699C62.4025 13.0162 62.5033 13.2783 62.57 13.5499C62.6348 13.8219 62.6683 14.1003 62.67 14.3799ZM61.47 14.3799C61.4736 14.0611 61.4263 13.7437 61.33 13.4398C61.2438 13.1825 61.1079 12.9447 60.93 12.7399C60.7571 12.5462 60.5414 12.3956 60.3 12.2999C60.0343 12.1884 59.7481 12.1339 59.46 12.1399C59.1751 12.1335 58.8921 12.1881 58.63 12.2999C58.3887 12.3956 58.173 12.5462 58 12.7399C57.8152 12.9398 57.6784 13.1791 57.6 13.4398C57.4132 14.0492 57.4132 14.7005 57.6 15.3098C57.6784 15.5705 57.8152 15.81 58 16.0099C58.1724 16.2066 58.388 16.3606 58.63 16.4599C58.8943 16.5632 59.1762 16.6141 59.46 16.6099C59.747 16.6142 60.0322 16.5632 60.3 16.4599C60.542 16.3606 60.7577 16.2066 60.93 16.0099C61.1079 15.805 61.2438 15.5671 61.33 15.3098C61.4253 15.0091 61.4725 14.6953 61.47 14.3799Z" fill="white"/>
<path d="M64.8901 15.0696V17.5397H63.7101V11.2096H65.6401C66.0143 11.2008 66.388 11.2445 66.7501 11.3396C67.0253 11.4117 67.2836 11.5374 67.5101 11.7096C67.6988 11.8648 67.8465 12.064 67.9401 12.2897C68.0381 12.5238 68.0858 12.7759 68.0801 13.0297C68.0819 13.2332 68.0515 13.4356 67.9901 13.6297C67.9349 13.819 67.8432 13.9956 67.7201 14.1497C67.596 14.3087 67.4475 14.447 67.2801 14.5596C67.0988 14.6824 66.8999 14.7769 66.6901 14.8396C66.8421 14.9296 66.972 15.0527 67.0701 15.1996L68.6601 17.5397H67.5901C67.5024 17.5475 67.4144 17.5299 67.3364 17.4891C67.2584 17.4484 67.1937 17.386 67.1501 17.3096L65.8201 15.3096C65.7828 15.2423 65.7274 15.1869 65.6601 15.1497C65.5765 15.1081 65.483 15.0908 65.3901 15.0996L64.8901 15.0696ZM64.8901 14.2196H65.6301C65.8265 14.2261 66.0227 14.1991 66.2101 14.1397C66.3581 14.0919 66.4943 14.0135 66.6101 13.9097C66.7184 13.8152 66.8009 13.6947 66.8501 13.5596C66.9034 13.419 66.9305 13.27 66.9301 13.1196C66.9396 12.9797 66.9155 12.8395 66.8598 12.7108C66.8041 12.5821 66.7185 12.4686 66.6101 12.3797C66.3173 12.1789 65.9635 12.0869 65.6101 12.1196H64.8601L64.8901 14.2196Z" fill="white"/>
<path d="M73.3401 11.21V12.14H70.5301V13.9H72.7501V14.8099H70.5301V16.6H73.3401V17.54H69.3401V11.21H73.3401Z" fill="white"/>
<path d="M16.61 14.2797C16.2677 15.0972 15.8492 15.8806 15.36 16.6196C14.54 17.8496 13.36 19.3997 11.97 19.4097C10.71 19.4097 10.39 18.5896 8.67001 18.5996C6.95001 18.6096 6.60002 19.4197 5.34002 19.4097C3.92002 19.4097 2.83002 18.0097 2.02002 16.7697C-0.259984 13.2997 -0.49 9.23959 0.91 7.07959C1.33138 6.37033 1.92173 5.77644 2.62838 5.35071C3.33504 4.92497 4.13605 4.68067 4.96002 4.63965C6.46002 4.63965 7.41 5.4696 8.66 5.4696C9.91 5.4696 10.6 4.63965 12.34 4.63965C13.0678 4.67807 13.778 4.87731 14.4195 5.22314C15.061 5.56897 15.6179 6.05279 16.05 6.63965C15.3525 7.03571 14.7816 7.62148 14.4037 8.32898C14.0258 9.03648 13.8563 9.83663 13.9149 10.6366C13.9736 11.4366 14.2579 12.2036 14.735 12.8484C15.212 13.4932 15.8622 13.9895 16.61 14.2797Z" fill="white"/>
<path d="M11.05 3.25989C11.4055 2.82601 11.6716 2.32602 11.8329 1.78882C11.9942 1.25162 12.0476 0.687821 11.99 0.129883C10.8256 0.256326 9.75299 0.821195 8.99001 1.70984C8.61675 2.12039 8.33467 2.6054 8.16231 3.13281C7.98995 3.66023 7.93123 4.21816 7.99001 4.7699C8.58154 4.76881 9.16496 4.63213 9.69542 4.37036C10.2259 4.1086 10.6893 3.7287 11.05 3.25989Z" fill="white"/>
</svg>
