<svg width="1874" height="108" viewBox="0 0 1874 108" fill="none" xmlns="http://www.w3.org/2000/svg">
<g opacity="0.2">
<mask id="mask0_7_3163" style="mask-type:luminance" maskUnits="userSpaceOnUse" x="0" y="0" width="1874" height="108">
<path d="M1855.48 0.700195H18.2803C8.30601 0.700195 0.219727 8.78599 0.219727 18.7603V89.7302C0.219727 99.7045 8.30601 107.79 18.2803 107.79H1855.48C1865.45 107.79 1873.54 99.7045 1873.54 89.7302V18.7603C1873.54 8.78599 1865.45 0.700195 1855.48 0.700195Z" fill="white"/>
</mask>
<g mask="url(#mask0_7_3163)">
<g style="mix-blend-mode:screen">
<path d="M2120.49 -1490.93C2049.99 -1564.26 1964.94 -1622.05 1870.8 -1660.61C1779.96 -1697.68 1682.76 -1716.68 1584.65 -1716.55C1439.84 -1716.82 1297.94 -1675.94 1175.47 -1598.67C1061.31 -1686.59 924.224 -1739.73 780.634 -1751.72C637.043 -1763.71 493.041 -1734.04 365.882 -1666.28C238.722 -1598.51 133.8 -1495.51 63.6864 -1369.63C-6.42701 -1243.75 -38.7579 -1100.32 -29.4308 -956.536C-20.1037 -812.749 30.4858 -674.7 116.274 -558.932C202.063 -443.164 319.412 -354.587 454.261 -303.815C589.109 -253.043 735.738 -242.23 876.576 -272.672C1017.41 -303.113 1146.49 -373.518 1248.33 -475.449L1776.79 -1003.92L1611.99 -1168.72L1083.53 -640.278C1014.85 -571.33 928.092 -523.175 833.25 -501.355C738.407 -479.536 639.331 -484.938 547.424 -516.941C455.516 -548.945 374.512 -606.247 313.734 -682.255C252.956 -758.263 214.874 -849.888 203.871 -946.584C192.868 -1043.28 209.39 -1141.12 251.537 -1228.84C293.684 -1316.56 359.742 -1390.6 442.109 -1442.43C524.477 -1494.26 619.806 -1521.79 717.126 -1521.84C814.446 -1521.88 909.802 -1494.45 992.22 -1442.7L545.75 -996.198L710.569 -831.388L1206.84 -1327.65C1257.12 -1377.95 1317.02 -1417.6 1382.97 -1444.23C1447.06 -1470.11 1515.53 -1483.42 1584.65 -1483.44C1652.44 -1483.56 1719.61 -1470.47 1782.39 -1444.9C1846.55 -1418.65 1904.52 -1379.27 1952.55 -1329.28C2048.55 -1229.49 2096.48 -1101.74 2096.55 -973.368C2096.6 -906.421 2083.8 -840.087 2058.84 -777.968C2032.97 -713.807 1994.39 -655.544 1945.41 -606.688L1175.71 163.03L892.05 -120.74L881.189 -131.609C860.134 -152.673 835.136 -169.382 807.622 -180.782C780.108 -192.182 750.617 -198.05 720.835 -198.05C691.052 -198.05 661.562 -192.182 634.048 -180.782C606.534 -169.382 581.534 -152.673 560.479 -131.609L-213.71 642.589C-284.852 713.617 -340.905 798.292 -378.5 891.528C-414.626 981.342 -433.162 1077.26 -433.101 1174.07C-433.201 1360.66 -362.57 1547.6 -223.91 1691.61C-153.414 1764.94 -68.3697 1822.73 25.7694 1861.28C116.608 1898.35 213.806 1917.36 311.92 1917.23C456.707 1917.47 598.587 1876.6 721.05 1799.36C835.209 1887.27 972.297 1940.41 1115.89 1952.4C1259.48 1964.39 1403.48 1934.72 1530.64 1866.95C1657.79 1799.18 1762.71 1696.19 1832.83 1570.31C1902.94 1444.43 1935.27 1301 1925.94 1157.21C1916.61 1013.42 1866.02 875.376 1780.23 759.609C1694.44 643.842 1577.09 555.267 1442.24 504.495C1307.4 453.724 1160.77 442.912 1019.93 473.353C879.095 503.794 750.022 574.198 648.18 676.129L119.72 1204.6L284.53 1369.41L812.99 840.968C881.672 772.018 968.426 723.861 1063.27 702.04C1158.11 680.22 1257.19 685.621 1349.1 717.624C1441.01 749.626 1522.01 806.929 1582.79 882.937C1643.57 958.945 1681.65 1050.57 1692.66 1147.27C1703.66 1243.96 1687.14 1341.8 1644.99 1429.52C1602.84 1517.24 1536.78 1591.28 1454.41 1643.12C1372.05 1694.95 1276.72 1722.47 1179.39 1722.52C1082.07 1722.57 986.717 1695.13 904.3 1643.38L1350.76 1196.92L1185.95 1032.1L689.67 1528.36C639.395 1578.66 579.491 1618.31 513.54 1644.94C449.449 1670.82 380.978 1684.13 311.859 1684.15C244.071 1684.27 176.909 1671.18 114.13 1645.61C49.9603 1619.36 -8.00577 1579.98 -56.0401 1529.99C-152.04 1430.2 -199.97 1302.45 -200.04 1174.08C-200.095 1107.13 -187.297 1040.8 -162.34 978.678C-136.485 914.52 -97.9144 856.258 -48.9503 807.398L720.76 37.6899L1004.5 321.429L1015.36 332.299C1036.41 353.366 1061.41 370.079 1088.92 381.481C1116.44 392.883 1145.93 398.752 1175.71 398.752C1205.5 398.752 1234.99 392.883 1262.5 381.481C1290.02 370.079 1315.02 353.366 1336.07 332.299L2110.27 -441.899C2181.41 -512.933 2237.46 -597.615 2275.05 -690.858C2311.18 -780.672 2329.71 -876.59 2329.65 -973.398C2329.77 -1159.99 2259.14 -1346.93 2120.49 -1490.93Z" fill="#120D77"/>
</g>
</g>
</g>
</svg>
