<svg width="25" height="25" viewBox="0 0 25 25" fill="none" xmlns="http://www.w3.org/2000/svg">
<path d="M24.0498 10.7202L14.0498 0.720215C13.6245 0.297638 13.0497 0.0605469 12.4502 0.0605469C11.8507 0.0605469 11.2749 0.297638 10.8496 0.720215L0.849609 10.7202C0.430066 11.1451 0.195312 11.7181 0.195312 12.3152C0.195312 12.9123 0.430066 13.4855 0.849609 13.9104C1.25267 14.3055 1.78597 14.5401 2.34961 14.5703H2.82031V21.9402C2.82031 22.643 3.09873 23.3172 3.5957 23.8142C4.09267 24.3112 4.7669 24.5903 5.46973 24.5903H9.38965C9.5806 24.5903 9.76439 24.5144 9.89941 24.3794C10.0344 24.2444 10.1094 24.0613 10.1094 23.8704V18.0903C10.1094 17.7711 10.2362 17.4649 10.4609 17.2383C10.6857 17.0116 10.9904 16.883 11.3096 16.8804H13.6299C13.9491 16.883 14.2538 17.0116 14.4785 17.2383C14.7033 17.4649 14.8301 17.7711 14.8301 18.0903V23.8704C14.8301 24.0613 14.906 24.2444 15.041 24.3794C15.176 24.5144 15.3588 24.5903 15.5498 24.5903H19.4697C20.1726 24.5903 20.8468 24.3112 21.3438 23.8142C21.8407 23.3172 22.1201 22.643 22.1201 21.9402V14.5703H22.4902C22.7859 14.5723 23.0784 14.5147 23.3516 14.4014C23.6247 14.288 23.8727 14.1212 24.0801 13.9104C24.4956 13.4816 24.7253 12.9062 24.7197 12.3091C24.7141 11.712 24.4734 11.1411 24.0498 10.7202Z" fill="white"/>
</svg>
