<svg width="98" height="104" viewBox="0 0 98 104" fill="none" xmlns="http://www.w3.org/2000/svg">
<path d="M24.7695 35.05C24.7695 33.4455 25.4074 31.9066 26.542 30.772C27.6766 29.6374 29.2148 29 30.8193 29L37.6797 20.1401C50.9997 22.3501 60.29 20.1401 60.29 20.1401L67.1602 29C67.9523 29 68.7365 29.1568 69.4678 29.4614C70.199 29.7661 70.8621 30.2127 71.4199 30.7751C71.9777 31.3376 72.4192 32.0048 72.7178 32.7385C73.0163 33.4723 73.1668 34.2579 73.1602 35.05C73.1602 40.69 67.1602 44.3401 67.1602 44.3401C67.1575 49.1573 65.2412 53.7763 61.834 57.1816C58.4267 60.587 53.8075 62.5 48.9902 62.5C44.1739 62.5 39.5541 60.5868 36.1484 57.1812C32.7428 53.7755 30.8301 49.1564 30.8301 44.3401C30.8301 44.3401 24.7695 40.69 24.7695 35.05Z" stroke="#1B1787" stroke-width="2" stroke-linecap="round" stroke-linejoin="round"/>
<path d="M60.29 20.1401C64.5842 14.7225 66.9922 8.05141 67.1494 1.14014H41.5303C36.82 1.14014 32.3023 3.01115 28.9717 6.3418C25.641 9.67244 23.7695 14.1899 23.7695 18.9001C23.7679 22.9833 25.1384 26.9487 27.6602 30.1602" stroke="#1B1787" stroke-width="2" stroke-linecap="round" stroke-linejoin="round"/>
<path d="M70.29 30.2097L71.9902 25.8499C74.9302 17.9399 75.1202 8.14971 66.9902 4.44971" stroke="#1B1787" stroke-width="2" stroke-linecap="round" stroke-linejoin="round"/>
<path d="M1.75977 102.02L6.25 83.79C6.86788 81.8274 7.95507 80.0449 9.41699 78.5969C10.8789 77.1489 12.6711 76.079 14.6396 75.48L38.1602 68.3101L40.0303 60.1602" stroke="#1B1787" stroke-width="2" stroke-linecap="round" stroke-linejoin="round"/>
<path d="M57.9502 60.1602L59.8096 68.3101L83.3398 75.48C85.3061 76.0812 87.0967 77.1521 88.5566 78.5999C90.0166 80.0476 91.102 81.8289 91.7197 83.79C93.6297 89.84 96.21 102.02 96.21 102.02" stroke="#1B1787" stroke-width="2" stroke-linecap="round" stroke-linejoin="round"/>
<path d="M59.8096 68.3101L48.9902 79.4102L38.1602 68.3101L28.96 71.1201L36.5801 85.6099L48.9902 79.4102L61.3896 85.6099L69.0098 71.1201L59.8096 68.3101Z" fill="#4ADBC8" stroke="#1B1787" stroke-width="2" stroke-linecap="round" stroke-linejoin="round"/>
<path d="M21.4004 85.6099V102.02" stroke="#1B1787" stroke-width="2" stroke-linecap="round" stroke-linejoin="round"/>
<path d="M76.5703 85.6099V102.02" stroke="#1B1787" stroke-width="2" stroke-linecap="round" stroke-linejoin="round"/>
</svg>
