<svg width="175" height="113" viewBox="0 0 175 113" fill="none" xmlns="http://www.w3.org/2000/svg">
<path d="M129.961 77.9692L107.141 64.4492" stroke="#1B1787" stroke-width="2" stroke-linecap="round" stroke-linejoin="round"/>
<path d="M115.761 88.21L98.9512 78.21" stroke="#1B1787" stroke-width="2" stroke-linecap="round" stroke-linejoin="round"/>
<path d="M98.551 96.6792L91.9609 92.7695" stroke="#1B1787" stroke-width="2" stroke-linecap="round" stroke-linejoin="round"/>
<path d="M43.4703 5.86951L36.4703 1.70984C36.0107 1.43651 35.5018 1.25614 34.9726 1.17957C34.4434 1.10301 33.9043 1.13168 33.3861 1.26356C32.8679 1.39543 32.3807 1.62791 31.9525 1.94813C31.5242 2.26834 31.1633 2.67 30.8903 3.12977L2.00032 51.8998C1.72765 52.3592 1.54831 52.868 1.47261 53.3969C1.39691 53.9257 1.42631 54.4639 1.55916 54.9813C1.692 55.4988 1.92569 55.985 2.24678 56.412C2.56786 56.839 2.97006 57.1984 3.43031 57.4696L10.4303 61.6395C12.6961 62.9779 15.4002 63.3632 17.9497 62.7108C20.4991 62.0585 22.6858 60.4217 24.0303 58.1595L46.9503 19.4598C48.2909 17.1962 48.6774 14.4928 48.0247 11.9442C47.3721 9.39563 45.7338 7.21025 43.4703 5.86951Z" fill="#4ADBC8" stroke="#1B1787" stroke-width="2" stroke-linecap="round" stroke-linejoin="round"/>
<path d="M140.49 40.0199L151.23 58.1595C152.573 60.4211 154.758 62.0579 157.306 62.7103C159.853 63.3627 162.556 62.9774 164.82 61.6395L171.82 57.4696C172.748 56.9199 173.419 56.0246 173.687 54.9804C173.956 53.9361 173.798 52.8283 173.25 51.8998L144.36 3.12977C144.087 2.67 143.726 2.26834 143.298 1.94813C142.87 1.62791 142.383 1.39543 141.865 1.26356C141.346 1.13168 140.807 1.10301 140.278 1.17957C139.749 1.25614 139.24 1.43651 138.78 1.70984L131.78 5.86951C130.659 6.53243 129.679 7.41039 128.896 8.45252C128.114 9.49465 127.545 10.6805 127.222 11.9428C126.899 13.205 126.827 14.5192 127.013 15.809C127.198 17.0988 127.635 18.3394 128.3 19.4598L132.3 26.2997" fill="#4ADBC8"/>
<path d="M140.49 40.0199L151.23 58.1595C152.573 60.4211 154.758 62.0579 157.306 62.7103C159.853 63.3627 162.556 62.9774 164.82 61.6395L171.82 57.4696C172.748 56.9199 173.419 56.0246 173.687 54.9804C173.956 53.9361 173.798 52.8283 173.25 51.8998L144.36 3.12977C144.087 2.67 143.726 2.26834 143.298 1.94813C142.87 1.62791 142.383 1.39543 141.865 1.26356C141.346 1.13168 140.807 1.10301 140.278 1.17957C139.749 1.25614 139.24 1.43651 138.78 1.70984L131.78 5.86951C130.659 6.53243 129.679 7.41039 128.896 8.45252C128.114 9.49465 127.545 10.6805 127.222 11.9428C126.899 13.205 126.827 14.5192 127.013 15.809C127.198 17.0988 127.635 18.3394 128.3 19.4598L132.3 26.2997" stroke="#1B1787" stroke-width="2" stroke-linecap="round" stroke-linejoin="round"/>
<path d="M87.2803 21.9593L86.1203 21.2693C79.4503 17.4393 76.3303 16.7389 70.3203 19.0589L63.7703 21.5989C61.8007 22.3591 59.6848 22.6642 57.5807 22.491C55.4767 22.3178 53.439 21.6709 51.6203 20.5989L47.5703 18.2093" stroke="#1B1787" stroke-width="2" stroke-linecap="round" stroke-linejoin="round"/>
<path d="M22.4609 60.1504L29.251 64.1504" stroke="#1B1787" stroke-width="2" stroke-linecap="round" stroke-linejoin="round"/>
<path d="M79.5 104.04L90.37 110.489C91.2768 111.026 92.2804 111.38 93.3237 111.529C94.367 111.678 95.4295 111.62 96.4505 111.359C97.4715 111.097 98.431 110.638 99.2742 110.005C100.117 109.373 100.828 108.581 101.365 107.674C101.902 106.768 102.255 105.764 102.405 104.721C102.554 103.677 102.496 102.615 102.235 101.594C101.973 100.573 101.513 99.6132 100.881 98.77C100.249 97.9268 99.4568 97.2163 98.55 96.6792L107.55 102.02C109.381 103.104 111.569 103.417 113.63 102.889C115.692 102.361 117.46 101.035 118.545 99.2041C119.63 97.3728 119.943 95.186 119.415 93.124C118.887 91.0621 117.561 89.2942 115.73 88.2095L121.73 91.7793C123.561 92.864 125.749 93.1768 127.81 92.6489C129.872 92.121 131.64 90.7957 132.725 88.9644C133.81 87.133 134.123 84.9458 133.595 82.8838C133.067 80.8218 131.741 79.054 129.91 77.9692L137.27 82.3291C138.177 82.8662 139.18 83.2194 140.224 83.3687C141.267 83.5179 142.329 83.4601 143.35 83.1987C144.371 82.9373 145.331 82.4774 146.174 81.8452C147.017 81.213 147.728 80.4209 148.265 79.5142C148.802 78.6074 149.155 77.6038 149.305 76.5605C149.454 75.5173 149.396 74.4546 149.135 73.4336C148.873 72.4126 148.413 71.4531 147.781 70.6099C147.149 69.7666 146.357 69.0566 145.45 68.5195" stroke="#1B1787" stroke-width="2" stroke-linecap="round" stroke-linejoin="round"/>
<path d="M128.651 20.0394L127.651 20.5892C125.834 21.6597 123.798 22.3057 121.695 22.4789C119.593 22.652 117.479 22.3478 115.511 21.5892L108.121 18.6791C105.809 17.7697 103.27 17.6088 100.861 18.2191L89.541 21.0892C86.9721 21.7293 84.691 23.2097 83.0602 25.2953C81.4295 27.3808 80.5428 29.9516 80.541 32.599V47.7191C80.541 48.7464 80.9484 49.732 81.6739 50.4593C82.3994 51.1867 83.3837 51.5963 84.411 51.599C85.9439 51.6003 87.462 51.2997 88.8785 50.7137C90.2949 50.1277 91.582 49.2679 92.6659 48.184C93.7498 47.1 94.6094 45.8133 95.1954 44.3968C95.7814 42.9804 96.0824 41.462 96.0811 39.9291V39.2894L144.561 67.9994C145.463 67.0452 146.493 66.2205 147.621 65.5492L154.491 61.5492" stroke="#1B1787" stroke-width="2" stroke-linecap="round" stroke-linejoin="round"/>
<path d="M36.9305 80.7996C35.6906 82.5235 33.8166 83.6844 31.7209 84.0266C29.6252 84.3689 27.4794 83.8647 25.7555 82.6248C24.0316 81.3849 22.8708 79.5105 22.5285 77.4148C22.1863 75.3191 22.6906 73.1734 23.9305 71.4495L28.4804 65.1194C29.0944 64.2658 29.8704 63.5417 30.7643 62.9881C31.6581 62.4344 32.6523 62.0623 33.69 61.8929C34.7277 61.7234 35.7886 61.7597 36.8122 62.0003C37.8357 62.2408 38.8018 62.6808 39.6554 63.2947C40.509 63.9086 41.2334 64.6845 41.787 65.5784C42.3407 66.4723 42.7129 67.4665 42.8824 68.5042C43.0518 69.5419 43.0152 70.6027 42.7747 71.6263C42.5342 72.6498 42.0944 73.6159 41.4804 74.4695" stroke="#1B1787" stroke-width="2" stroke-linecap="round" stroke-linejoin="round"/>
<path d="M59.5207 76.7999L49.9607 90.11C48.7195 91.8339 46.8444 92.9942 44.7477 93.3356C42.6511 93.6769 40.5046 93.171 38.7807 91.9298C37.0568 90.6886 35.8966 88.8136 35.5553 86.7169C35.214 84.6203 35.7195 82.474 36.9607 80.7501L46.5207 67.4401C47.7619 65.7161 49.6371 64.5558 51.7338 64.2145C53.8305 63.8732 55.9769 64.3785 57.7008 65.6197C59.4247 66.861 60.5849 68.7365 60.9262 70.8331C61.2675 72.9298 60.7619 75.076 59.5207 76.7999Z" stroke="#1B1787" stroke-width="2" stroke-linecap="round" stroke-linejoin="round"/>
<path d="M59.5205 76.8005C60.7604 75.0766 62.6344 73.9157 64.7301 73.5735C66.8258 73.2312 68.9717 73.7354 70.6956 74.9753C72.4195 76.2152 73.5802 78.0896 73.9225 80.1853C74.2647 82.281 73.7604 84.4267 72.5205 86.1506L63.0506 99.5105C61.8094 101.234 59.9342 102.395 57.8375 102.736C55.7408 103.077 53.5945 102.572 51.8706 101.33C50.1467 100.089 48.9864 98.2141 48.6451 96.1174C48.3038 94.0208 48.8094 91.8745 50.0506 90.1506" stroke="#1B1787" stroke-width="2" stroke-linecap="round" stroke-linejoin="round"/>
<path d="M68.3097 92.1098C68.9221 91.2508 69.6983 90.5216 70.5937 89.9638C71.4891 89.406 72.4859 89.0308 73.5269 88.8598C74.5679 88.6888 75.6324 88.7252 76.6592 88.9672C77.6859 89.2092 78.6547 89.652 79.5097 90.2699C80.3687 90.8823 81.0981 91.6582 81.6559 92.5536C82.2137 93.449 82.5889 94.4458 82.7599 95.4867C82.9309 96.5277 82.8943 97.5923 82.6523 98.6191C82.4103 99.6458 81.9676 100.615 81.3497 101.47L78.1697 105.9C76.9285 107.624 75.0533 108.784 72.9566 109.125C70.86 109.467 68.7136 108.961 66.9897 107.72C65.2658 106.478 64.1056 104.603 63.7643 102.507C63.4229 100.41 63.9285 98.2639 65.1697 96.54" stroke="#1B1787" stroke-width="2" stroke-linecap="round" stroke-linejoin="round"/>
</svg>
