<svg width="35" height="27" viewBox="0 0 35 27" fill="none" xmlns="http://www.w3.org/2000/svg">
<path d="M34.6211 13.019C34.6182 12.7759 34.5459 12.5386 34.4131 12.335C34.2803 12.1313 34.0924 11.9698 33.8711 11.8691L31.2607 10.699L33.8711 9.52905C34.0917 9.42741 34.2785 9.2657 34.4111 9.06226C34.5438 8.85881 34.617 8.622 34.6211 8.37915C34.6207 8.13547 34.5491 7.89698 34.416 7.69287C34.2829 7.48876 34.0939 7.32764 33.8711 7.229L23.0811 2.37915L18.0107 0.109131C17.8532 0.0397083 17.6829 0.00390625 17.5107 0.00390625C17.3386 0.00390625 17.1683 0.0397083 17.0107 0.109131L1.12109 7.23901C0.898265 7.33765 0.708311 7.49877 0.575195 7.70288C0.44208 7.90699 0.371514 8.14548 0.371094 8.38916C0.375165 8.63201 0.447397 8.86858 0.580078 9.07202C0.712759 9.27547 0.900497 9.43742 1.12109 9.53906L3.73047 10.709L1.12109 11.8792C0.898554 11.9766 0.709109 12.1367 0.576172 12.3401C0.443235 12.5434 0.37207 12.7812 0.37207 13.0242C0.37207 13.2671 0.443235 13.5047 0.576172 13.708C0.709109 13.9114 0.898554 14.0717 1.12109 14.1692L3.80078 15.3792L1.12109 16.5791C0.900497 16.6807 0.712759 16.8425 0.580078 17.0459C0.447397 17.2493 0.375165 17.4862 0.371094 17.729C0.371514 17.9727 0.44208 18.2112 0.575195 18.4153C0.708311 18.6194 0.898265 18.7805 1.12109 18.8792L17.0107 26.009C17.1732 26.0855 17.3517 26.1232 17.5312 26.1191C17.7075 26.1224 17.8818 26.0846 18.041 26.009L33.9307 18.8792C34.1535 18.7805 34.3434 18.6194 34.4766 18.4153C34.6097 18.2112 34.6802 17.9727 34.6807 17.729C34.6766 17.4862 34.6044 17.2493 34.4717 17.0459C34.339 16.8425 34.1513 16.6807 33.9307 16.5791L31.251 15.3792L33.9307 14.1692C34.1423 14.0619 34.3193 13.897 34.4414 13.6936C34.5635 13.4902 34.626 13.2562 34.6211 13.019ZM31.5205 17.719L17.4707 24.0291L3.41113 17.719L6.20117 16.469L16.9512 21.2991C17.109 21.3673 17.2792 21.4026 17.4512 21.4026C17.6232 21.4026 17.7933 21.3673 17.9512 21.2991L28.7109 16.469L31.5205 17.719ZM17.4707 19.3291L3.41113 13.019L6.12109 11.7991L16.9512 16.6592C17.109 16.7274 17.2792 16.7625 17.4512 16.7625C17.6232 16.7625 17.7933 16.7274 17.9512 16.6592L28.8408 11.7991L31.5508 13.019L17.4707 19.3291Z" fill="#575756"/>
</svg>
