<svg width="68" height="68" viewBox="0 0 68 68" fill="none" xmlns="http://www.w3.org/2000/svg">
<path d="M61.8599 29.5299L65.27 25.42C65.9781 24.573 66.4297 23.5412 66.5718 22.4464C66.7139 21.3516 66.5406 20.2391 66.0723 19.2394C65.6039 18.2396 64.8599 17.3944 63.9277 16.8028C62.9956 16.2113 61.9136 15.8981 60.8096 15.9H50.25C49.2693 15.9363 48.2913 15.7742 47.3745 15.4239C46.4578 15.0737 45.6207 14.5424 44.9141 13.8614C44.2074 13.1805 43.6457 12.3637 43.2617 11.4606C42.8778 10.5574 42.6797 9.58648 42.6797 8.60509C42.6797 7.6237 42.8778 6.65231 43.2617 5.74913C43.6457 4.84596 44.2074 4.02924 44.9141 3.34825C45.6207 2.66727 46.4578 2.136 47.3745 1.78575C48.2913 1.4355 49.2693 1.27336 50.25 1.30968H66.6196" stroke="#1B1787" stroke-width="2" stroke-linecap="round" stroke-linejoin="round"/>
<path d="M57.7598 31.1901L59.27 29.6798C59.4323 29.4294 59.6484 29.2186 59.9028 29.0626C60.1572 28.9067 60.443 28.8095 60.7397 28.7785C61.0365 28.7474 61.3365 28.783 61.6177 28.8829C61.8988 28.9829 62.1541 29.1447 62.3647 29.3561C62.5754 29.5675 62.7361 29.8231 62.835 30.1046C62.9339 30.3862 62.9687 30.6864 62.9365 30.983C62.9044 31.2797 62.8063 31.5657 62.6494 31.8195C62.4925 32.0733 62.2808 32.2885 62.0298 32.4498L60.4297 34.0499" stroke="#1B1787" stroke-width="2" stroke-linecap="round" stroke-linejoin="round"/>
<path d="M16.0484 47.9003L14.2984 46.1503C14.0497 45.7666 13.9398 45.3092 13.9874 44.8544C14.035 44.3996 14.2374 43.9747 14.5602 43.6508C14.8829 43.3269 15.3067 43.1234 15.7613 43.0741C16.216 43.0249 16.6736 43.133 17.0582 43.3803L18.9986 45.31" stroke="#1B1787" stroke-width="2" stroke-linecap="round" stroke-linejoin="round"/>
<path d="M37.4102 53.6997V50.3496C37.4102 50.0844 37.5156 49.8301 37.7031 49.6426C37.8907 49.455 38.1449 49.3496 38.4102 49.3496H47.0903C47.3555 49.3496 47.6098 49.455 47.7974 49.6426C47.9849 49.8301 48.0903 50.0844 48.0903 50.3496V52.9897" stroke="#1B1787" stroke-width="2" stroke-linecap="round" stroke-linejoin="round"/>
<path d="M17.1294 61.6202H59.8892C60.1993 61.5996 60.5105 61.6432 60.8032 61.7477C61.0959 61.8522 61.3639 62.0153 61.5908 62.2276C61.8177 62.44 61.9989 62.6969 62.1226 62.982C62.2462 63.2671 62.3101 63.5746 62.3101 63.8854C62.3101 64.1961 62.2462 64.5036 62.1226 64.7887C61.9989 65.0738 61.8177 65.3307 61.5908 65.5431C61.3639 65.7554 61.0959 65.9186 60.8032 66.023C60.5105 66.1275 60.1993 66.1711 59.8892 66.1505H1.76953C1.76953 65.5548 1.88696 64.9649 2.11523 64.4146C2.34351 63.8644 2.6779 63.3642 3.09961 62.9435C3.52132 62.5227 4.02199 62.1896 4.57275 61.9625C5.12351 61.7354 5.71335 61.6189 6.30908 61.6202H17.1294Z" fill="#4ADBC8" stroke="#1B1787" stroke-width="2" stroke-linecap="round" stroke-linejoin="round"/>
<path d="M59.5483 61.6195L60.2983 59.9998C60.7395 59.06 61.4397 58.265 62.3164 57.7088C63.1931 57.1527 64.2103 56.8583 65.2485 56.8597C65.4579 56.859 65.6639 56.8105 65.8516 56.7176C66.0392 56.6247 66.2031 56.4897 66.3306 56.3236C66.458 56.1575 66.5457 55.9644 66.5869 55.7591C66.6281 55.5538 66.6218 55.3419 66.5684 55.1395L60.2383 33.3895C60.0336 32.7052 59.6025 32.1109 59.0156 31.7039C58.4287 31.2969 57.7209 31.1016 57.0083 31.1497C54.6883 31.3197 52.1182 31.6194 49.3682 32.0994L45.5884 32.8797C36.578 34.9443 28.0624 38.7634 20.5283 44.1195C14.8806 48.377 10.1583 53.7394 6.64844 59.8797L5.64844 61.6195M55.5981 52.4998L36.2485 53.7996C35.1814 53.8759 34.1198 53.5852 33.2407 52.9754C32.3616 52.3656 31.7174 51.4734 31.415 50.4471C31.1126 49.4208 31.1706 48.3219 31.5786 47.3328C31.9866 46.3438 32.7202 45.5242 33.6582 45.0096C36.0691 43.6703 38.5605 42.4813 41.1182 41.4495C44.7922 39.9567 48.5902 38.7891 52.4683 37.9598C52.9981 37.8453 53.5517 37.9422 54.0112 38.2298C54.4707 38.5175 54.7997 38.9732 54.9282 39.4998L57.4683 49.9798C57.5356 50.2706 57.5389 50.5724 57.478 50.8646C57.4171 51.1568 57.2936 51.432 57.1157 51.6717C56.9379 51.9114 56.7102 52.1098 56.4482 52.2528C56.1863 52.3957 55.8959 52.48 55.5981 52.4998Z" stroke="#1B1787" stroke-width="2" stroke-linecap="round" stroke-linejoin="round"/>
</svg>
