<svg width="765" height="1309" viewBox="0 0 765 1309" fill="none" xmlns="http://www.w3.org/2000/svg">
<path d="M765 0H0V1309H765V0Z" fill="#120D77"/>
<mask id="mask0_1_3" style="mask-type:luminance" maskUnits="userSpaceOnUse" x="0" y="0" width="765" height="1309">
<path d="M765 0H0V1309H765V0Z" fill="white"/>
</mask>
<g mask="url(#mask0_1_3)">
<path d="M1697.67 -1491.63C1627.18 -1564.97 1542.13 -1622.77 1447.99 -1661.31C1357.15 -1698.4 1259.96 -1717.43 1161.84 -1717.31C1062.77 -1717.31 964.624 -1698.22 872.77 -1661.1C830.987 -1644.13 790.79 -1623.49 752.65 -1599.42C699.163 -1640.8 640.289 -1674.71 577.65 -1700.2C488.111 -1736.46 392.412 -1755.08 295.81 -1755.05C199.207 -1755.08 103.507 -1736.46 13.97 -1700.19C-78.873 -1662.51 -163.186 -1606.53 -233.95 -1535.59C-304.858 -1464.83 -360.817 -1380.54 -398.5 -1287.72C-434.759 -1198.18 -453.383 -1102.48 -453.35 -1005.88C-453.37 -909.281 -434.728 -813.588 -398.45 -724.06C-360.774 -631.254 -304.834 -546.966 -233.95 -476.2C-163.18 -405.273 -78.8685 -349.303 13.97 -311.62C103.504 -275.354 199.2 -256.726 295.8 -256.76C392.4 -256.726 488.096 -275.354 577.63 -311.62C670.445 -349.307 754.743 -405.258 825.52 -476.15L1353.98 -1004.62L1189.17 -1169.43L660.71 -640.99C612.006 -592.135 553.966 -553.583 490.05 -527.63C428.343 -502.645 362.392 -489.814 295.82 -489.84C229.244 -489.808 163.288 -502.639 101.58 -527.63C37.6601 -553.577 -20.3802 -592.13 -69.08 -640.99C-117.943 -689.691 -156.497 -747.735 -182.44 -811.66C-207.431 -873.364 -220.263 -939.317 -220.23 -1005.89C-220.262 -1072.46 -207.433 -1138.41 -182.45 -1200.12C-156.502 -1264.04 -117.945 -1322.07 -69.08 -1370.76C-20.3963 -1419.63 37.6353 -1458.19 101.55 -1484.13C163.263 -1509.12 229.221 -1521.95 295.8 -1521.92C362.379 -1521.95 428.337 -1509.12 490.05 -1484.14C517.634 -1472.89 544.185 -1459.26 569.4 -1443.4L122.94 -996.94L287.75 -832.12L784.05 -1328.38C834.324 -1378.69 894.229 -1418.34 960.18 -1444.96C1024.26 -1470.85 1092.73 -1484.17 1161.84 -1484.2C1229.63 -1484.33 1296.79 -1471.24 1359.57 -1445.66C1423.74 -1419.42 1481.71 -1380.03 1529.74 -1330.04C1625.74 -1230.25 1673.67 -1102.5 1673.74 -974.13C1673.8 -907.175 1661.01 -840.83 1636.05 -778.7C1610.18 -714.538 1571.6 -656.276 1522.62 -607.42L752.93 162.29L469.18 -121.45L458.29 -132.28C437.237 -153.347 412.239 -170.059 384.724 -181.462C357.21 -192.864 327.718 -198.733 297.935 -198.733C268.151 -198.733 238.66 -192.864 211.145 -181.462C183.631 -170.059 158.633 -153.347 137.58 -132.28L-636.62 641.92C-707.752 712.932 -763.8 797.587 -801.4 890.8C-837.514 980.63 -856.033 1076.56 -855.95 1173.38C-856.05 1359.97 -785.42 1546.91 -646.77 1690.91C-576.268 1764.25 -491.221 1822.04 -397.08 1860.59C-306.247 1897.66 -209.057 1916.66 -110.95 1916.53C-11.9029 1916.52 86.2154 1897.44 178.05 1860.33C219.829 1843.36 260.023 1822.72 298.16 1798.65C412.315 1886.57 549.4 1939.72 692.99 1951.72C836.58 1963.71 980.584 1934.05 1107.75 1866.29C1234.91 1798.53 1339.83 1695.54 1409.95 1569.66C1480.07 1443.78 1512.41 1300.35 1503.08 1156.56C1493.76 1012.77 1443.18 874.723 1357.39 758.952C1271.61 643.18 1154.26 554.599 1019.42 503.823C884.568 453.046 737.94 442.228 597.101 472.665C456.262 503.101 327.186 573.502 225.34 675.43L-303.12 1203.9L-138.32 1368.71L390.14 840.27C458.822 771.32 545.576 723.163 640.419 701.342C735.262 679.521 834.339 684.923 926.248 716.925C1018.16 748.928 1099.16 806.23 1159.94 882.239C1220.72 958.247 1258.8 1049.87 1269.81 1146.57C1280.81 1243.27 1264.29 1341.1 1222.14 1428.83C1179.99 1516.55 1113.93 1590.58 1031.56 1642.42C949.196 1694.25 853.866 1721.78 756.545 1721.82C659.224 1721.87 563.868 1694.44 481.45 1642.68L927.92 1196.21L763.1 1031.4L266.83 1527.66C216.554 1577.96 156.65 1617.62 90.7 1644.24C26.6185 1670.12 -41.8412 1683.43 -110.95 1683.45C-178.742 1683.58 -245.908 1670.49 -308.69 1644.91C-372.855 1618.66 -430.818 1579.28 -478.85 1529.29C-574.85 1429.5 -622.78 1301.75 -622.85 1173.38C-622.906 1106.43 -610.104 1040.1 -585.14 977.98C-559.294 913.825 -520.733 855.562 -471.78 806.7L297.92 36.9901L581.67 320.72L592.54 331.59C613.593 352.657 638.591 369.37 666.105 380.772C693.62 392.174 723.111 398.043 752.895 398.043C782.678 398.043 812.17 392.174 839.684 380.772C867.199 369.37 892.197 352.657 913.25 331.59L1687.44 -442.61C1758.59 -513.637 1814.65 -598.317 1852.25 -691.56C1888.38 -781.373 1906.92 -877.292 1906.85 -974.1C1906.96 -1160.69 1836.33 -1347.63 1697.67 -1491.63Z" fill="#150F83"/>
</g>
</svg>
