<svg width="27" height="23" viewBox="0 0 27 23" fill="none" xmlns="http://www.w3.org/2000/svg">
<path d="M12.4092 4.70996C12.4901 4.8581 12.6087 4.98174 12.7539 5.06787C12.8991 5.154 13.0656 5.19946 13.2344 5.19946C13.4032 5.19946 13.5687 5.154 13.7139 5.06787C13.859 4.98174 13.9777 4.8581 14.0586 4.70996C14.5529 3.68346 15.3181 2.81131 16.2715 2.1875C17.2248 1.56369 18.3302 1.21182 19.4688 1.16992C23.1588 1.16992 25.749 4.30001 25.749 8.01001C25.749 12.8 21.2591 16.08 14.6191 21.79C14.2324 22.1184 13.7417 22.2986 13.2344 22.2986C12.727 22.2986 12.2354 22.1184 11.8486 21.79C5.20863 16.08 0.71875 12.79 0.71875 8.01001C0.71875 4.30001 3.30902 1.16992 6.99902 1.16992C8.13755 1.21182 9.24295 1.56369 10.1963 2.1875C11.1496 2.81131 11.9149 3.68346 12.4092 4.70996Z" stroke="#949494" stroke-linecap="round" stroke-linejoin="round"/>
</svg>
