<svg width="16" height="20" viewBox="0 0 16 20" fill="none" xmlns="http://www.w3.org/2000/svg">
<path d="M8.10059 0.621094C6.19 0.626372 4.35978 1.38777 3.00879 2.73877C1.65779 4.08976 0.895903 5.92071 0.890625 7.8313C0.890625 13.0113 7.61062 19.5012 7.89062 19.7712C7.94786 19.8239 8.02278 19.853 8.10059 19.853C8.17839 19.853 8.25331 19.8239 8.31055 19.7712C8.59055 19.5012 15.3105 13.0113 15.3105 7.8313C15.3079 5.9199 14.5479 4.0874 13.1963 2.73584C11.8447 1.38428 10.012 0.623739 8.10059 0.621094ZM8.10059 11.1411C7.44593 11.1411 6.80605 10.947 6.26172 10.5833C5.71739 10.2195 5.29349 9.70272 5.04297 9.0979C4.79244 8.49308 4.72678 7.82762 4.85449 7.18555C4.98221 6.54347 5.29783 5.95363 5.76074 5.49072C6.22365 5.02781 6.813 4.71243 7.45508 4.58472C8.09716 4.457 8.76236 4.52267 9.36719 4.77319C9.97201 5.02372 10.4898 5.44786 10.8535 5.99219C11.2172 6.53651 11.4111 7.17664 11.4111 7.8313C11.4111 8.70917 11.0622 9.55089 10.4414 10.1716C9.82066 10.7924 8.97845 11.1411 8.10059 11.1411Z" fill="#949494"/>
</svg>
