<svg width="380" height="380" viewBox="0 0 380 380" fill="none" xmlns="http://www.w3.org/2000/svg">
<path d="M189.93 302.77C252.432 302.77 303.1 252.102 303.1 189.6C303.1 127.098 252.432 76.4302 189.93 76.4302C127.428 76.4302 76.7598 127.098 76.7598 189.6C76.7598 252.102 127.428 302.77 189.93 302.77Z" fill="#00CA25"/>
<path d="M342.8 209.6L321.3 206.81" stroke="#00C324" stroke-miterlimit="10"/>
<path d="M338.81 229.81L317.87 224.17" stroke="#00C324" stroke-miterlimit="10"/>
<path d="M332.14 249.31L312.15 240.91" stroke="#00C324" stroke-miterlimit="10"/>
<path d="M322.87 267.71L304.19 256.71" stroke="#00C324" stroke-miterlimit="10"/>
<path d="M311.26 284.72L294.2 271.33" stroke="#00C324" stroke-miterlimit="10"/>
<path d="M297.5 300.04L282.37 284.51" stroke="#00C324" stroke-miterlimit="10"/>
<path d="M281.84 313.42L268.91 296.02" stroke="#00C324" stroke-miterlimit="10"/>
<path d="M264.52 324.56L254.02 305.6" stroke="#00C324" stroke-miterlimit="10"/>
<path d="M245.86 333.3L237.99 313.09" stroke="#00C324" stroke-miterlimit="10"/>
<path d="M226.2 339.47L221.12 318.39" stroke="#00C324" stroke-miterlimit="10"/>
<path d="M205.9 342.98L203.68 321.41" stroke="#00C324" stroke-miterlimit="10"/>
<path d="M185.33 343.69L185.96 322.02" stroke="#00C324" stroke-miterlimit="10"/>
<path d="M164.83 341.74L168.34 320.34" stroke="#00C324" stroke-miterlimit="10"/>
<path d="M144.76 337.06L151.1 316.33" stroke="#00C324" stroke-miterlimit="10"/>
<path d="M125.51 329.7L134.58 310" stroke="#00C324" stroke-miterlimit="10"/>
<path d="M107.42 319.84L119.04 301.54" stroke="#00C324" stroke-miterlimit="10"/>
<path d="M90.7998 307.69L104.75 291.09" stroke="#00C324" stroke-miterlimit="10"/>
<path d="M75.9297 293.44L91.96 278.83" stroke="#00C324" stroke-miterlimit="10"/>
<path d="M63.1201 277.31L80.9502 264.96" stroke="#00C324" stroke-miterlimit="10"/>
<path d="M52.5596 259.63L71.8701 249.77" stroke="#00C324" stroke-miterlimit="10"/>
<path d="M44.4297 240.69L64.8896 233.51" stroke="#00C324" stroke-miterlimit="10"/>
<path d="M38.9004 220.84L60.1396 216.47" stroke="#00C324" stroke-miterlimit="10"/>
<path d="M36.1396 200.43L57.7695 198.92" stroke="#00C324" stroke-miterlimit="10"/>
<path d="M36.0596 179.85L57.7002 181.2" stroke="#00C324" stroke-miterlimit="10"/>
<path d="M38.7002 159.42L59.9697 163.64" stroke="#00C324" stroke-miterlimit="10"/>
<path d="M44.0801 139.53L64.5898 146.57" stroke="#00C324" stroke-miterlimit="10"/>
<path d="M52.0703 120.53L71.4404 130.26" stroke="#00C324" stroke-miterlimit="10"/>
<path d="M62.5 102.77L80.4004 114.99" stroke="#00C324" stroke-miterlimit="10"/>
<path d="M75.2197 86.5698L91.3398 101.06" stroke="#00C324" stroke-miterlimit="10"/>
<path d="M89.9805 72.2202L104.04 88.7202" stroke="#00C324" stroke-miterlimit="10"/>
<path d="M106.51 59.9302L118.25 78.1602" stroke="#00C324" stroke-miterlimit="10"/>
<path d="M124.52 49.9502L133.73 69.5698" stroke="#00C324" stroke-miterlimit="10"/>
<path d="M143.72 42.4502L150.21 63.1299" stroke="#00C324" stroke-miterlimit="10"/>
<path d="M163.76 37.6499L167.42 59.02" stroke="#00C324" stroke-miterlimit="10"/>
<path d="M184.24 35.5298L185.03 57.2002" stroke="#00C324" stroke-miterlimit="10"/>
<path d="M204.82 36.1201L202.75 57.7002" stroke="#00C324" stroke-miterlimit="10"/>
<path d="M225.14 39.48L220.21 60.5898" stroke="#00C324" stroke-miterlimit="10"/>
<path d="M244.85 45.5L237.12 65.7598" stroke="#00C324" stroke-miterlimit="10"/>
<path d="M263.58 54.0898L253.21 73.1299" stroke="#00C324" stroke-miterlimit="10"/>
<path d="M280.96 65.1499L268.15 82.6401" stroke="#00C324" stroke-miterlimit="10"/>
<path d="M296.72 78.3999L281.7 94.04" stroke="#00C324" stroke-miterlimit="10"/>
<path d="M310.59 93.6201L293.63 107.13" stroke="#00C324" stroke-miterlimit="10"/>
<path d="M322.33 110.54L303.72 121.67" stroke="#00C324" stroke-miterlimit="10"/>
<path d="M331.71 128.89L311.78 137.43" stroke="#00C324" stroke-miterlimit="10"/>
<path d="M338.51 148.34L317.62 154.13" stroke="#00C324" stroke-miterlimit="10"/>
<path d="M342.67 168.52L321.19 171.46" stroke="#00C324" stroke-miterlimit="10"/>
<path d="M344.12 189.05L322.44 189.13" stroke="#00C324" stroke-miterlimit="10"/>
<path d="M378.84 204.06L362.62 202.84" stroke="#00AEF2" stroke-width="0.75" stroke-miterlimit="10"/>
<path d="M377.18 218.85L361.12 216.36" stroke="#00AEF2" stroke-width="0.75" stroke-miterlimit="10"/>
<path d="M374.28 233.45L358.46 229.7" stroke="#00AEF2" stroke-width="0.75" stroke-miterlimit="10"/>
<path d="M370.3 247.79L354.82 242.8" stroke="#00AEF2" stroke-width="0.75" stroke-miterlimit="10"/>
<path d="M365.18 261.76L350.14 255.57" stroke="#00AEF2" stroke-width="0.75" stroke-miterlimit="10"/>
<path d="M358.95 275.28L344.45 267.91" stroke="#00AEF2" stroke-width="0.75" stroke-miterlimit="10"/>
<path d="M351.73 288.29L337.85 279.81" stroke="#00AEF2" stroke-width="0.75" stroke-miterlimit="10"/>
<path d="M343.45 300.65L330.28 291.11" stroke="#00AEF2" stroke-width="0.75" stroke-miterlimit="10"/>
<path d="M334.26 312.35L321.87 301.81" stroke="#00AEF2" stroke-width="0.75" stroke-miterlimit="10"/>
<path d="M324.2 323.32L312.68 311.84" stroke="#00AEF2" stroke-width="0.75" stroke-miterlimit="10"/>
<path d="M313.28 333.41L302.68 321.07" stroke="#00AEF2" stroke-width="0.75" stroke-miterlimit="10"/>
<path d="M301.63 342.66L292.03 329.53" stroke="#00AEF2" stroke-width="0.75" stroke-miterlimit="10"/>
<path d="M289.29 350.97L280.75 337.13" stroke="#00AEF2" stroke-width="0.75" stroke-miterlimit="10"/>
<path d="M276.31 358.26L268.89 343.79" stroke="#00AEF2" stroke-width="0.75" stroke-miterlimit="10"/>
<path d="M262.83 364.55L256.57 349.55" stroke="#00AEF2" stroke-width="0.75" stroke-miterlimit="10"/>
<path d="M248.86 369.71L243.81 354.26" stroke="#00AEF2" stroke-width="0.75" stroke-miterlimit="10"/>
<path d="M234.55 373.77L230.73 357.96" stroke="#00AEF2" stroke-width="0.75" stroke-miterlimit="10"/>
<path d="M219.96 376.71L217.4 360.65" stroke="#00AEF2" stroke-width="0.75" stroke-miterlimit="10"/>
<path d="M205.18 378.44L203.89 362.23" stroke="#00AEF2" stroke-width="0.75" stroke-miterlimit="10"/>
<path d="M190.32 379.09L190.29 362.83" stroke="#00AEF2" stroke-width="0.75" stroke-miterlimit="10"/>
<path d="M175.46 378.5L176.69 362.29" stroke="#00AEF2" stroke-width="0.75" stroke-miterlimit="10"/>
<path d="M160.68 376.85L163.17 360.78" stroke="#00AEF2" stroke-width="0.75" stroke-miterlimit="10"/>
<path d="M146.08 373.95L149.83 358.13" stroke="#00AEF2" stroke-width="0.75" stroke-miterlimit="10"/>
<path d="M131.74 369.96L136.73 354.49" stroke="#00AEF2" stroke-width="0.75" stroke-miterlimit="10"/>
<path d="M117.76 364.84L123.96 349.81" stroke="#00AEF2" stroke-width="0.75" stroke-miterlimit="10"/>
<path d="M104.25 358.61L111.61 344.11" stroke="#00AEF2" stroke-width="0.75" stroke-miterlimit="10"/>
<path d="M91.2402 351.39L99.7197 337.52" stroke="#00AEF2" stroke-width="0.75" stroke-miterlimit="10"/>
<path d="M78.8701 343.11L88.4199 329.95" stroke="#00AEF2" stroke-width="0.75" stroke-miterlimit="10"/>
<path d="M67.1797 333.92L77.7197 321.54" stroke="#00AEF2" stroke-width="0.75" stroke-miterlimit="10"/>
<path d="M56.21 323.87L67.6904 312.35" stroke="#00AEF2" stroke-width="0.75" stroke-miterlimit="10"/>
<path d="M46.1201 312.94L58.46 302.35" stroke="#00AEF2" stroke-width="0.75" stroke-miterlimit="10"/>
<path d="M36.8701 301.29L50 291.7" stroke="#00AEF2" stroke-width="0.75" stroke-miterlimit="10"/>
<path d="M28.5596 288.95L42.4004 280.41" stroke="#00AEF2" stroke-width="0.75" stroke-miterlimit="10"/>
<path d="M21.2695 275.98L35.7402 268.55" stroke="#00AEF2" stroke-width="0.75" stroke-miterlimit="10"/>
<path d="M14.9805 262.49L29.9805 256.23" stroke="#00AEF2" stroke-width="0.75" stroke-miterlimit="10"/>
<path d="M9.82031 248.53L25.2695 243.48" stroke="#00AEF2" stroke-width="0.75" stroke-miterlimit="10"/>
<path d="M5.75977 234.21L21.5596 230.4" stroke="#00AEF2" stroke-width="0.75" stroke-miterlimit="10"/>
<path d="M2.82031 219.62L18.8701 217.06" stroke="#00AEF2" stroke-width="0.75" stroke-miterlimit="10"/>
<path d="M1.08984 204.85L17.2998 203.55" stroke="#00AEF2" stroke-width="0.75" stroke-miterlimit="10"/>
<path d="M0.429688 189.99L16.6904 189.95" stroke="#00AEF2" stroke-width="0.75" stroke-miterlimit="10"/>
<path d="M1.03027 175.13L17.2402 176.35" stroke="#00AEF2" stroke-width="0.75" stroke-miterlimit="10"/>
<path d="M2.67969 160.34L18.75 162.83" stroke="#00AEF2" stroke-width="0.75" stroke-miterlimit="10"/>
<path d="M5.58008 145.74L21.4004 149.5" stroke="#00AEF2" stroke-width="0.75" stroke-miterlimit="10"/>
<path d="M9.57031 131.41L25.04 136.4" stroke="#00AEF2" stroke-width="0.75" stroke-miterlimit="10"/>
<path d="M14.6904 117.43L29.7197 123.63" stroke="#00AEF2" stroke-width="0.75" stroke-miterlimit="10"/>
<path d="M20.9102 103.91L35.4102 111.28" stroke="#00AEF2" stroke-width="0.75" stroke-miterlimit="10"/>
<path d="M28.1299 90.8999L42.0098 99.3799" stroke="#00AEF2" stroke-width="0.75" stroke-miterlimit="10"/>
<path d="M36.4102 78.54L49.5801 88.0801" stroke="#00AEF2" stroke-width="0.75" stroke-miterlimit="10"/>
<path d="M45.6104 66.8398L57.9902 77.3901" stroke="#00AEF2" stroke-width="0.75" stroke-miterlimit="10"/>
<path d="M55.6602 55.8799L67.1797 67.3501" stroke="#00AEF2" stroke-width="0.75" stroke-miterlimit="10"/>
<path d="M66.5898 45.7798L77.1797 58.1201" stroke="#00AEF2" stroke-width="0.75" stroke-miterlimit="10"/>
<path d="M78.2402 36.5298L87.8301 49.6602" stroke="#00AEF2" stroke-width="0.75" stroke-miterlimit="10"/>
<path d="M90.5801 28.2202L99.1201 42.0601" stroke="#00AEF2" stroke-width="0.75" stroke-miterlimit="10"/>
<path d="M103.55 20.9399L110.98 35.3999" stroke="#00AEF2" stroke-width="0.75" stroke-miterlimit="10"/>
<path d="M117.04 14.6401L123.3 29.6499" stroke="#00AEF2" stroke-width="0.75" stroke-miterlimit="10"/>
<path d="M131 9.47998L136.05 24.9399" stroke="#00AEF2" stroke-width="0.75" stroke-miterlimit="10"/>
<path d="M145.32 5.41992L149.13 21.23" stroke="#00AEF2" stroke-width="0.75" stroke-miterlimit="10"/>
<path d="M159.91 2.47998L162.46 18.54" stroke="#00AEF2" stroke-width="0.75" stroke-miterlimit="10"/>
<path d="M174.68 0.75L175.98 16.96" stroke="#00AEF2" stroke-width="0.75" stroke-miterlimit="10"/>
<path d="M189.54 0.100098L189.57 16.3599" stroke="#00AEF2" stroke-width="0.75" stroke-miterlimit="10"/>
<path d="M204.4 0.689941L203.17 16.9102" stroke="#00AEF2" stroke-width="0.75" stroke-miterlimit="10"/>
<path d="M219.19 2.33984L216.69 18.4102" stroke="#00AEF2" stroke-width="0.75" stroke-miterlimit="10"/>
<path d="M233.78 5.24023L230.03 21.0698" stroke="#00AEF2" stroke-width="0.75" stroke-miterlimit="10"/>
<path d="M248.12 9.22998L243.13 24.71" stroke="#00AEF2" stroke-width="0.75" stroke-miterlimit="10"/>
<path d="M262.1 14.3501L255.9 29.3901" stroke="#00AEF2" stroke-width="0.75" stroke-miterlimit="10"/>
<path d="M275.61 20.5801L268.25 35.0801" stroke="#00AEF2" stroke-width="0.75" stroke-miterlimit="10"/>
<path d="M288.63 27.7998L280.15 41.6699" stroke="#00AEF2" stroke-width="0.75" stroke-miterlimit="10"/>
<path d="M300.99 36.0801L291.45 49.25" stroke="#00AEF2" stroke-width="0.75" stroke-miterlimit="10"/>
<path d="M312.68 45.27L302.14 57.6499" stroke="#00AEF2" stroke-width="0.75" stroke-miterlimit="10"/>
<path d="M323.65 55.3198L312.18 66.8501" stroke="#00AEF2" stroke-width="0.75" stroke-miterlimit="10"/>
<path d="M333.74 66.25L321.4 76.8398" stroke="#00AEF2" stroke-width="0.75" stroke-miterlimit="10"/>
<path d="M342.99 77.8999L329.87 87.5" stroke="#00AEF2" stroke-width="0.75" stroke-miterlimit="10"/>
<path d="M351.31 90.2402L337.47 98.7798" stroke="#00AEF2" stroke-width="0.75" stroke-miterlimit="10"/>
<path d="M358.59 103.22L344.12 110.64" stroke="#00AEF2" stroke-width="0.75" stroke-miterlimit="10"/>
<path d="M364.89 116.7L349.88 122.96" stroke="#00AEF2" stroke-width="0.75" stroke-miterlimit="10"/>
<path d="M370.05 130.66L354.59 135.72" stroke="#00AEF2" stroke-width="0.75" stroke-miterlimit="10"/>
<path d="M374.11 144.98L358.3 148.8" stroke="#00AEF2" stroke-width="0.75" stroke-miterlimit="10"/>
<path d="M377.05 159.57L360.99 162.13" stroke="#00AEF2" stroke-width="0.75" stroke-miterlimit="10"/>
<path d="M378.78 174.35L362.57 175.64" stroke="#00AEF2" stroke-width="0.75" stroke-miterlimit="10"/>
<path d="M379.43 189.21L363.17 189.24" stroke="#00AEF2" stroke-width="0.75" stroke-miterlimit="10"/>
<path d="M291.69 201.39L278.76 199.9" stroke="#F6F6F6" stroke-width="0.6" stroke-miterlimit="10"/>
<path d="M289.58 213.34L276.93 210.34" stroke="#F6F6F6" stroke-width="0.6" stroke-miterlimit="10"/>
<path d="M286.1 224.98L273.89 220.48" stroke="#F6F6F6" stroke-width="0.6" stroke-miterlimit="10"/>
<path d="M281.21 236.09L269.63 230.18" stroke="#F6F6F6" stroke-width="0.6" stroke-miterlimit="10"/>
<path d="M275.08 246.57L264.28 239.33" stroke="#F6F6F6" stroke-width="0.6" stroke-miterlimit="10"/>
<path d="M267.73 256.22L257.85 247.75" stroke="#F6F6F6" stroke-width="0.6" stroke-miterlimit="10"/>
<path d="M259.31 264.96L250.5 255.39" stroke="#F6F6F6" stroke-width="0.6" stroke-miterlimit="10"/>
<path d="M249.91 272.63L242.28 262.09" stroke="#F6F6F6" stroke-width="0.6" stroke-miterlimit="10"/>
<path d="M239.68 279.16L233.35 267.79" stroke="#F6F6F6" stroke-width="0.6" stroke-miterlimit="10"/>
<path d="M228.73 284.42L223.8 272.38" stroke="#F6F6F6" stroke-width="0.6" stroke-miterlimit="10"/>
<path d="M217.24 288.34L213.78 275.8" stroke="#F6F6F6" stroke-width="0.6" stroke-miterlimit="10"/>
<path d="M205.37 290.89L203.42 278.02" stroke="#F6F6F6" stroke-width="0.6" stroke-miterlimit="10"/>
<path d="M193.28 291.96L192.86 278.96" stroke="#F6F6F6" stroke-width="0.6" stroke-miterlimit="10"/>
<path d="M181.16 291.65L182.26 278.69" stroke="#F6F6F6" stroke-width="0.6" stroke-miterlimit="10"/>
<path d="M169.14 289.93L171.77 277.19" stroke="#F6F6F6" stroke-width="0.6" stroke-miterlimit="10"/>
<path d="M157.42 286.75L161.55 274.41" stroke="#F6F6F6" stroke-width="0.6" stroke-miterlimit="10"/>
<path d="M146.15 282.23L151.72 270.47" stroke="#F6F6F6" stroke-width="0.6" stroke-miterlimit="10"/>
<path d="M135.51 276.39L142.43 265.37" stroke="#F6F6F6" stroke-width="0.6" stroke-miterlimit="10"/>
<path d="M125.64 269.34L133.81 259.22" stroke="#F6F6F6" stroke-width="0.6" stroke-miterlimit="10"/>
<path d="M116.66 261.17L125.97 252.08" stroke="#F6F6F6" stroke-width="0.6" stroke-miterlimit="10"/>
<path d="M108.71 252.01L119.02 244.07" stroke="#F6F6F6" stroke-width="0.6" stroke-miterlimit="10"/>
<path d="M101.88 241.97L113.06 235.31" stroke="#F6F6F6" stroke-width="0.6" stroke-miterlimit="10"/>
<path d="M96.3096 231.19L108.19 225.9" stroke="#F6F6F6" stroke-width="0.6" stroke-miterlimit="10"/>
<path d="M92.0195 219.83L104.45 215.99" stroke="#F6F6F6" stroke-width="0.6" stroke-miterlimit="10"/>
<path d="M89.1699 208.03L101.97 205.7" stroke="#F6F6F6" stroke-width="0.6" stroke-miterlimit="10"/>
<path d="M87.7002 195.98L100.68 195.18" stroke="#F6F6F6" stroke-width="0.6" stroke-miterlimit="10"/>
<path d="M87.6504 183.85L100.64 184.57" stroke="#F6F6F6" stroke-width="0.6" stroke-miterlimit="10"/>
<path d="M89.0498 171.8L101.87 174.04" stroke="#F6F6F6" stroke-width="0.6" stroke-miterlimit="10"/>
<path d="M91.8496 159.98L104.3 163.74" stroke="#F6F6F6" stroke-width="0.6" stroke-miterlimit="10"/>
<path d="M96.0498 148.59L107.96 153.8" stroke="#F6F6F6" stroke-width="0.6" stroke-miterlimit="10"/>
<path d="M101.57 137.77L112.78 144.36" stroke="#F6F6F6" stroke-width="0.6" stroke-miterlimit="10"/>
<path d="M108.31 127.69L118.67 135.56" stroke="#F6F6F6" stroke-width="0.6" stroke-miterlimit="10"/>
<path d="M116.22 118.48L125.58 127.52" stroke="#F6F6F6" stroke-width="0.6" stroke-miterlimit="10"/>
<path d="M125.13 110.25L133.37 120.32" stroke="#F6F6F6" stroke-width="0.6" stroke-miterlimit="10"/>
<path d="M134.98 103.15L141.97 114.12" stroke="#F6F6F6" stroke-width="0.6" stroke-miterlimit="10"/>
<path d="M145.57 97.23L151.21 108.95" stroke="#F6F6F6" stroke-width="0.6" stroke-miterlimit="10"/>
<path d="M156.82 92.6499L161.02 104.96" stroke="#F6F6F6" stroke-width="0.6" stroke-miterlimit="10"/>
<path d="M168.52 89.3999L171.23 102.13" stroke="#F6F6F6" stroke-width="0.6" stroke-miterlimit="10"/>
<path d="M180.52 87.5898L181.7 100.55" stroke="#F6F6F6" stroke-width="0.6" stroke-miterlimit="10"/>
<path d="M192.64 87.21L192.31 100.22" stroke="#F6F6F6" stroke-width="0.6" stroke-miterlimit="10"/>
<path d="M204.74 88.23L202.87 101.1" stroke="#F6F6F6" stroke-width="0.6" stroke-miterlimit="10"/>
<path d="M216.63 90.6802L213.24 103.24" stroke="#F6F6F6" stroke-width="0.6" stroke-miterlimit="10"/>
<path d="M228.14 94.54L223.28 106.61" stroke="#F6F6F6" stroke-width="0.6" stroke-miterlimit="10"/>
<path d="M239.12 99.7202L232.87 111.12" stroke="#F6F6F6" stroke-width="0.6" stroke-miterlimit="10"/>
<path d="M249.39 106.19L241.83 116.78" stroke="#F6F6F6" stroke-width="0.6" stroke-miterlimit="10"/>
<path d="M258.85 113.79L250.09 123.41" stroke="#F6F6F6" stroke-width="0.6" stroke-miterlimit="10"/>
<path d="M267.31 122.49L257.48 131.02" stroke="#F6F6F6" stroke-width="0.6" stroke-miterlimit="10"/>
<path d="M274.73 132.09L263.97 139.4" stroke="#F6F6F6" stroke-width="0.6" stroke-miterlimit="10"/>
<path d="M280.92 142.53L269.37 148.52" stroke="#F6F6F6" stroke-width="0.6" stroke-miterlimit="10"/>
<path d="M285.87 153.62L273.69 158.19" stroke="#F6F6F6" stroke-width="0.6" stroke-miterlimit="10"/>
<path d="M289.44 165.23L276.8 168.31" stroke="#F6F6F6" stroke-width="0.6" stroke-miterlimit="10"/>
<path d="M291.61 177.17L278.69 178.73" stroke="#F6F6F6" stroke-width="0.6" stroke-miterlimit="10"/>
<path d="M292.37 189.28L279.36 189.32" stroke="#F6F6F6" stroke-width="0.6" stroke-miterlimit="10"/>
<path d="M242.939 161.15C244.832 159.258 245.896 156.691 245.896 154.015C245.896 151.339 244.832 148.772 242.939 146.88C241.047 144.988 238.481 143.924 235.805 143.924C233.129 143.924 230.562 144.988 228.67 146.88L168.819 206.73L148.24 186.16L133.979 200.43L168.819 235.27L242.939 161.15Z" fill="white"/>
</svg>
