<svg width="201" height="61" viewBox="0 0 201 61" fill="none" xmlns="http://www.w3.org/2000/svg">
<path d="M61.2101 6.12021C57.5313 2.44591 52.5445 0.38208 47.3451 0.38208C42.1457 0.38208 37.1589 2.44591 33.4801 6.12021C29.8013 2.44591 24.8145 0.38208 19.6151 0.38208C14.4157 0.38208 9.42889 2.44591 5.75012 6.12021L4.65012 7.21022V7.37021C1.48182 11.1227 -0.163116 15.9275 0.0405681 20.8344C0.244252 25.7413 2.28173 30.3932 5.75012 33.8702L6.43012 34.5602L11.7201 29.2602L11.0001 28.5802C9.86539 27.4528 8.96485 26.1122 8.35033 24.6353C7.7358 23.1585 7.41944 21.5748 7.41944 19.9752C7.41944 18.3757 7.7358 16.7919 8.35033 15.3151C8.96485 13.8383 9.86539 12.4976 11.0001 11.3702C13.2748 9.09675 16.3591 7.81962 19.5751 7.81962C22.7911 7.81962 25.8755 9.09675 28.1501 11.3702L17.6501 21.9202L22.9401 27.2102L38.7501 11.3702C39.8768 10.2415 41.215 9.34604 42.6881 8.73507C44.1612 8.1241 45.7403 7.80962 47.3351 7.80962C48.9299 7.80962 50.509 8.1241 51.9822 8.73507C53.4553 9.34604 54.7935 10.2415 55.9201 11.3702C58.1924 13.6496 59.4683 16.7368 59.4683 19.9552C59.4683 23.1737 58.1924 26.2609 55.9201 28.5402L33.4301 51.0702L30.4301 48.0702L25.1001 53.3702L30.7801 59.0502C31.4828 59.7494 32.4338 60.1419 33.4251 60.1419C34.4164 60.1419 35.3674 59.7494 36.0701 59.0502L61.2101 33.8702C63.0325 32.0483 64.4781 29.8852 65.4643 27.5045C66.4506 25.1238 66.9583 22.5721 66.9583 19.9952C66.9583 17.4183 66.4506 14.8666 65.4643 12.4859C64.4781 10.1052 63.0325 7.94216 61.2101 6.12021Z" fill="#4ADBC8"/>
<path d="M77.9787 43.3866C76.5231 42.7999 75.2618 41.8158 74.3387 40.5466C73.4253 39.2739 72.9419 37.743 72.9587 36.1766H78.8687C78.8978 37.1936 79.3294 38.1575 80.0687 38.8566C80.9018 39.5652 81.977 39.9236 83.0687 39.8566C84.147 39.9099 85.2096 39.5805 86.0687 38.9266C86.4307 38.6287 86.7179 38.2501 86.9072 37.8211C87.0965 37.3922 87.1826 36.9248 87.1587 36.4566C87.1717 36.0902 87.1121 35.7249 86.9834 35.3817C86.8547 35.0384 86.6594 34.724 86.4087 34.4566C85.882 33.9109 85.2443 33.4847 84.5387 33.2066C83.7887 32.9066 82.7587 32.5766 81.4487 32.2066C79.9863 31.7924 78.5531 31.2813 77.1587 30.6766C76.0279 30.1477 75.0428 29.3514 74.2887 28.3566C73.428 27.1459 73.0016 25.68 73.0787 24.1966C73.0442 22.6843 73.4735 21.1978 74.3087 19.9366C75.156 18.6988 76.3439 17.7332 77.7287 17.1566C79.3098 16.486 81.0113 16.1457 82.7287 16.1566C85.2026 16.048 87.6408 16.7773 89.6487 18.2266C90.5285 18.9163 91.2467 19.7902 91.7529 20.787C92.2591 21.7838 92.5409 22.8793 92.5787 23.9966H86.5087C86.4904 23.5428 86.3736 23.0985 86.1663 22.6944C85.9591 22.2904 85.6665 21.9362 85.3087 21.6566C84.4524 20.9971 83.3878 20.6671 82.3087 20.7266C81.3734 20.6808 80.4531 20.9757 79.7187 21.5566C79.3826 21.856 79.1183 22.2272 78.9452 22.6426C78.7721 23.0581 78.6946 23.5071 78.7187 23.9566C78.7071 24.2955 78.766 24.6332 78.8916 24.9482C79.0173 25.2632 79.207 25.5487 79.4487 25.7866C79.966 26.3008 80.5815 26.7055 81.2587 26.9766C81.9787 27.2766 82.9987 27.6266 84.2587 27.9766C85.7551 28.3962 87.219 28.9243 88.6387 29.5566C89.7886 30.0955 90.7906 30.9053 91.5587 31.9166C92.4185 33.1205 92.8483 34.5788 92.7787 36.0566C92.786 37.5025 92.3913 38.922 91.6387 40.1566C90.8291 41.4578 89.6629 42.499 88.2787 43.1566C86.6908 43.9578 84.9372 44.3756 83.1587 44.3766C81.3825 44.404 79.6196 44.067 77.9787 43.3866Z" fill="#4ADBC8"/>
<path d="M100.108 24.3066C100.912 22.6829 102.156 21.3177 103.698 20.3666C105.223 19.4419 106.976 18.9638 108.758 18.9866C110.246 18.9569 111.718 19.3007 113.038 19.9866C114.189 20.5829 115.19 21.4305 115.968 22.4666V19.3466H121.528V41.1766H115.968V37.9866C115.207 39.0564 114.203 39.9304 113.038 40.5366C111.698 41.2283 110.206 41.5722 108.698 41.5366C106.931 41.5476 105.196 41.0551 103.698 40.1166C102.156 39.1399 100.913 37.7555 100.108 36.1166C99.2007 34.2739 98.7481 32.2404 98.7884 30.1866C98.749 28.149 99.2019 26.132 100.108 24.3066ZM115.178 26.8166C114.695 25.8944 113.96 25.1282 113.058 24.6066C112.183 24.1012 111.189 23.8357 110.178 23.8366C109.155 23.8179 108.146 24.0826 107.264 24.6015C106.381 25.1203 105.66 25.8731 105.178 26.7766C104.616 27.8235 104.337 28.9989 104.368 30.1866C104.34 31.3837 104.619 32.5681 105.178 33.6266C105.667 34.5642 106.404 35.3494 107.308 35.8966C108.157 36.4162 109.133 36.6897 110.128 36.6866C111.139 36.6876 112.133 36.422 113.008 35.9166C113.91 35.3951 114.645 34.6288 115.128 33.7066C115.683 32.6433 115.955 31.4553 115.918 30.2566C115.969 29.0657 115.714 27.8816 115.178 26.8166Z" fill="#4ADBC8"/>
<path d="M133.048 16.312V44.212H127.528V16.312H133.048Z" fill="#4ADBC8"/>
<path d="M171.808 19.3469L165.428 41.1769H159.478L155.478 25.9269L151.478 41.1769H145.478L139.048 19.3469H144.648L148.508 35.9769L152.688 19.3469H158.518L162.618 35.9369L166.478 19.3469H171.808Z" fill="#4ADBC8"/>
<path d="M179.16 24.3073C179.967 22.6857 181.21 21.3213 182.75 20.3673C184.274 19.4436 186.027 18.9655 187.81 18.9873C189.298 18.9563 190.77 19.3002 192.09 19.9873C193.24 20.5835 194.242 21.4311 195.02 22.4673V19.3473H200.58V41.1773H195.02V37.9873C194.261 39.0594 193.256 39.9339 192.09 40.5373C190.768 41.2192 189.297 41.5628 187.81 41.5373C186.042 41.5482 184.308 41.0557 182.81 40.1173C181.27 39.1365 180.029 37.7532 179.22 36.1173C178.281 34.2823 177.797 32.2484 177.81 30.1873C177.78 28.1472 178.243 26.13 179.16 24.3073ZM194.24 26.8173C193.749 25.8966 193.012 25.1312 192.11 24.6073C191.234 24.101 190.241 23.8353 189.23 23.8373C188.233 23.8306 187.253 24.0895 186.39 24.5873C185.501 25.1131 184.772 25.87 184.28 26.7773C183.725 27.8267 183.45 29.0009 183.48 30.1873C183.454 31.3829 183.729 32.5658 184.28 33.6273C184.768 34.5648 185.505 35.35 186.41 35.8973C187.258 36.4168 188.235 36.6903 189.23 36.6873C190.241 36.6892 191.234 36.4236 192.11 35.9173C193.012 35.3934 193.749 34.6279 194.24 33.7073C194.785 32.6407 195.053 31.4545 195.02 30.2573C195.052 29.0634 194.784 27.8805 194.24 26.8173Z" fill="#4ADBC8"/>
<path d="M50.2028 22.8802C50.9107 22.1787 51.3084 21.2273 51.3084 20.2352C51.3084 19.2432 50.9107 18.2917 50.2028 17.5902C49.4949 16.8887 48.5348 16.4946 47.5337 16.4946C46.5326 16.4946 45.5725 16.8887 44.8646 17.5902L22.4524 39.7902L14.753 32.1602L9.41479 37.4502L22.4524 50.3702L50.2028 22.8802Z" fill="white"/>
</svg>
