<svg xmlns="http://www.w3.org/2000/svg" viewBox="0 0 318.84 270.5"><defs><style>.cls-1{fill:#4adbc8;}.cls-2{fill:#fff;}</style></defs><g id="Layer_2" data-name="Layer 2"><g id="Design_ejeStudio_" data-name="Design | ejeStudio™"><g id="New_Symbol_2" data-name="New Symbol 2"><path class="cls-1" d="M13.7,267.6a23.15,23.15,0,0,1-9.94-7.74A20.28,20.28,0,0,1,0,247.94H16.11a10.45,10.45,0,0,0,3.28,7.31q3,2.69,8.11,2.68t8.27-2.52a8.2,8.2,0,0,0,3-6.61,7.64,7.64,0,0,0-2-5.48,14.27,14.27,0,0,0-5.1-3.38,84.88,84.88,0,0,0-8.44-2.74A89.7,89.7,0,0,1,11.33,233a20.69,20.69,0,0,1-7.84-6.33Q.22,222.38.21,215.28a20.2,20.2,0,0,1,3.34-11.6,21.1,21.1,0,0,1,9.34-7.57,33.9,33.9,0,0,1,13.75-2.64q11.61,0,18.86,5.65t8,15.73H37a8.58,8.58,0,0,0-3.27-6.39,12.37,12.37,0,0,0-8.11-2.52,10.46,10.46,0,0,0-7,2.25,8.15,8.15,0,0,0-2.63,6.56,6.74,6.74,0,0,0,2,5A15,15,0,0,0,22.83,223a85.91,85.91,0,0,0,8.32,2.85,87.56,87.56,0,0,1,11.93,4.3,21.42,21.42,0,0,1,8,6.44q3.33,4.3,3.33,11.28A21.17,21.17,0,0,1,51.24,259a22,22,0,0,1-9.13,8.22,31.15,31.15,0,0,1-14.29,3.07A35.59,35.59,0,0,1,13.7,267.6Z"/><path class="cls-1" d="M67.09,223.55a26.4,26.4,0,0,1,9.77-10.74,26.1,26.1,0,0,1,13.81-3.76,24.23,24.23,0,0,1,11.65,2.69,23.53,23.53,0,0,1,8,6.77V210h15.14v59.51H110.33v-8.7a22.45,22.45,0,0,1-8,6.93,24.43,24.43,0,0,1-11.76,2.74,25.3,25.3,0,0,1-13.7-3.87,27.05,27.05,0,0,1-9.77-10.9,35,35,0,0,1-3.6-16.17A34.48,34.48,0,0,1,67.09,223.55Zm41.09,6.83a15.16,15.16,0,0,0-5.8-6,15.49,15.49,0,0,0-7.84-2.1,15.24,15.24,0,0,0-7.74,2.05,15.43,15.43,0,0,0-5.75,6,18.75,18.75,0,0,0-2.2,9.29,19.37,19.37,0,0,0,2.2,9.4,15.78,15.78,0,0,0,5.81,6.18,14.71,14.71,0,0,0,7.68,2.15,15.49,15.49,0,0,0,7.84-2.1,15.2,15.2,0,0,0,5.8-6,21.62,21.62,0,0,0,0-18.8Z"/><path class="cls-1" d="M155.23,193.47v76.06h-15V193.47Z"/><path class="cls-1" d="M252.56,210l-17.4,59.51H218.94L208.09,228l-10.85,41.57H180.91L163.4,210h15.25l10.53,45.33L200.57,210h15.89l11.18,45.23L238.17,210Z"/><path class="cls-1" d="M260.46,223.55a26.4,26.4,0,0,1,9.77-10.74A26.1,26.1,0,0,1,284,209.05a24.23,24.23,0,0,1,11.65,2.69,23.63,23.63,0,0,1,8,6.77V210h15.14v59.51H303.7v-8.7a22.53,22.53,0,0,1-8,6.93,24.43,24.43,0,0,1-11.76,2.74,25.3,25.3,0,0,1-13.7-3.87,27.05,27.05,0,0,1-9.77-10.9,35,35,0,0,1-3.6-16.17A34.48,34.48,0,0,1,260.46,223.55Zm41.09,6.83a15.23,15.23,0,0,0-5.8-6,15.5,15.5,0,0,0-7.85-2.1,15.23,15.23,0,0,0-7.73,2.05,15.43,15.43,0,0,0-5.75,6,18.64,18.64,0,0,0-2.2,9.29,19.26,19.26,0,0,0,2.2,9.4,15.82,15.82,0,0,0,5.8,6.18,14.76,14.76,0,0,0,7.68,2.15,15.5,15.5,0,0,0,7.85-2.1,15.26,15.26,0,0,0,5.8-6,21.62,21.62,0,0,0,0-18.8Z"/><path class="cls-1" d="M233.88,15.67h0a53.49,53.49,0,0,0-75.59-.06,53.47,53.47,0,0,0-75.58.06l-3,3v.28a53.47,53.47,0,0,0,3,72.39l1.85,1.87L99,78.75l-1.86-1.86a33.1,33.1,0,0,1,0-46.8h0A33.1,33.1,0,0,1,143.87,30L115.15,58.74l14.43,14.43,43.07-43.08a33.11,33.11,0,0,1,46.81,0h0a33.09,33.09,0,0,1,0,46.79L158.15,138.2l-8.26-8.27-14.43,14.42h0l15.48,15.48a10.2,10.2,0,0,0,14.43,0l68.51-68.51a53.49,53.49,0,0,0,0-75.65Z"/><path class="cls-2" d="M202.64,61.36a10.2,10.2,0,1,0-14.43-14.42l-60.52,60.51-20.8-20.8L92.47,101.08l35.22,35.22Z"/></g></g></g></svg>