<svg width="68" height="23" viewBox="0 0 68 23" fill="none" xmlns="http://www.w3.org/2000/svg">
<path d="M28.5391 13.3398H0.138672V22.7998H28.5391V13.3398Z" fill="#8EBF58"/>
<path d="M28.5391 0.429688H0.138672V9.89941H28.5391V0.429688Z" fill="#17A8DA"/>
<path d="M56.9385 20.8799H56.8086C56.5104 20.9522 56.2052 20.9926 55.8984 21C55.1484 21 54.2793 20.6196 54.2793 18.8296C54.2793 17.9096 54.4286 16.6899 55.8086 16.6899C56.149 16.708 56.4853 16.7719 56.8086 16.8799H56.9189L56.9385 20.8799ZM57.1689 11.9697H56.9385V15.2798L56.7393 15.2197H56.6787C56.2711 15.0877 55.8472 15.0139 55.4189 15C52.6589 15 52.0791 17.0896 52.0791 18.8496C52.0791 21.2496 53.4193 22.6299 55.7793 22.6299C56.6157 22.6526 57.4499 22.5379 58.249 22.29C58.5285 22.2478 58.7809 22.0994 58.9541 21.876C59.1273 21.6525 59.2076 21.371 59.1787 21.0898V11.5996L57.1689 11.9697Z" fill="#34363B"/>
<path d="M65.1592 20.9395H65.0391L64.6191 21.0493C64.2941 21.1457 63.958 21.1996 63.6191 21.2095C62.9691 21.2095 62.6191 20.8891 62.6191 20.3491C62.6191 19.9891 62.7789 19.3491 63.8389 19.3491H65.209L65.1592 20.9395ZM64.1592 14.9395C63.2027 14.9554 62.254 15.1205 61.3486 15.4292L60.6387 15.6392L60.8691 17.2393L61.5684 17.0093C62.3132 16.7745 63.0884 16.6467 63.8691 16.6294C64.1691 16.6294 65.0986 16.6294 65.0986 17.6294V18.0693H63.8086C61.4586 18.0693 60.3691 18.8192 60.3691 20.4292C60.3691 21.7992 61.3686 22.6294 63.0586 22.6294C63.6891 22.6135 64.3162 22.5297 64.9287 22.3794H64.999H65.209L67.209 22.7393V17.4795C67.249 15.8495 66.2185 14.9795 64.1885 14.9795L64.1592 14.9395Z" fill="#34363B"/>
<path d="M48.7793 20.9395H48.6592L48.2393 21.0493C47.9142 21.1457 47.5781 21.1996 47.2393 21.2095C46.5893 21.2095 46.2393 20.8891 46.2393 20.3491C46.2393 19.9891 46.399 19.3491 47.459 19.3491H48.8291L48.7793 20.9395ZM47.7793 14.9395C46.8196 14.9553 45.8678 15.1204 44.959 15.4292L44.249 15.6392L44.4893 17.2393L45.1787 17.0093C45.9237 16.7752 46.6978 16.6474 47.4785 16.6294C47.7885 16.6294 48.709 16.6294 48.709 17.6294V18.0693H47.4189C45.0689 18.0693 43.9688 18.8192 43.9688 20.4292C43.9688 21.7992 44.9689 22.6294 46.6689 22.6294C47.2995 22.6142 47.9266 22.5303 48.5391 22.3794H48.6084H48.8086L50.8086 22.7495V17.4893C50.8686 15.7993 49.8384 14.9795 47.8184 14.9795L47.7793 14.9395Z" fill="#34363B"/>
<path fill-rule="evenodd" clip-rule="evenodd" d="M39.8984 14.9995C39.109 15.0083 38.3297 15.1785 37.6084 15.4995H37.5293L37.4492 15.4492C36.8493 15.082 36.1513 14.9075 35.4492 14.9492C34.6295 14.9533 33.8147 15.0744 33.0293 15.3091C32.3193 15.5291 32.0293 15.8795 32.0293 16.5195V22.5195H34.2686V16.9595H34.3789C34.698 16.8372 35.0372 16.776 35.3789 16.7793C36.0289 16.7793 36.3789 17.1193 36.3789 17.7793V22.5396H38.5889V17.6895C38.5928 17.5234 38.5689 17.3575 38.5186 17.1992L38.4385 17.0493L38.5889 16.9893C38.9339 16.8317 39.3093 16.7532 39.6885 16.7593C39.8241 16.7412 39.9622 16.7545 40.0918 16.7983C40.2214 16.8422 40.3388 16.9155 40.4355 17.0122C40.5323 17.1089 40.6056 17.2264 40.6494 17.356C40.6933 17.4855 40.7066 17.6237 40.6885 17.7593V22.5195H42.8887V17.5195C42.8887 15.7595 41.9493 14.9092 39.9893 14.9092" fill="#34363B"/>
<path d="M63.5088 6.60938C63.0696 6.6047 62.6319 6.56445 62.1992 6.48926H62.0791V3.24951C62.0824 3.09074 62.0616 2.93215 62.0186 2.7793L61.9492 2.64941L62.0889 2.58936H62.1992L62.3486 2.53955H62.4092C62.7862 2.45185 63.1715 2.40785 63.5586 2.40918C64.9386 2.40918 65.0986 3.62932 65.0986 4.54932C65.0986 6.33932 64.1987 6.71924 63.4688 6.71924M63.4688 0.539551H63.4092C62.1192 0.539551 60.7991 0.899355 60.3291 1.58936C60.0594 1.95377 59.9153 2.39577 59.9189 2.84912V6.18945C59.9299 6.33305 59.9056 6.4771 59.8486 6.60938L59.7793 6.75928H55.6992V4.4292C55.6492 1.9792 54.1986 0.629395 52.0986 0.629395H50.0986C50.0086 1.22939 49.9384 1.62951 49.8584 2.24951H51.8584C52.9284 2.24951 53.499 3.15908 53.499 4.55908V6.79932L53.3486 6.72949C53.1939 6.67861 53.032 6.65461 52.8691 6.65918H49.3486C49.2786 7.09918 49.1986 7.65953 49.0986 8.26953H59.9385C60.3085 8.18953 60.7384 8.12934 61.1084 8.06934C61.8322 8.34866 62.6031 8.48795 63.3789 8.47949C63.9042 8.48606 64.4253 8.3888 64.9131 8.19385C65.4009 7.9989 65.8456 7.71005 66.2217 7.34326C66.5978 6.97647 66.8984 6.53894 67.1055 6.05615C67.3126 5.57336 67.4221 5.05458 67.4287 4.5293C67.4353 4.00401 67.3385 3.48244 67.1436 2.99463C66.9486 2.50681 66.6598 2.06211 66.293 1.68604C65.9262 1.30996 65.4886 1.00982 65.0059 0.802734C64.5231 0.595649 64.0038 0.486058 63.4785 0.479492" fill="#34363B"/>
<path fill-rule="evenodd" clip-rule="evenodd" d="M44.4991 9.24951H44.5987C46.9587 9.24951 48.0489 8.46908 48.0489 6.55908C48.0517 6.21451 47.9818 5.8733 47.8448 5.55713C47.7078 5.24096 47.5063 4.9572 47.253 4.72363C46.9996 4.49006 46.7003 4.31211 46.3741 4.20117C46.0478 4.09023 45.7017 4.0484 45.3585 4.0791H43.1993C43.0653 4.08963 42.9299 4.07143 42.8038 4.0249C42.6777 3.97837 42.5639 3.90462 42.4688 3.80957C42.3738 3.71452 42.3005 3.60023 42.254 3.47412C42.2074 3.34802 42.1888 3.2131 42.1993 3.0791C42.1993 2.6591 42.359 2.13916 43.419 2.13916H48.1592C48.2592 1.51916 48.3085 1.13953 48.3985 0.519531H43.4786C41.1886 0.519531 40.0294 1.5191 40.0294 3.0791C40.0294 4.6391 41.0288 5.48926 42.7188 5.48926H44.8887C45.0253 5.48901 45.1608 5.51684 45.2862 5.5708C45.4116 5.62477 45.5245 5.70391 45.6182 5.80322C45.7119 5.90253 45.7845 6.01961 45.8311 6.14795C45.8777 6.27629 45.8969 6.41304 45.8887 6.54932C45.8887 6.89932 45.729 7.62939 44.669 7.62939H36.0987C35.0287 7.62939 34.2794 7.01939 34.2794 5.62939V4.62939C34.2794 3.15939 34.8587 2.24951 36.0987 2.24951H38.1592C38.2492 1.62951 38.3085 1.24916 38.3985 0.63916H35.5889C33.4889 0.63916 32.0393 2.04951 31.9893 4.49951V5.59912C31.9436 6.08462 32.0047 6.57456 32.169 7.03369C32.3333 7.49282 32.5961 7.9101 32.9395 8.25635C33.2829 8.60259 33.6986 8.86899 34.1563 9.03711C34.6141 9.20523 35.1031 9.27118 35.5889 9.22949H44.4991V9.24951Z" fill="#34363B"/>
</svg>
