<svg width="15" height="20" viewBox="0 0 15 20" fill="none" xmlns="http://www.w3.org/2000/svg">
<path d="M7.33105 0.648438C5.42047 0.653715 3.58928 1.41487 2.23828 2.76587C0.887286 4.11686 0.126372 5.94781 0.121094 7.8584C0.121094 13.0384 6.84109 19.5283 7.12109 19.7983C7.17668 19.8504 7.25004 19.8794 7.32617 19.8794C7.4023 19.8794 7.47567 19.8504 7.53125 19.7983C7.82125 19.5283 14.5312 13.0384 14.5312 7.8584C14.5286 5.94873 13.7693 4.11788 12.4199 2.7666C11.0705 1.41532 9.24072 0.653726 7.33105 0.648438ZM7.33105 11.1685C6.6764 11.1685 6.03651 10.9743 5.49219 10.6106C4.94786 10.2469 4.52299 9.72982 4.27246 9.125C4.02193 8.52018 3.95627 7.85472 4.08398 7.21265C4.2117 6.57057 4.52732 5.98073 4.99023 5.51782C5.45315 5.05491 6.04347 4.73978 6.68555 4.61206C7.32762 4.48434 7.99283 4.54977 8.59766 4.80029C9.20248 5.05082 9.7193 5.47496 10.083 6.01929C10.4467 6.56361 10.6406 7.20374 10.6406 7.8584C10.6406 8.73627 10.2916 9.57823 9.6709 10.199C9.05015 10.8197 8.20892 11.1685 7.33105 11.1685Z" fill="white"/>
</svg>
