<svg width="61" height="70" viewBox="0 0 61 70" fill="none" xmlns="http://www.w3.org/2000/svg">
<path d="M24.1296 26.9199V54.4097C21.3803 53.2858 19.0083 51.4019 17.2912 48.9785C15.574 46.5551 14.5828 43.6925 14.4338 40.7261C14.2848 37.7597 14.9837 34.8123 16.4494 32.229C17.9151 29.6457 20.0868 27.5334 22.7096 26.1396C23.1664 26.4288 23.6405 26.6895 24.1296 26.9199Z" stroke="#1B1787" stroke-width="2" stroke-linecap="round" stroke-linejoin="round"/>
<path d="M45.6802 39.9399C45.6792 43.0416 44.7568 46.0731 43.0298 48.6494C41.3027 51.2257 38.8492 53.2304 35.9805 54.4097V26.9199C36.4695 26.6895 36.9436 26.4288 37.4004 26.1396C39.903 27.4719 41.9955 29.4605 43.4541 31.8916C44.9128 34.3227 45.6824 37.1048 45.6802 39.9399Z" stroke="#1B1787" stroke-width="2" stroke-linecap="round" stroke-linejoin="round"/>
<path d="M59.0488 35.7998V43.0596L53.4888 43.98C52.9438 47.1925 51.7384 50.2571 49.9487 52.98L53.1187 57.4199L47.9888 62.5498L43.6689 59.4497C40.9314 61.3736 37.8155 62.6929 34.5288 63.3198L33.6689 68.48H26.4189L25.5586 63.3198C22.2719 62.6929 19.1565 61.3736 16.4189 59.4497L12.0986 62.5498L6.96875 57.4199L10.1387 52.98C8.34901 50.2571 7.14358 47.1925 6.59863 43.98L1.03906 43.0596V35.7998L6.78906 34.8496C7.44773 31.812 8.69787 28.9342 10.4688 26.3799L6.96875 21.48L12.0986 16.3496L17.0986 19.9399L17.3486 19.7798C18.4364 22.3881 20.3012 24.5983 22.689 26.1099C23.1457 26.399 23.6199 26.6593 24.1089 26.8896V54.3799C27.9074 55.9267 32.1604 55.9267 35.959 54.3799V26.8896C36.448 26.6593 36.9222 26.399 37.3789 26.1099C39.7667 24.5983 41.631 22.3881 42.7188 19.7798L42.9688 19.9399L47.9688 16.3496L53.0986 21.48L49.5986 26.3799C51.3695 28.9342 52.6201 31.812 53.2788 34.8496L59.0488 35.7998Z" stroke="#1B1787" stroke-width="2" stroke-linecap="round" stroke-linejoin="round"/>
<path d="M43.7912 14.5303C43.7942 16.8478 43.2094 19.1284 42.092 21.1587C40.9745 23.189 39.3606 24.9028 37.401 26.1401C36.9443 26.4293 36.4701 26.69 35.9811 26.9204V54.4102C32.1826 55.957 27.9296 55.957 24.131 54.4102V26.9204C23.642 26.69 23.1678 26.4293 22.7111 26.1401C20.5333 24.7605 18.7876 22.796 17.6735 20.4712C16.5594 18.1464 16.1219 15.5554 16.4108 12.9937C16.6997 10.4319 17.7033 8.00311 19.3073 5.98486C20.9112 3.96662 23.0508 2.43998 25.4811 1.58008V11.8701L30.0607 15.3101L34.631 11.8701V1.58008C37.31 2.52569 39.6296 4.27923 41.2702 6.59863C42.9108 8.91804 43.7918 11.6893 43.7912 14.5303Z" fill="#4ADBC8" stroke="#1B1787" stroke-width="2" stroke-linecap="round" stroke-linejoin="round"/>
</svg>
