<svg width="27" height="25" viewBox="0 0 27 25" fill="none" xmlns="http://www.w3.org/2000/svg">
<path d="M17.1792 18.9112H9.50928C9.38516 18.898 9.25987 18.9113 9.14111 18.9498C9.02236 18.9882 8.91264 19.0509 8.81982 19.1343C8.72701 19.2178 8.65286 19.3201 8.60205 19.4342C8.55124 19.5482 8.52539 19.6716 8.52539 19.7965C8.52539 19.9213 8.55124 20.0447 8.60205 20.1588C8.65286 20.2728 8.72701 20.3746 8.81982 20.4581C8.91264 20.5415 9.02236 20.6047 9.14111 20.6431C9.25987 20.6816 9.38516 20.6944 9.50928 20.6812H17.1792C17.3033 20.6944 17.4291 20.6816 17.5479 20.6431C17.6666 20.6047 17.7758 20.5415 17.8687 20.4581C17.9615 20.3746 18.0356 20.2728 18.0864 20.1588C18.1372 20.0447 18.1636 19.9213 18.1636 19.7965C18.1636 19.6716 18.1372 19.5482 18.0864 19.4342C18.0356 19.3201 17.9615 19.2178 17.8687 19.1343C17.7758 19.0509 17.6666 18.9882 17.5479 18.9498C17.4291 18.9113 17.3033 18.898 17.1792 18.9112Z" fill="white"/>
<path d="M17.1792 15.1105H9.50928C9.38516 15.0973 9.25987 15.1101 9.14111 15.1486C9.02236 15.187 8.91264 15.2502 8.81982 15.3336C8.72701 15.4171 8.65286 15.5189 8.60205 15.633C8.55124 15.747 8.52539 15.8704 8.52539 15.9953C8.52539 16.1201 8.55124 16.2436 8.60205 16.3576C8.65286 16.4716 8.72701 16.5739 8.81982 16.6574C8.91264 16.7408 9.02236 16.8035 9.14111 16.8419C9.25987 16.8804 9.38516 16.8937 9.50928 16.8805H17.1792C17.3033 16.8937 17.4291 16.8804 17.5479 16.8419C17.6666 16.8035 17.7758 16.7408 17.8687 16.6574C17.9615 16.5739 18.0356 16.4716 18.0864 16.3576C18.1372 16.2436 18.1636 16.1201 18.1636 15.9953C18.1636 15.8704 18.1372 15.747 18.0864 15.633C18.0356 15.5189 17.9615 15.4171 17.8687 15.3336C17.7758 15.2502 17.6666 15.187 17.5479 15.1486C17.4291 15.1101 17.3033 15.0973 17.1792 15.1105Z" fill="white"/>
<path d="M24.5601 6.10797H21.7397V0.978085C21.7411 0.86215 21.7195 0.747078 21.6758 0.639706C21.632 0.532334 21.5668 0.434581 21.4849 0.352597C21.4029 0.270613 21.3056 0.205917 21.1982 0.162167C21.0909 0.118418 20.9758 0.0963735 20.8599 0.0977139H5.85986C5.74393 0.0963735 5.62886 0.118418 5.52148 0.162167C5.41411 0.205917 5.31636 0.270613 5.23438 0.352597C5.15239 0.434581 5.08769 0.532334 5.04395 0.639706C5.0002 0.747078 4.97864 0.86215 4.97998 0.978085V6.10797H2.15967C1.6124 6.10796 1.08762 6.32447 0.699707 6.71051C0.311793 7.09655 0.0924876 7.62076 0.0898438 8.16803V17.0777C0.0898438 17.6267 0.308089 18.1534 0.696289 18.5416C1.08449 18.9298 1.61067 19.148 2.15967 19.148H4.97998V23.898C4.97866 24.0144 5.00031 24.1299 5.04395 24.2379C5.08758 24.3458 5.15204 24.4436 5.23389 24.5264C5.31573 24.6092 5.41357 24.6749 5.521 24.7198C5.62842 24.7646 5.74345 24.7882 5.85986 24.7881H20.8599C20.9763 24.7882 21.0913 24.7646 21.1987 24.7198C21.3062 24.6749 21.404 24.6092 21.4858 24.5264C21.5677 24.4436 21.6321 24.3458 21.6758 24.2379C21.7194 24.1299 21.7411 24.0144 21.7397 23.898V19.148H24.5601C25.1091 19.148 25.6352 18.9298 26.0234 18.5416C26.4116 18.1534 26.6299 17.6267 26.6299 17.0777V8.16803C26.6272 7.62076 26.4079 7.09655 26.02 6.71051C25.6321 6.32447 25.1073 6.10796 24.5601 6.10797ZM6.71973 1.86773H19.9697V6.10797H6.71973V1.86773ZM19.9697 23.0181H6.71973V13.1778H19.9697V23.0181ZM20.8599 11.3077H18.5996C18.3811 11.2844 18.1791 11.1815 18.0322 11.0181C17.8853 10.8547 17.8042 10.6426 17.8042 10.4229C17.8042 10.2032 17.8853 9.99108 18.0322 9.82769C18.1791 9.6643 18.3811 9.5614 18.5996 9.53814H20.8398C21.0583 9.5614 21.2603 9.6643 21.4072 9.82769C21.5541 9.99108 21.6357 10.2032 21.6357 10.4229C21.6357 10.6426 21.5541 10.8547 21.4072 11.0181C21.2603 11.1815 21.0583 11.2844 20.8398 11.3077H20.8599Z" fill="white"/>
</svg>
