<svg width="137" height="136" viewBox="0 0 137 136" fill="none" xmlns="http://www.w3.org/2000/svg">
<path d="M135.45 103.2C135.46 109.424 133.622 115.512 130.17 120.691C126.718 125.871 121.808 129.91 116.059 132.296C110.31 134.683 103.983 135.31 97.8773 134.098C91.7719 132.886 86.1634 129.89 81.762 125.488C77.3607 121.087 74.3636 115.478 73.1517 109.373C71.9398 103.268 72.5669 96.9402 74.9534 91.1914C77.34 85.4427 81.3793 80.5314 86.5589 77.0794C91.7385 73.6274 97.8256 71.79 104.05 71.7998C112.372 71.8183 120.348 75.1325 126.233 81.0171C132.117 86.9018 135.432 94.8776 135.45 103.2Z" stroke="#1B1787" stroke-width="2" stroke-linecap="round" stroke-linejoin="round"/>
<path d="M113.639 99.6597C113.639 101.566 113.075 103.43 112.015 105.015C110.956 106.6 109.45 107.836 107.688 108.566C105.927 109.295 103.989 109.486 102.119 109.114C100.249 108.742 98.5314 107.824 97.1832 106.476C95.835 105.128 94.9165 103.41 94.5445 101.54C94.1726 99.6703 94.3637 97.7319 95.0934 95.9705C95.823 94.209 97.0589 92.7035 98.6442 91.6443C100.229 90.585 102.093 90.0195 104 90.0195C106.556 90.0195 109.008 91.0352 110.816 92.843C112.624 94.6509 113.639 97.103 113.639 99.6597Z" fill="#4ADBC8" stroke="#1B1787" stroke-width="2" stroke-linecap="round" stroke-linejoin="round"/>
<path d="M104.05 134.651C110.182 134.621 116.176 132.83 121.319 129.49V126.581C121.375 124.277 120.969 121.986 120.126 119.841C119.283 117.697 118.02 115.743 116.41 114.094C114.801 112.445 112.878 111.135 110.754 110.24C108.631 109.346 106.349 108.885 104.045 108.885C101.741 108.885 99.4595 109.346 97.336 110.24C95.2126 111.135 93.2894 112.445 91.6798 114.094C90.0702 115.743 88.8072 117.697 87.964 119.841C87.1207 121.986 86.7142 124.277 86.7696 126.581V129.49C91.9158 132.832 97.9143 134.623 104.05 134.651Z" fill="#4ADBC8" stroke="#1B1787" stroke-width="2" stroke-linecap="round" stroke-linejoin="round"/>
<path d="M64.7898 32.5398C64.7898 38.76 62.9448 44.8405 59.489 50.0125C56.0332 55.1844 51.1215 59.2153 45.3747 61.5957C39.628 63.9761 33.3045 64.599 27.2038 63.3855C21.1031 62.172 15.4997 59.1767 11.1013 54.7783C6.70293 50.38 3.70738 44.776 2.49387 38.6753C1.28037 32.5746 1.90354 26.2511 4.28391 20.5044C6.66429 14.7577 10.695 9.84591 15.8669 6.39014C21.0388 2.93437 27.1194 1.08984 33.3396 1.08984C41.679 1.09514 49.6751 4.41026 55.572 10.3071C61.4689 16.204 64.7845 24.2004 64.7898 32.5398Z" stroke="#1B1787" stroke-width="2" stroke-linecap="round" stroke-linejoin="round"/>
<path d="M42.9791 28.9993C42.9791 30.9059 42.4143 32.7697 41.3551 34.355C40.2958 35.9403 38.7904 37.1759 37.0289 37.9055C35.2674 38.6351 33.3286 38.8261 31.4586 38.4541C29.5886 38.0821 27.8712 37.1641 26.5231 35.8159C25.1749 34.4677 24.2563 32.7499 23.8844 30.8799C23.5124 29.0099 23.7036 27.0718 24.4332 25.3103C25.1628 23.5488 26.3987 22.0431 27.984 20.9839C29.5693 19.9246 31.4329 19.3594 33.3395 19.3594C35.8962 19.3594 38.348 20.375 40.1559 22.1829C41.9637 23.9907 42.9791 26.4426 42.9791 28.9993Z" fill="#4ADBC8" stroke="#1B1787" stroke-width="2" stroke-linecap="round" stroke-linejoin="round"/>
<path d="M33.3398 63.9905C39.4557 63.8344 45.4201 62.0535 50.6201 58.8306V55.9207C50.6201 51.3377 48.7992 46.9423 45.5586 43.7017C42.318 40.461 37.9228 38.6406 33.3398 38.6406C28.7569 38.6406 24.3617 40.461 21.1211 43.7017C17.8805 46.9423 16.0596 51.3377 16.0596 55.9207V58.8005C21.2566 62.0341 27.2212 63.8254 33.3398 63.9905Z" fill="#4ADBC8" stroke="#1B1787" stroke-width="2" stroke-linecap="round" stroke-linejoin="round"/>
<path d="M135.45 32.5403C135.452 36.032 134.418 39.4458 132.479 42.3499C130.541 45.2539 127.784 47.5176 124.558 48.8547C121.333 50.1919 117.784 50.5423 114.359 49.8616C110.934 49.1809 107.788 47.4998 105.319 45.0308C102.85 42.5618 101.169 39.4159 100.488 35.9912C99.8074 32.5665 100.158 29.0168 101.495 25.7913C102.832 22.5657 105.096 19.8093 108 17.8706C110.904 15.932 114.318 14.8984 117.809 14.9004C122.487 14.903 126.972 16.7623 130.28 20.0698C133.588 23.3774 135.447 27.8627 135.45 32.5403Z" stroke="#1B1787" stroke-width="2" stroke-linecap="round" stroke-linejoin="round"/>
<path d="M37.17 103.2C37.17 106.689 36.1356 110.1 34.1973 113.001C32.259 115.902 29.5036 118.163 26.2803 119.498C23.057 120.833 19.5108 121.182 16.0889 120.502C12.6671 119.821 9.5237 118.141 7.05671 115.674C4.58971 113.207 2.90922 110.064 2.22858 106.642C1.54794 103.22 1.89736 99.6732 3.23249 96.45C4.56762 93.2267 6.82867 90.4718 9.72956 88.5334C12.6304 86.5951 16.0415 85.5605 19.5303 85.5605C24.2088 85.5605 28.6949 87.4192 32.003 90.7273C35.3111 94.0354 37.17 98.522 37.17 103.2Z" stroke="#1B1787" stroke-width="2" stroke-linecap="round" stroke-linejoin="round"/>
<path d="M100.16 32.54H64.79" stroke="#1B1787" stroke-width="2" stroke-linecap="round" stroke-linejoin="round"/>
<path d="M72.5498 103.199H37.1699" stroke="#1B1787" stroke-width="2" stroke-linecap="round" stroke-linejoin="round"/>
<path d="M81.7598 80.9592L55.5801 54.7793" stroke="#1B1787" stroke-width="2" stroke-linecap="round" stroke-linejoin="round"/>
</svg>
