<svg width="113" height="113" viewBox="0 0 113 113" fill="none" xmlns="http://www.w3.org/2000/svg">
<path d="M96.4883 53.7188H101.798V59.0386H96.4883V53.7188Z" fill="#1B1787"/>
<path d="M48.6577 80.2891V85.6094H43.3477V80.2891H48.6577Z" fill="#1B1787"/>
<path d="M48.6602 21.8398V11.21H43.3501V0.589844H69.9199V11.21H64.6001V16.5298H69.9199V27.1597H64.6001V21.8398H59.29V16.5298H53.98V21.8398H48.6602C48.6602 27.1498 48.6602 32.4698 48.6602 37.7798H53.98V27.1597H59.29V37.7798H64.6001V32.4697H69.9199V37.7798H64.6001V43.0996H91.1699V48.4097H96.4897C96.4897 50.1797 96.4897 51.9497 96.4897 53.7197H91.1699V59.0396H96.4897V69.6699C98.2597 69.6699 100.03 69.6699 101.8 69.6699V64.3496H107.11V69.6699H101.8C101.8 73.2099 101.8 76.7496 101.8 80.2896H96.4897V90.9199H101.8V85.6099H107.11V90.9199H101.8V96.23H112.43V101.55H96.4897V112.18H91.1699V106.86C87.6299 106.86 84.0898 106.86 80.5498 106.86V112.18H75.23V106.86H80.5498V101.55H75.23V96.23H85.8599V90.9199H59.29V96.23C55.75 96.23 52.2002 96.23 48.6602 96.23C48.6602 98 48.6602 99.7798 48.6602 101.55H53.98V106.86H59.29V112.18H43.3501V96.23C45.1201 96.23 46.8902 96.23 48.6602 96.23V85.6099H53.98V80.2896H48.6602V74.98C52.2002 74.98 55.75 74.98 59.29 74.98V69.6699H64.6001V74.98H69.9199C69.9199 71.44 69.9199 67.8896 69.9199 64.3496H64.6001V59.0396H69.9199V64.3496C75.2299 64.3496 80.5499 64.3496 85.8599 64.3496V69.6699H91.1699V64.3496H85.8599V59.0396H75.23V48.4097H59.29V53.7197H48.6602V64.3496H53.98V69.6699H48.6602C48.6602 71.4399 48.6602 73.21 48.6602 74.98H43.3501V69.6699H27.4102V64.3496H43.3501V21.8398H48.6602ZM59.29 5.8999H53.98V11.21H59.29V5.8999ZM85.8599 48.4097H80.5498V53.7197H85.8599V48.4097ZM80.5498 80.2896C80.5498 78.5196 80.5498 76.75 80.5498 74.98H75.23V80.2896H80.5498C80.5498 82.0596 80.5498 83.8399 80.5498 85.6099H91.1699V80.2896C87.6299 80.2896 84.0898 80.2996 80.5498 80.2896ZM69.9199 80.2896H64.6001V85.6099H69.9199V80.2896Z" fill="#1B1787"/>
<path d="M38.04 0.589844V37.7798H0.839844V0.589844H38.04ZM32.7202 5.8999H6.1499V32.4697H32.7202V5.8999Z" fill="#1B1787"/>
<path d="M112.431 0.589844V37.7798H75.2305V0.589844H112.431ZM107.11 5.8999H80.5503V32.4697H107.11V5.8999Z" fill="#1B1787"/>
<path d="M38.04 74.9805V112.18H0.839844V74.9805H38.04ZM32.7202 80.29H6.1499V106.86H32.7202V80.29Z" fill="#1B1787"/>
<path d="M16.7788 48.4116H6.14893V53.7217H0.838867V43.1016H16.7788V48.4116H27.4092V43.1016H38.0391V48.4116H27.4092V53.7217H38.0391V59.0415H22.0391V69.6719H0.789062V59.0415H6.09912V64.3516H16.729C16.769 59.0416 16.7888 53.7216 16.7788 48.4116Z" fill="#1B1787"/>
<path d="M112.42 43.1016V59.0415H107.111V48.4116H101.801V43.1016H112.42Z" fill="#1B1787"/>
<path d="M112.419 74.9805H107.109V80.2905H112.419V74.9805Z" fill="#1B1787"/>
<path d="M69.9077 101.551H64.5977V106.861H69.9077V101.551Z" fill="#1B1787"/>
<path d="M112.419 106.859H107.109V112.169H112.419V106.859Z" fill="#1B1787"/>
<path d="M27.4009 11.2109H11.4609V27.1509H27.4009V11.2109Z" fill="#1B1787"/>
<path d="M101.799 11.2109H85.8594V27.1509H101.799V11.2109Z" fill="#1B1787"/>
<path d="M27.4009 85.6094H11.4609V101.549H27.4009V85.6094Z" fill="#1B1787"/>
</svg>
