<svg width="604" height="493" viewBox="0 0 604 493" fill="none" xmlns="http://www.w3.org/2000/svg">
<g opacity="0.1">
<path d="M551.679 47.6998C521.389 17.407 480.315 0.373649 437.476 0.3399C394.637 0.306151 353.536 17.275 323.199 47.5201C292.859 17.2733 251.755 0.304275 208.914 0.3399C166.073 0.375524 124.998 17.4128 94.7089 47.71L85.7089 56.71V57.5499C59.472 88.4948 45.8326 128.175 47.4999 168.711C49.1673 209.248 66.0193 247.674 94.7089 276.36L100.309 282.01L143.939 238.38L138.309 232.76C129.014 223.473 121.641 212.445 116.61 200.307C111.58 188.169 108.99 175.159 108.99 162.02C108.99 148.881 111.58 135.87 116.61 123.732C121.641 111.595 129.014 100.567 138.309 91.2798C157.031 72.5442 182.423 62.0015 208.91 61.9659C235.397 61.9303 260.816 72.4046 279.589 91.0899L192.789 177.89L236.399 221.49L366.609 91.2798C375.896 81.9852 386.923 74.6118 399.061 69.5811C411.199 64.5504 424.209 61.961 437.349 61.961C450.488 61.961 463.498 64.5504 475.636 69.5811C487.774 74.6118 498.802 81.9852 508.089 91.2798C517.382 100.567 524.754 111.593 529.784 123.731C534.813 135.868 537.402 148.877 537.402 162.015C537.402 175.153 534.813 188.162 529.784 200.299C524.754 212.436 517.382 223.463 508.089 232.75L322.769 418.06L297.769 393.06L254.169 436.66L300.959 483.46C306.742 489.242 314.585 492.49 322.764 492.49C330.942 492.49 338.785 489.242 344.569 483.46L551.679 276.34C566.694 261.325 578.605 243.499 586.731 223.88C594.858 204.262 599.04 183.235 599.04 162C599.04 140.765 594.858 119.738 586.731 100.119C578.605 80.5007 566.694 62.675 551.679 47.6597V47.6998Z" fill="#57CFDC"/>
<path d="M457.239 185.799C463.021 180.016 466.269 172.173 466.268 163.996C466.267 155.818 463.017 147.976 457.234 142.194C451.451 136.413 443.608 133.165 435.431 133.166C427.253 133.167 419.411 136.416 413.629 142.199L230.689 325.139L167.799 262.259L124.199 305.859L230.679 412.349L457.239 185.799Z" fill="#57CFDC"/>
</g>
<path d="M601.959 409.949H557.959C564.889 347.719 562.759 301.23 551.619 271.79C542.169 246.79 528.179 239.12 519.819 234.53L518.289 233.679C502.289 224.739 481.999 215.79 472.899 211.9C468.489 201.75 461.719 194.22 452.679 189.48C452.094 189.176 451.418 189.098 450.779 189.26C450.826 184.929 451.325 180.616 452.269 176.389C454.177 172.683 455.743 168.81 456.949 164.82C462.659 166.12 467.689 165.359 471.949 162.559C480.559 156.849 483.439 144.14 484.389 137.07C485.069 132.07 484.199 128.069 481.809 125.179C480.213 123.33 478.081 122.023 475.709 121.44C481.386 112.416 484.891 102.198 485.949 91.5896C487.719 70.3896 475.819 59.1894 473.669 57.3494C471.468 50.8948 467.912 44.9863 463.239 40.0198C455.749 31.8198 441.669 21.6895 417.159 19.9695C374.879 16.9695 367.019 32.5695 365.719 36.4495C362.984 36.9685 360.383 38.0331 358.068 39.5793C355.754 41.1256 353.775 43.1219 352.249 45.4495C346.249 54.1895 343.729 68.6898 344.819 88.5398C345.059 92.8398 345.439 96.9396 345.879 100.59C338.709 103.37 338.519 111.369 338.349 119.119C338.349 119.759 338.349 120.41 338.349 121.05C337.919 136.74 344.609 143.66 345.519 144.53C345.519 144.73 345.469 144.939 345.449 145.139C344.589 152.679 345.369 175.849 359.149 192.219C361.579 195.109 365.739 198.22 368.709 200.42C361.893 204.704 355.954 210.246 351.209 216.75C345.939 219.53 336.089 224.699 326.849 229.469C325.827 227.897 324.509 226.539 322.969 225.469C319.769 223.229 307.109 219.9 305.709 219.54C305.409 219.45 298.379 217.48 294.819 223C292.979 225.85 291.069 229.159 289.819 231.389C289.309 223.869 288.819 214.829 288.949 211.579C289.389 202.989 288.949 188.449 281.179 187.579C280.5 187.491 279.809 187.56 279.161 187.78C278.513 188 277.924 188.366 277.439 188.849C274.439 191.789 273.899 199.69 274.329 210C272.099 205 268.539 200.09 263.389 201.13C262.895 201.234 262.431 201.446 262.028 201.75C261.625 202.054 261.294 202.443 261.059 202.889C258.979 206.469 260.319 216.09 262.599 226.13C260.119 224.32 256.509 222.63 253.439 224.82C248.739 228.18 251.309 237.77 252.689 242.92C252.789 243.31 252.889 243.669 252.969 243.99C253.239 244.99 254.239 247.87 255.749 252.21C259.989 264.37 268.499 288.75 269.119 297.67C267.368 294.994 264.981 292.794 262.171 291.269C259.361 289.743 256.216 288.939 253.019 288.929H222.219V276.04C222.211 269.791 219.725 263.8 215.307 259.382C210.888 254.963 204.898 252.477 198.649 252.469H164.819C158.57 252.477 152.58 254.963 148.161 259.382C143.743 263.8 141.257 269.791 141.249 276.04V288.929H100.049C95.8503 288.943 91.8284 290.621 88.8662 293.596C85.904 296.572 84.2437 300.601 84.249 304.8V396.55C84.2514 399.232 84.9349 401.87 86.2363 404.216C87.5377 406.561 89.4142 408.538 91.689 409.96H1.31885C1.01821 409.987 0.7387 410.126 0.535156 410.349C0.331612 410.572 0.21875 410.863 0.21875 411.165C0.21875 411.467 0.331612 411.757 0.535156 411.98C0.7387 412.203 1.01821 412.342 1.31885 412.369H555.459C555.547 412.547 555.678 412.7 555.84 412.814C556.003 412.927 556.192 412.998 556.389 413.02H556.529C556.751 413.021 556.969 412.959 557.158 412.843C557.347 412.726 557.5 412.559 557.599 412.36H601.959C602.26 412.332 602.539 412.193 602.743 411.97C602.946 411.747 603.059 411.456 603.059 411.155C603.059 410.853 602.946 410.562 602.743 410.339C602.539 410.116 602.26 409.977 601.959 409.949ZM312.959 258.949C310.059 259.949 303.609 255.409 301.879 250.219C300.299 245.459 302.879 236.54 303.629 234.74C304.949 234.529 309.929 235.12 312.349 236.74L312.819 237.07C315.219 238.73 319.599 241.75 323.359 240.84C321.905 243.098 320.992 245.661 320.689 248.329C320.409 252.999 316.369 257.799 312.949 258.909L312.959 258.949ZM158.049 276.699C158.051 274.473 158.938 272.34 160.513 270.766C162.088 269.193 164.223 268.309 166.449 268.309H196.939C199.165 268.309 201.3 269.193 202.875 270.766C204.45 272.34 205.336 274.473 205.339 276.699V288.96H158.049V276.699ZM281.689 409.949C285.36 408.612 288.751 406.604 291.689 404.03C297.829 398.71 301.859 391.44 304.509 384.34V409.949H281.689Z" fill="white"/>
<path d="M460.129 137.22C460.129 137.22 460.909 121.981 456.239 112.651C451.569 103.321 445.979 83.7105 450.179 71.1105C450.179 71.1105 402.569 79.5104 366.639 55.2404C366.639 55.2404 366.639 73.4403 349.369 115.45C349.369 115.45 333.969 42.6404 366.639 37.5104C366.639 37.5104 370.369 17.9105 417.039 21.1705C463.709 24.4305 472.579 58.0406 472.579 58.0406C472.579 58.0406 486.579 69.0903 484.709 91.4903C483.689 103.8 477.199 123.53 460.129 137.22Z" fill="#120D77" stroke="#120D77" stroke-width="4" stroke-linecap="round" stroke-linejoin="round"/>
<path d="M473.511 122.29C473.511 122.29 485.061 122.759 483.161 136.909C480.981 153.089 473.161 168.029 456.091 163.359C456.091 163.359 444.581 210.959 396.041 208.159C347.501 205.359 345.321 156.159 346.571 145.309C347.821 134.459 349.371 115.449 349.371 115.449" stroke="#120D77" stroke-width="2.5" stroke-linecap="round" stroke-linejoin="round"/>
<path d="M346.34 143.8C346.34 143.8 339.03 137.26 339.47 121.17C339.72 112.28 339.29 103.83 347.15 101.49" stroke="#120D77" stroke-width="2.5" stroke-linecap="round" stroke-linejoin="round"/>
<path d="M465.42 145.94C465.42 145.94 468.84 139.4 474.75 137.22" stroke="#120D77" stroke-width="2.5" stroke-linecap="round" stroke-linejoin="round"/>
<path d="M458.819 120.44L447.68 118.561" stroke="#120D77" stroke-width="2.5" stroke-linecap="round" stroke-linejoin="round"/>
<path d="M436.73 111.09L417.39 108.6C417.39 108.6 403.21 106.541 402.88 123.751C402.55 140.961 414.49 143.141 422.88 143.751C431.27 144.361 443.439 143.421 447.059 127.881C450.809 111.711 436.73 111.09 436.73 111.09Z" stroke="#120D77" stroke-width="2.5" stroke-linecap="round" stroke-linejoin="round"/>
<path d="M379.4 104.38L362.83 101.889C362.83 101.889 350.69 99.8297 350.41 117.04C350.13 134.25 360.35 136.42 367.53 137.04C374.71 137.66 385.14 136.71 388.23 121.17C391.45 105 379.4 104.38 379.4 104.38Z" stroke="#120D77" stroke-width="2.5" stroke-linecap="round" stroke-linejoin="round"/>
<path d="M422.54 132.04C425.373 132.04 427.67 129.443 427.67 126.24C427.67 123.036 425.373 120.439 422.54 120.439C419.707 120.439 417.41 123.036 417.41 126.24C417.41 129.443 419.707 132.04 422.54 132.04Z" fill="#120D77"/>
<path d="M372.13 125.3C374.963 125.3 377.26 122.703 377.26 119.5C377.26 116.297 374.963 113.7 372.13 113.7C369.297 113.7 367 116.297 367 119.5C367 122.703 369.297 125.3 372.13 125.3Z" fill="#120D77"/>
<path d="M405.56 113.7L387.779 110.51" stroke="#120D77" stroke-width="2.5" stroke-linecap="round" stroke-linejoin="round"/>
<path d="M391.27 124.57L383.39 140.85C383.39 140.85 379.55 148.63 386.5 152.26C393.76 156.06 399.67 153.2 399.67 153.2" stroke="#120D77" stroke-width="2.5" stroke-linecap="round" stroke-linejoin="round"/>
<path d="M451.139 175.92C451.139 175.92 448.199 186.69 450.279 201.63" stroke="#120D77" stroke-width="2.5" stroke-linecap="round" stroke-linejoin="round"/>
<path d="M373.74 202.46C373.74 202.46 375.82 224.08 398.42 234.74C398.42 234.74 377.27 257.12 372.91 268.95C372.91 268.95 360.47 219.88 373.74 202.46Z" stroke="#120D77" stroke-width="2.5" stroke-linecap="round" stroke-linejoin="round"/>
<path d="M398.42 234.74C398.42 234.74 419.78 255.74 425.28 268.95C425.28 268.95 447.28 235.02 450.34 202.46C450.34 202.46 430.99 231.91 398.42 234.74Z" stroke="#120D77" stroke-width="2.5" stroke-linecap="round" stroke-linejoin="round"/>
<path d="M467.291 301.4C467.291 301.4 495.69 215.11 451.41 191.88" stroke="#120D77" stroke-width="7" stroke-linecap="round" stroke-linejoin="round"/>
<path d="M369.589 203.27C369.589 203.27 331.43 226.93 333.71 291.27" stroke="#120D77" stroke-width="7" stroke-linecap="round" stroke-linejoin="round"/>
<path d="M474.181 253.699L451.181 260.119L458.861 274.739C458.861 274.739 425.641 313.009 398.461 333.339" stroke="#120D77" stroke-width="2.5" stroke-linecap="round" stroke-linejoin="round"/>
<path d="M388.78 337.07C388.78 337.07 357.57 299.07 345.78 274.74L355.11 259.74L338.91 248.8" stroke="#120D77" stroke-width="2.5" stroke-linecap="round" stroke-linejoin="round"/>
<path d="M425.281 268.949C425.281 268.949 407.551 309.069 383.051 346.799L380.711 411.139" stroke="#120D77" stroke-width="2.5" stroke-linecap="round" stroke-linejoin="round"/>
<path d="M465.42 337.701C475.102 337.701 482.951 329.852 482.951 320.17C482.951 310.489 475.102 302.641 465.42 302.641C455.739 302.641 447.891 310.489 447.891 320.17C447.891 329.852 455.739 337.701 465.42 337.701Z" stroke="#120D77" stroke-width="9" stroke-linecap="round" stroke-linejoin="round"/>
<path d="M465.419 327.91C469.694 327.91 473.16 324.444 473.16 320.169C473.16 315.895 469.694 312.43 465.419 312.43C461.145 312.43 457.68 315.895 457.68 320.169C457.68 324.444 461.145 327.91 465.419 327.91Z" fill="#120D77" stroke="#120D77" stroke-width="4" stroke-linecap="round" stroke-linejoin="round"/>
<path d="M312.67 336.45C312.67 311.45 322.09 291.23 333.67 291.23C345.25 291.23 354.67 311.48 354.67 336.45" stroke="#120D77" stroke-width="7" stroke-linecap="round" stroke-linejoin="round"/>
<path d="M323.19 382.199C320.989 382.674 318.742 382.912 316.49 382.909" stroke="#120D77" stroke-width="7" stroke-linecap="round" stroke-linejoin="round"/>
<path d="M344.23 382.199C346.432 382.674 348.678 382.912 350.93 382.909" stroke="#120D77" stroke-width="7" stroke-linecap="round" stroke-linejoin="round"/>
<path d="M354.75 336.449C354.75 359.339 341.12 378.359 323.19 382.199C320.989 382.674 318.742 382.912 316.49 382.909" stroke="#120D77" stroke-width="3" stroke-linecap="round" stroke-linejoin="round"/>
<path d="M312.67 336.449C312.67 359.339 326.29 378.359 344.23 382.199C346.432 382.674 348.677 382.912 350.93 382.909" stroke="#120D77" stroke-width="3" stroke-linecap="round" stroke-linejoin="round"/>
<path d="M397.541 363.1C399.457 363.1 401.01 361.546 401.01 359.63C401.01 357.713 399.457 356.16 397.541 356.16C395.624 356.16 394.07 357.713 394.07 359.63C394.07 361.546 395.624 363.1 397.541 363.1Z" stroke="#120D77" stroke-width="2.5" stroke-linecap="round" stroke-linejoin="round"/>
<path d="M522.88 259.5C522.88 259.5 488.18 265.33 493.78 410.73" stroke="#120D77" stroke-width="2.5" stroke-linecap="round" stroke-linejoin="round"/>
<path d="M467.629 210.99C467.629 210.99 496.339 222.8 517.689 234.74C533.759 243.74 573.749 260.61 556.529 411.82" stroke="#120D77" stroke-width="2.5" stroke-linecap="round" stroke-linejoin="round"/>
<path d="M372.91 268.949C372.91 268.949 380.75 308.299 393.12 330.569" stroke="#120D77" stroke-width="2.5" stroke-linecap="round" stroke-linejoin="round"/>
<path d="M413.509 251.291L405.559 265.93L409.389 301.4L393.119 330.57C393.119 330.57 384.439 312.99 380.379 298.32L390.999 266.14L384.999 250.25L398.419 234.74C398.419 234.74 409.189 245.801 413.509 251.291Z" fill="#120D77"/>
<path d="M355.579 215.8C355.579 215.8 340.129 223.98 326.279 231.1" stroke="#120D77" stroke-width="2.5" stroke-linecap="round" stroke-linejoin="round"/>
<path d="M412.559 97.9806C412.559 97.9806 427.179 94.2406 436.199 103.271" stroke="#120D77" stroke-width="2.5" stroke-linecap="round" stroke-linejoin="round"/>
<path d="M378.82 92.95C378.82 92.95 365.75 87.35 356.42 95.95" stroke="#120D77" stroke-width="2.5" stroke-linecap="round" stroke-linejoin="round"/>
<path d="M420.26 161.85C420.26 161.85 401.38 171.85 372.34 161.85C374.456 163.547 376.099 165.762 377.11 168.28C378.56 172.22 383.71 181.6 396.3 180.28C410.51 178.83 414.38 168.49 416.66 163.28" stroke="#120D77" stroke-width="2.5" stroke-linecap="round" stroke-linejoin="round"/>
<path d="M418.59 158.74L422.74 164.98" stroke="#120D77" stroke-width="2.5" stroke-linecap="round" stroke-linejoin="round"/>
<path d="M289.369 234.54C289.369 234.54 292.639 228.48 295.749 223.65C298.859 218.82 305.289 220.65 305.289 220.65C305.289 220.65 319.089 224.23 322.199 226.4C325.309 228.57 329.199 233.56 325.619 237.92C322.039 242.28 315.969 237.71 313.019 235.69C310.069 233.67 303.369 232.94 302.749 233.69C302.129 234.44 298.859 244.89 300.749 250.49C302.639 256.09 309.618 261.22 313.348 259.98C317.078 258.74 321.599 253.599 321.909 248.309C322.219 243.019 327.819 235.86 329.679 236.02C331.539 236.18 333.729 247.53 333.729 251.42C333.729 255.31 331.859 262.15 331.859 262.15C329.437 270.173 326.098 277.891 321.909 285.15C315.219 296.5 306.189 298.369 306.189 298.369V305.8C306.189 305.8 282.959 318.399 270.259 299.579C271.189 290.239 255.168 247.93 254.078 243.73C252.988 239.53 249.718 228.95 254.078 225.84C258.438 222.73 264.619 229.619 264.619 229.619" stroke="#120D77" stroke-width="2.5" stroke-linecap="round" stroke-linejoin="round"/>
<path d="M289.369 242.939C289.369 242.939 287.369 217.589 287.659 211.519C287.949 205.449 288.129 189.579 280.969 188.809C273.809 188.039 274.909 206.069 276.459 224.899C278.009 243.729 280.049 246.799 280.049 246.799" stroke="#120D77" stroke-width="2.5" stroke-linecap="round" stroke-linejoin="round"/>
<path d="M276.049 219.27C276.049 219.27 272.139 200.629 263.579 202.339C255.019 204.049 271.819 254.459 271.819 254.459" stroke="#120D77" stroke-width="2.5" stroke-linecap="round" stroke-linejoin="round"/>
<path d="M270.239 299.569C270.239 299.569 266.819 297.57 264.239 302.52C263.031 304.669 261.985 306.905 261.109 309.209C261.109 309.209 263.619 326.709 280.889 329.829C298.159 332.949 308.42 321.889 309.04 318.829C309.66 315.769 312.039 303.659 306.159 305.759" stroke="#120D77" stroke-width="2.5" stroke-linecap="round" stroke-linejoin="round"/>
<path d="M261.12 309.21C261.12 309.21 252.82 326.79 247.22 343.13C241.62 359.47 224.22 406.13 265.22 410.49C306.22 414.85 308.31 359.85 308.31 359.85C308.31 359.85 312.98 320.73 309.01 318.85" stroke="#120D77" stroke-width="2.5" stroke-linecap="round" stroke-linejoin="round"/>
<path d="M305.73 411.161V376.32" stroke="#120D77" stroke-width="2.5" stroke-linecap="round" stroke-linejoin="round"/>
<path d="M268.54 299.189C266.959 296.451 264.684 294.178 261.946 292.598C259.207 291.018 256.101 290.187 252.939 290.189H124.77C119.996 290.189 115.417 292.086 112.042 295.461C108.666 298.837 106.77 303.416 106.77 308.189V393.189C106.77 397.963 108.666 402.542 112.042 405.917C115.417 409.293 119.996 411.189 124.77 411.189H270.949" stroke="#120D77" stroke-width="2.5" stroke-linecap="round" stroke-linejoin="round"/>
<path d="M142.379 290.17H100.049C96.1744 290.178 92.4608 291.723 89.7236 294.465C86.9865 297.208 85.4492 300.925 85.4492 304.8V396.55C85.4519 400.428 86.9944 404.147 89.7378 406.888C92.4812 409.63 96.2007 411.17 100.079 411.17H142.379" stroke="#120D77" stroke-width="2.5" stroke-linecap="round" stroke-linejoin="round"/>
<path d="M198.569 253.699H164.739C158.808 253.702 153.12 256.06 148.927 260.255C144.734 264.45 142.379 270.138 142.379 276.069V290.169H220.929V276.069C220.929 270.138 218.573 264.45 214.38 260.255C210.187 256.06 204.5 253.702 198.569 253.699Z" stroke="#120D77" stroke-width="2.5" stroke-linecap="round" stroke-linejoin="round"/>
<path d="M196.899 267.1H166.409C163.863 267.1 161.421 268.111 159.621 269.912C157.82 271.712 156.809 274.154 156.809 276.7V290.17H206.499V276.7C206.499 274.154 205.487 271.712 203.687 269.912C201.887 268.111 199.445 267.1 196.899 267.1Z" stroke="#120D77" stroke-width="2.5" stroke-linecap="round" stroke-linejoin="round"/>
<path d="M203.05 332.99V317.09C203.05 316.294 202.734 315.531 202.171 314.968C201.608 314.406 200.845 314.09 200.05 314.09H181.33C180.534 314.09 179.771 314.406 179.208 314.968C178.646 315.531 178.33 316.294 178.33 317.09V332.99C178.33 333.785 178.014 334.549 177.451 335.111C176.889 335.674 176.125 335.99 175.33 335.99H159.43C158.634 335.99 157.871 336.306 157.309 336.869C156.746 337.431 156.43 338.194 156.43 338.99V357.8C156.43 358.595 156.746 359.358 157.309 359.921C157.871 360.484 158.634 360.8 159.43 360.8H175.33C176.125 360.8 176.889 361.116 177.451 361.679C178.014 362.241 178.33 363.004 178.33 363.8V379.7C178.33 380.495 178.646 381.259 179.208 381.821C179.771 382.384 180.534 382.7 181.33 382.7H200.05C200.845 382.7 201.608 382.384 202.171 381.821C202.734 381.259 203.05 380.495 203.05 379.7V363.8C203.05 363.004 203.366 362.241 203.929 361.679C204.491 361.116 205.254 360.8 206.05 360.8H221.96C222.756 360.8 223.518 360.484 224.081 359.921C224.644 359.358 224.96 358.595 224.96 357.8V339.08C224.96 338.284 224.644 337.521 224.081 336.958C223.518 336.396 222.756 336.08 221.96 336.08H206.05C205.648 336.08 205.25 336 204.88 335.843C204.51 335.687 204.176 335.458 203.896 335.169C203.616 334.881 203.397 334.54 203.252 334.166C203.107 333.791 203.038 333.391 203.05 332.99Z" stroke="#120D77" stroke-width="2.5" stroke-linecap="round" stroke-linejoin="round"/>
<path d="M601.96 411.16H1.32031" stroke="#120D77" stroke-width="2.5" stroke-linecap="round" stroke-linejoin="round"/>
<path d="M36.3029 54.46L38.5553 50.6309H45.5378L35.6272 66.9608V77.3594H29.2829V66.9608L19.2598 50.6309H26.4299L28.7574 54.4975C29.5833 55.9991 30.259 57.1253 30.7095 57.8761C30.8972 58.2515 31.1224 58.702 31.4227 59.19C31.723 59.7156 31.9483 60.091 32.136 60.3913C32.2861 60.6916 32.4363 60.9544 32.5865 61.1421C33.9754 58.5894 35.2143 56.337 36.3029 54.46ZM51.267 77.8099C48.1887 77.8099 45.7111 76.9089 43.8716 75.0319C41.9946 73.1924 41.0937 70.7523 41.0937 67.6741C41.0937 64.5958 41.9946 62.1557 43.8716 60.2787C45.6736 58.4768 48.1512 57.5383 51.267 57.5383C54.3453 57.5383 56.8229 58.4768 58.6624 60.2787C60.4643 62.1181 61.4028 64.5958 61.4028 67.6741C61.4028 70.7523 60.4643 73.23 58.6624 75.0319C56.7854 76.9089 54.3453 77.8099 51.267 77.8099ZM51.267 73.1174C52.6185 73.1174 53.632 72.6669 54.3828 71.7284C55.0961 70.8274 55.4715 69.476 55.4715 67.6741C55.4715 65.9097 55.0961 64.5582 54.3828 63.6197C53.632 62.7188 52.6185 62.2308 51.267 62.2308C49.878 62.2308 48.8269 62.7188 48.1137 63.6197C47.3629 64.5582 47.025 65.9097 47.025 67.6741C47.025 69.476 47.3629 70.8274 48.1137 71.7284C48.8269 72.6669 49.878 73.1174 51.267 73.1174ZM76.2358 68.8003V57.9887H82.092V77.3594H76.386V74.619C74.8844 76.7587 72.8572 77.8099 70.3045 77.8099C68.2398 77.8099 66.588 77.2092 65.3867 75.9704C64.1855 74.7316 63.5848 72.9672 63.5848 70.6773V57.9887H69.4411V69.5135C69.4411 71.7284 70.4546 72.817 72.5569 72.817C73.608 72.817 74.4714 72.4792 75.1847 71.7659C75.8604 71.0902 76.2358 70.0766 76.2358 68.8003ZM84.6547 56.5998V50.6684H90.7738V57.0502C90.7738 60.6165 88.9718 62.4185 85.4431 62.4935H84.6547V59.5279H85.4806C86.6444 59.4903 87.245 58.702 87.245 57.2004V56.5998H84.6547ZM104.431 57.6884C104.506 57.6884 104.956 57.726 105.707 57.7635V63.0942H104.205C100.752 63.0942 99.0625 64.8586 99.0625 68.3498V77.3594H93.2062V57.9887H98.9123V61.5926C99.8133 59.0023 101.653 57.6884 104.431 57.6884ZM126.54 68.2372V69.4009H112.2C112.387 70.7523 112.875 71.7659 113.664 72.4416C114.415 73.1549 115.428 73.4928 116.629 73.4928C118.506 73.4928 119.82 72.7795 120.534 71.3154H126.09C125.564 73.3426 124.438 74.9193 122.748 76.083C121.022 77.2468 118.994 77.8099 116.629 77.8099C113.626 77.8099 111.186 76.9089 109.347 75.0319C107.47 73.1924 106.569 70.7523 106.569 67.6741C106.569 64.5958 107.47 62.1557 109.309 60.3162C111.111 58.4768 113.514 57.5383 116.554 57.5383C119.558 57.5383 121.96 58.5143 123.837 60.4288C125.639 62.3809 126.54 65.0087 126.54 68.2372ZM116.479 61.8554C114.077 61.8554 112.65 63.1317 112.237 65.6844H120.796C120.571 64.4832 120.121 63.5447 119.37 62.8689C118.619 62.1932 117.643 61.8554 116.479 61.8554Z" fill="#120D77"/>
<path d="M29.0952 122.973C26.017 122.973 23.7646 122.448 22.263 121.397C20.7614 120.345 19.9355 118.619 19.7853 116.254H25.4914C25.5665 117.305 25.9043 118.018 26.4674 118.431C27.0305 118.881 27.9315 119.069 29.2079 119.069C31.3852 119.069 32.4738 118.468 32.4738 117.192C32.4738 116.591 32.2111 116.141 31.7606 115.841C31.2726 115.54 30.4091 115.278 29.1328 115.052L26.6176 114.639C22.263 113.964 20.0856 112.012 20.0856 108.708C20.0856 106.756 20.8364 105.254 22.338 104.203C23.8396 103.152 25.9794 102.589 28.7949 102.589C34.5761 102.589 37.5793 104.804 37.8045 109.234H32.3612C32.3237 107.432 31.1224 106.493 28.7949 106.493C26.8053 106.493 25.8293 107.131 25.8293 108.333C25.8293 108.896 26.0545 109.309 26.505 109.609C26.9555 109.909 27.6687 110.135 28.6448 110.285L31.5353 110.698C33.8628 111.073 35.5521 111.711 36.6783 112.687C37.767 113.663 38.3301 115.015 38.3301 116.704C38.3301 118.731 37.5042 120.27 35.89 121.359C34.2758 122.448 32.0234 122.973 29.0952 122.973ZM53.1033 113.851V103.04H58.9595V122.41H53.2534V119.67C51.7518 121.81 49.7247 122.861 47.1719 122.861C45.1072 122.861 43.4555 122.26 42.2542 121.021C41.0529 119.782 40.4523 118.018 40.4523 115.728V103.04H46.3085V114.564C46.3085 116.779 47.3221 117.868 49.4243 117.868C50.4755 117.868 51.3389 117.53 52.0521 116.817C52.7279 116.141 53.1033 115.127 53.1033 113.851ZM71.4981 122.861C68.4574 122.861 66.0548 121.96 64.2529 120.083C62.451 118.243 61.55 115.803 61.55 112.725C61.55 109.647 62.451 107.169 64.2529 105.329C66.0548 103.528 68.4574 102.589 71.4981 102.589C74.1259 102.589 76.3033 103.302 77.9926 104.691C79.6819 106.08 80.6579 107.957 80.9582 110.322H75.1395C74.8017 108.37 73.6004 107.357 71.4981 107.357C68.7953 107.357 67.4814 109.159 67.4814 112.725C67.4814 116.291 68.7953 118.056 71.4981 118.056C73.7505 118.056 74.9894 116.967 75.2521 114.79H81.0708C80.8831 117.267 79.9071 119.219 78.1803 120.683C76.4159 122.147 74.201 122.861 71.4981 122.861ZM92.5777 122.861C89.537 122.861 87.1344 121.96 85.3325 120.083C83.5306 118.243 82.6296 115.803 82.6296 112.725C82.6296 109.647 83.5306 107.169 85.3325 105.329C87.1344 103.528 89.537 102.589 92.5777 102.589C95.2055 102.589 97.3829 103.302 99.0722 104.691C100.761 106.08 101.737 107.957 102.038 110.322H96.2191C95.8813 108.37 94.68 107.357 92.5777 107.357C89.8749 107.357 88.561 109.159 88.561 112.725C88.561 116.291 89.8749 118.056 92.5777 118.056C94.8301 118.056 96.069 116.967 96.3317 114.79H102.15C101.963 117.267 100.987 119.219 99.2599 120.683C97.4955 122.147 95.2806 122.861 92.5777 122.861ZM123.681 113.288V114.452H109.34C109.528 115.803 110.016 116.817 110.804 117.492C111.555 118.206 112.569 118.544 113.77 118.544C115.647 118.544 116.961 117.83 117.674 116.366H123.23C122.704 118.393 121.578 119.97 119.889 121.134C118.162 122.298 116.135 122.861 113.77 122.861C110.767 122.861 108.327 121.96 106.487 120.083C104.61 118.243 103.709 115.803 103.709 112.725C103.709 109.647 104.61 107.206 106.45 105.367C108.252 103.528 110.654 102.589 113.695 102.589C116.698 102.589 119.101 103.565 120.978 105.48C122.78 107.432 123.681 110.059 123.681 113.288ZM113.62 106.906C111.217 106.906 109.791 108.182 109.378 110.735H117.937C117.712 109.534 117.261 108.595 116.51 107.92C115.76 107.244 114.784 106.906 113.62 106.906ZM134.64 122.973C131.562 122.973 129.309 122.448 127.808 121.397C126.306 120.345 125.48 118.619 125.33 116.254H131.036C131.111 117.305 131.449 118.018 132.012 118.431C132.575 118.881 133.476 119.069 134.752 119.069C136.93 119.069 138.018 118.468 138.018 117.192C138.018 116.591 137.756 116.141 137.305 115.841C136.817 115.54 135.954 115.278 134.677 115.052L132.162 114.639C127.808 113.964 125.63 112.012 125.63 108.708C125.63 106.756 126.381 105.254 127.883 104.203C129.384 103.152 131.524 102.589 134.34 102.589C140.121 102.589 143.124 104.804 143.349 109.234H137.906C137.868 107.432 136.667 106.493 134.34 106.493C132.35 106.493 131.374 107.131 131.374 108.333C131.374 108.896 131.599 109.309 132.05 109.609C132.5 109.909 133.213 110.135 134.189 110.285L137.08 110.698C139.407 111.073 141.097 111.711 142.223 112.687C143.312 113.663 143.875 115.015 143.875 116.704C143.875 118.731 143.049 120.27 141.435 121.359C139.82 122.448 137.568 122.973 134.64 122.973ZM154.766 122.973C151.688 122.973 149.436 122.448 147.934 121.397C146.432 120.345 145.607 118.619 145.456 116.254H151.162C151.238 117.305 151.575 118.018 152.138 118.431C152.702 118.881 153.603 119.069 154.879 119.069C157.056 119.069 158.145 118.468 158.145 117.192C158.145 116.591 157.882 116.141 157.432 115.841C156.944 115.54 156.08 115.278 154.804 115.052L152.289 114.639C147.934 113.964 145.757 112.012 145.757 108.708C145.757 106.756 146.507 105.254 148.009 104.203C149.511 103.152 151.65 102.589 154.466 102.589C160.247 102.589 163.25 104.804 163.476 109.234H158.032C157.995 107.432 156.793 106.493 154.466 106.493C152.476 106.493 151.5 107.131 151.5 108.333C151.5 108.896 151.726 109.309 152.176 109.609C152.626 109.909 153.34 110.135 154.316 110.285L157.206 110.698C159.534 111.073 161.223 111.711 162.349 112.687C163.438 113.663 164.001 115.015 164.001 116.704C164.001 118.731 163.175 120.27 161.561 121.359C159.947 122.448 157.694 122.973 154.766 122.973ZM177.498 100.036H175.921C174.345 100.036 173.594 100.75 173.594 102.101V103.04H177.423V107.319H173.594V122.41H167.738V107.319H164.847V103.04H167.738V101.913C167.738 99.9612 168.301 98.4221 169.464 97.2584C170.628 96.1322 172.392 95.5315 174.72 95.5315C175.583 95.5315 176.522 95.6066 177.498 95.6817V100.036ZM192.485 113.851V103.04H198.341V122.41H192.635V119.67C191.134 121.81 189.107 122.861 186.554 122.861C184.489 122.861 182.837 122.26 181.636 121.021C180.435 119.782 179.834 118.018 179.834 115.728V103.04H185.69V114.564C185.69 116.779 186.704 117.868 188.806 117.868C189.857 117.868 190.721 117.53 191.434 116.817C192.11 116.141 192.485 115.127 192.485 113.851ZM207.577 122.41H201.72V95.6817H207.577V122.41ZM216.852 122.41H210.995V95.6817H216.852V122.41ZM232.101 105.817L232.964 103.04H239.008L231.988 123.161C231.087 125.676 229.998 127.403 228.647 128.341C227.221 129.318 225.118 129.806 222.34 129.806C221.852 129.806 221.102 129.806 220.05 129.73V125.226H221.927C223.879 125.226 224.856 124.325 224.856 122.523C224.856 121.734 224.555 120.496 223.955 118.769L218.399 103.04H224.705L225.569 105.78C226.808 109.984 227.896 114.076 228.872 117.98C229.848 113.926 230.899 109.872 232.101 105.817Z" fill="#120D77"/>
<path d="M32.1735 147.788C32.2486 147.788 32.6991 147.826 33.4499 147.863V153.194H31.9483C28.4946 153.194 26.8053 154.958 26.8053 158.449V167.459H20.9491V148.088H26.6551V151.692C27.5561 149.102 29.3956 147.788 32.1735 147.788ZM54.2828 158.337V159.501H39.9425C40.1302 160.852 40.6183 161.866 41.4066 162.541C42.1574 163.255 43.171 163.592 44.3723 163.592C46.2493 163.592 47.5632 162.879 48.2764 161.415H53.8323C53.3068 163.442 52.1806 165.019 50.4913 166.183C48.7644 167.346 46.7373 167.909 44.3723 167.909C41.3691 167.909 38.929 167.009 37.0895 165.132C35.2125 163.292 34.3115 160.852 34.3115 157.774C34.3115 154.695 35.2125 152.255 37.052 150.416C38.8539 148.576 41.2564 147.638 44.2972 147.638C47.3004 147.638 49.7029 148.614 51.5799 150.528C53.3819 152.481 54.2828 155.108 54.2828 158.337ZM44.2221 151.955C41.8195 151.955 40.393 153.231 39.9801 155.784H48.5392C48.314 154.583 47.8635 153.644 47.1127 152.969C46.3619 152.293 45.3858 151.955 44.2221 151.955ZM70.4995 150.641V148.088H76.2056V166.858C76.2056 169.486 75.3046 171.551 73.5778 173.052C71.851 174.554 69.4109 175.267 66.295 175.267C63.4045 175.267 61.1521 174.667 59.5378 173.39C57.8861 172.114 57.0227 170.387 56.91 168.172H62.6912C62.8414 169.974 64.0802 170.875 66.4077 170.875C67.684 170.875 68.6601 170.575 69.3358 169.899C70.0115 169.223 70.3494 168.285 70.3494 167.084V164.306C69.1105 166.145 67.2711 167.046 64.7934 167.046C62.2407 167.046 60.176 166.145 58.5993 164.343C57.0227 162.541 56.2343 160.214 56.2343 157.323C56.2343 154.47 56.9851 152.143 58.5618 150.303C60.1009 148.539 62.1281 147.638 64.6808 147.638C67.2711 147.638 69.2232 148.651 70.4995 150.641ZM66.295 162.354C67.6089 162.354 68.6225 161.941 69.3733 161.077C70.0866 160.214 70.462 158.975 70.462 157.323C70.462 155.709 70.0866 154.47 69.3733 153.607C68.6601 152.781 67.6465 152.33 66.295 152.33C64.9811 152.33 63.9676 152.781 63.2543 153.682C62.5035 154.583 62.1656 155.822 62.1656 157.398C62.1656 158.975 62.5035 160.214 63.2543 161.077C63.9676 161.941 64.9811 162.354 66.295 162.354ZM85.3123 145.873H79.7188V140.918H85.3123V145.873ZM85.4249 167.459H79.5687V148.088H85.4249V167.459ZM96.9899 168.022C93.9116 168.022 91.6592 167.497 90.1576 166.445C88.656 165.394 87.8301 163.667 87.6799 161.302H93.386C93.4611 162.354 93.799 163.067 94.3621 163.48C94.9252 163.93 95.8261 164.118 97.1025 164.118C99.2798 164.118 100.368 163.517 100.368 162.241C100.368 161.64 100.106 161.19 99.6552 160.889C99.1672 160.589 98.3038 160.326 97.0274 160.101L94.5122 159.688C90.1576 159.012 87.9803 157.06 87.9803 153.757C87.9803 151.805 88.7311 150.303 90.2327 149.252C91.7343 148.201 93.874 147.638 96.6895 147.638C102.471 147.638 105.474 149.853 105.699 154.282H100.256C100.218 152.481 99.017 151.542 96.6895 151.542C94.6999 151.542 93.7239 152.18 93.7239 153.381C93.7239 153.945 93.9491 154.358 94.3996 154.658C94.8501 154.958 95.5633 155.183 96.5394 155.334L99.43 155.747C101.757 156.122 103.447 156.76 104.573 157.736C105.662 158.712 106.225 160.064 106.225 161.753C106.225 163.78 105.399 165.319 103.785 166.408C102.17 167.497 99.918 168.022 96.9899 168.022ZM119.314 148.088V152.368H115.597V161.415C115.597 162.091 115.748 162.541 116.085 162.766C116.386 162.992 116.986 163.104 117.812 163.104H119.314V167.459C118.601 167.572 117.7 167.609 116.611 167.609C114.171 167.609 112.406 167.196 111.355 166.333C110.267 165.469 109.741 164.043 109.741 162.053V152.368H106.851V148.088H109.741V142.345H115.597V148.088H119.314ZM140.617 158.337V159.501H126.277C126.465 160.852 126.953 161.866 127.741 162.541C128.492 163.255 129.506 163.592 130.707 163.592C132.584 163.592 133.898 162.879 134.611 161.415H140.167C139.641 163.442 138.515 165.019 136.826 166.183C135.099 167.346 133.072 167.909 130.707 167.909C127.704 167.909 125.264 167.009 123.424 165.132C121.547 163.292 120.646 160.852 120.646 157.774C120.646 154.695 121.547 152.255 123.387 150.416C125.189 148.576 127.591 147.638 130.632 147.638C133.635 147.638 136.038 148.614 137.915 150.528C139.717 152.481 140.617 155.108 140.617 158.337ZM130.557 151.955C128.154 151.955 126.728 153.231 126.315 155.784H134.874C134.649 154.583 134.198 153.644 133.447 152.969C132.697 152.293 131.721 151.955 130.557 151.955ZM154.582 147.788C154.657 147.788 155.107 147.826 155.858 147.863V153.194H154.357C150.903 153.194 149.214 154.958 149.214 158.449V167.459H143.357V148.088H149.063V151.692C149.964 149.102 151.804 147.788 154.582 147.788ZM176.691 158.337V159.501H162.351C162.539 160.852 163.027 161.866 163.815 162.541C164.566 163.255 165.579 163.592 166.781 163.592C168.658 163.592 169.971 162.879 170.685 161.415H176.241C175.715 163.442 174.589 165.019 172.9 166.183C171.173 167.346 169.146 167.909 166.781 167.909C163.777 167.909 161.337 167.009 159.498 165.132C157.621 163.292 156.72 160.852 156.72 157.774C156.72 154.695 157.621 152.255 159.46 150.416C161.262 148.576 163.665 147.638 166.705 147.638C169.709 147.638 172.111 148.614 173.988 150.528C175.79 152.481 176.691 155.108 176.691 158.337ZM166.63 151.955C164.228 151.955 162.801 153.231 162.388 155.784H170.947C170.722 154.583 170.272 153.644 169.521 152.969C168.77 152.293 167.794 151.955 166.63 151.955ZM192.758 150.416V140.731H198.614V167.459H192.908V164.944C191.594 166.933 189.642 167.909 187.089 167.909C184.461 167.909 182.434 167.009 180.933 165.169C179.393 163.367 178.643 160.889 178.643 157.774C178.643 154.695 179.393 152.218 180.933 150.378C182.434 148.576 184.461 147.638 187.089 147.638C189.529 147.638 191.406 148.576 192.758 150.416ZM188.703 163.217C191.481 163.217 192.87 161.415 192.87 157.774C192.87 154.17 191.481 152.33 188.703 152.33C187.389 152.33 186.376 152.818 185.663 153.794C184.912 154.77 184.574 156.122 184.574 157.924C184.574 161.453 185.925 163.217 188.703 163.217Z" fill="#120D77"/>
<path d="M71.2095 210.04C71.2107 210.173 71.2447 210.304 71.3091 210.42L73.8794 214.91C74.1275 215.345 74.2578 215.838 74.2578 216.34C74.2578 216.841 74.1275 217.334 73.8794 217.77L71.3491 222.2C71.2859 222.317 71.2519 222.447 71.2495 222.58V227.73C71.2504 228.221 71.1223 228.704 70.8784 229.13C70.6345 229.557 70.2832 229.911 69.8594 230.16L65.4092 232.76C65.2968 232.832 65.2015 232.928 65.1294 233.04L62.5293 237.49C62.2535 237.96 61.8492 238.342 61.3638 238.59C60.8783 238.838 60.3322 238.942 59.7896 238.89H54.9492C54.8146 238.889 54.6828 238.928 54.5693 239L50.0693 241.56C49.6371 241.813 49.1454 241.946 48.6445 241.946C48.1436 241.946 47.6515 241.813 47.2192 241.56L42.7896 239.04C42.6754 238.969 42.5436 238.931 42.4092 238.93H37.2593C36.7677 238.927 36.2853 238.796 35.8594 238.551C35.4334 238.305 35.0783 237.953 34.8291 237.53L32.2295 233.08C32.1573 232.967 32.0616 232.872 31.9492 232.8L27.4995 230.2C27.0293 229.924 26.6475 229.52 26.3994 229.034C26.1514 228.549 26.0471 228.003 26.0991 227.46V222.62C26.0981 222.485 26.0602 222.354 25.9893 222.24L23.4292 217.75C23.1761 217.318 23.043 216.826 23.043 216.325C23.043 215.824 23.1761 215.332 23.4292 214.9L25.9492 210.46C26.0217 210.347 26.0597 210.214 26.0591 210.08V204.94C26.0614 204.447 26.1921 203.963 26.4375 203.535C26.6829 203.107 27.035 202.751 27.4595 202.5L31.9092 199.9C32.0215 199.828 32.1173 199.732 32.1895 199.62L34.7896 195.17C35.0451 194.735 35.4106 194.376 35.8496 194.128C36.2886 193.881 36.7856 193.754 37.2896 193.76H37.5293H42.3691C42.5022 193.759 42.6331 193.724 42.7495 193.66L47.2393 191.09C47.6713 190.842 48.1609 190.711 48.6592 190.711C49.1575 190.711 49.647 190.842 50.0791 191.09L54.5093 193.61C54.6227 193.682 54.7546 193.72 54.8892 193.72H60.0293C60.522 193.718 61.0065 193.845 61.4346 194.089C61.8627 194.333 62.2194 194.685 62.4692 195.11L65.0693 199.56C65.1415 199.672 65.2368 199.768 65.3491 199.84L69.7993 202.44C70.2687 202.717 70.6495 203.121 70.8975 203.606C71.1454 204.092 71.25 204.637 71.1992 205.18L71.2095 210.04Z" fill="#00CA25"/>
<path d="M57.4111 210.439L45.6709 222.18L39.8008 216.31" stroke="white" stroke-width="4" stroke-linecap="round" stroke-linejoin="round"/>
</svg>
