<svg width="15" height="17" viewBox="0 0 15 17" fill="none" xmlns="http://www.w3.org/2000/svg">
<path d="M10.3876 1.3702C10.4542 1.4146 10.5208 1.4812 10.5208 1.5922V7.1422L14.2948 6.343C14.4946 6.2986 14.5834 6.3874 14.5834 6.3874C14.7388 6.565 14.3614 7.5196 14.3614 7.5418L14.317 7.6084C14.1838 7.9414 13.984 8.3854 13.6732 8.452L10.5208 9.118V10.4056L14.2726 9.6508C14.5834 9.562 14.6056 9.6952 14.6056 9.6952C14.761 9.8506 14.3836 10.8052 14.3836 10.8274L14.3392 10.894C14.2282 11.2048 14.0062 11.671 13.7176 11.7376L8.989 12.7144C8.9224 12.781 8.8336 12.7144 8.8114 12.6922C8.767 12.67 8.6782 12.6034 8.7004 12.4924V9.4954L7.324 9.784V11.8708C7.324 12.3814 6.3916 13.7134 5.8366 13.8244L5.7256 13.8688V13.8466L0.8416 14.89C0.442 15.0232 0.4642 14.7346 0.4642 14.7346C0.442 14.4238 0.7306 13.7356 0.7306 13.7356L0.7528 13.6024C0.886 13.336 1.0858 12.892 1.3966 12.8254L5.5258 11.9374V10.1836L1.5076 11.0272C1.219 11.0938 1.219 10.8718 1.219 10.8718C1.1746 10.6054 1.441 9.8506 1.441 9.8284L1.4854 9.7618C1.6408 9.451 1.8184 8.9848 2.1514 8.9182L5.5258 8.1856V2.125C5.5258 1.792 5.9032 1.4368 6.2806 1.0816L6.3916 0.992798C6.991 0.459998 7.1464 0.548799 7.213 0.570998C7.3018 0.615399 7.324 0.704199 7.324 0.815199V7.8082L8.7004 7.5418V2.902C8.7004 2.5912 9.1 2.1916 9.4996 1.8586L9.544 1.792C10.1212 1.3258 10.2766 1.3258 10.3876 1.3702ZM8.9668 16.0444C8.7448 16.0888 8.656 16 8.656 16C8.5006 15.8002 8.9002 14.8456 8.9002 14.8456L8.9446 14.7568C9.0556 14.446 9.2554 14.002 9.5662 13.9354L14.1172 13.0252C14.4724 12.9586 14.539 13.1584 14.539 13.1584C14.539 13.4914 14.2726 14.1796 14.2726 14.1796L14.2282 14.2684C14.095 14.5792 13.9174 15.0454 13.5622 15.112L8.9668 16.0444Z" fill="#110D72"/>
</svg>
