<svg width="26" height="28" viewBox="0 0 26 28" fill="none" xmlns="http://www.w3.org/2000/svg">
<g clip-path="url(#clip0_105_5405)">
<path d="M17.7226 2.36888C17.8372 2.4453 17.9518 2.55993 17.9518 2.75098V12.3035L24.4475 10.9279C24.7914 10.8515 24.9443 11.0043 24.9443 11.0043C25.2117 11.31 24.5622 12.953 24.5622 12.9913L24.4857 13.1059C24.2565 13.679 23.9126 14.4432 23.3777 14.5579L17.9518 15.7042V17.9203L24.4093 16.6212C24.9443 16.4684 24.9825 16.6976 24.9825 16.6976C25.2499 16.9651 24.6004 18.6081 24.6004 18.6463L24.524 18.761C24.3329 19.2959 23.9508 20.0983 23.4541 20.2129L15.3153 21.8942C15.2007 22.0088 15.0479 21.8942 15.0097 21.856C14.9332 21.8178 14.7804 21.7031 14.8186 21.5121V16.3537L12.4496 16.8505V20.4422C12.4496 21.321 10.8448 23.6136 9.88954 23.8047L9.69849 23.8811V23.8429L1.29229 25.6388C0.604512 25.868 0.642722 25.3713 0.642722 25.3713C0.604512 24.8364 1.10124 23.6518 1.10124 23.6518L1.13945 23.4226C1.36871 22.9641 1.7126 22.1999 2.24754 22.0852L9.3546 20.5568V17.5382L2.43859 18.9902C1.94186 19.1049 1.94186 18.7228 1.94186 18.7228C1.86544 18.2642 2.32396 16.9651 2.32396 16.9269L2.40038 16.8123C2.66785 16.2773 2.97353 15.4749 3.54668 15.3603L9.3546 14.0993V3.66802C9.3546 3.09487 10.0042 2.48351 10.6537 1.87215L10.8448 1.71931C11.8764 0.802268 12.1439 0.955109 12.2585 0.993318C12.4114 1.06974 12.4496 1.22258 12.4496 1.41363V13.4498L14.8186 12.9913V5.00537C14.8186 4.47043 15.5064 3.78265 16.1942 3.2095L16.2706 3.09487C17.2641 2.29246 17.5315 2.29246 17.7226 2.36888ZM15.2771 27.6257C14.895 27.7021 14.7422 27.5493 14.7422 27.5493C14.4747 27.2054 15.1625 25.5623 15.1625 25.5623L15.2389 25.4095C15.43 24.8746 15.7739 24.1104 16.3088 23.9957L24.1419 22.4291C24.7532 22.3145 24.8678 22.6584 24.8678 22.6584C24.8678 23.2315 24.4093 24.416 24.4093 24.416L24.3329 24.5689C24.1036 25.1038 23.798 25.9062 23.1866 26.0209L15.2771 27.6257Z" fill="white"/>
</g>
<defs>
<clipPath id="clip0_105_5405">
<rect width="26" height="28" fill="white"/>
</clipPath>
</defs>
</svg>
