<svg width="70" height="67" viewBox="0 0 70 67" fill="none" xmlns="http://www.w3.org/2000/svg">
<path d="M31.1387 65.25H5.24902C4.31281 65.25 3.41493 64.8778 2.75293 64.2158C2.09093 63.5538 1.71875 62.6559 1.71875 61.7197V44.8799C1.71875 43.9437 2.09093 43.0458 2.75293 42.3838C3.41493 41.7218 4.31281 41.3496 5.24902 41.3496H31.1387C32.0749 41.3496 32.9728 41.7218 33.6348 42.3838C34.2968 43.0458 34.6689 43.9437 34.6689 44.8799V61.7197C34.6689 62.6559 34.2968 63.5538 33.6348 64.2158C32.9728 64.8778 32.0749 65.25 31.1387 65.25Z" fill="#4ADBC8" stroke="#1B1787" stroke-width="2" stroke-linecap="round" stroke-linejoin="round"/>
<path d="M64.9395 55.54H65.1392C66.0754 55.54 66.9733 55.1679 67.6353 54.5059C68.2973 53.8439 68.6694 52.946 68.6694 52.0098V33.46C68.6694 32.5237 68.2973 31.6259 67.6353 30.9639C66.9733 30.3019 66.0754 29.9297 65.1392 29.9297H33.9795C33.0433 29.9297 32.1454 30.3019 31.4834 30.9639C30.8214 31.6259 30.4492 32.5237 30.4492 33.46V41.3496H31.1392C31.6023 41.3483 32.061 41.4384 32.4893 41.6147C32.9175 41.7911 33.3068 42.0504 33.6348 42.3774C33.9627 42.7044 34.2229 43.0928 34.4004 43.5205C34.5779 43.9482 34.6694 44.4065 34.6694 44.8696V55.54H64.9395Z" stroke="#1B1787" stroke-width="2" stroke-linecap="round" stroke-linejoin="round"/>
<path d="M59.3291 29.9297V5.07959C59.3291 4.14338 58.9574 3.2455 58.2954 2.5835C57.6334 1.92149 56.7355 1.5498 55.7993 1.5498H13.3892C12.4547 1.55245 11.5597 1.92569 10.8999 2.5874C10.2401 3.24912 9.86914 4.14511 9.86914 5.07959V31.1699C9.86914 32.1061 10.2413 33.004 10.9033 33.666C11.5653 34.328 12.4632 34.6997 13.3994 34.6997H30.3994" stroke="#1B1787" stroke-width="2" stroke-linecap="round" stroke-linejoin="round"/>
<path d="M45.6289 44.02H42.0488C41.6271 44.02 41.2225 43.8524 40.9243 43.5542C40.6261 43.256 40.459 42.8514 40.459 42.4297V38.7998C40.459 38.3781 40.6261 37.9735 40.9243 37.6753C41.2225 37.3771 41.6271 37.21 42.0488 37.21H45.5986L45.6289 44.02Z" stroke="#1B1787" stroke-width="2" stroke-linecap="round" stroke-linejoin="round"/>
<path d="M45.6289 37.1899V44.02L58.3789 46.02V35.1299L45.6289 37.1899Z" stroke="#1B1787" stroke-width="2" stroke-linecap="round" stroke-linejoin="round"/>
<path d="M45.6289 44.0205V50.3203H49.5088L51.249 44.9204L45.6289 44.0205Z" stroke="#1B1787" stroke-width="2" stroke-linecap="round" stroke-linejoin="round"/>
<path d="M58.3789 40.29H60.0488" stroke="#1B1787" stroke-width="2" stroke-linecap="round" stroke-linejoin="round"/>
<path d="M14.6992 48.5V58L22.9995 52.9497L14.6992 48.5Z" stroke="#1B1787" stroke-width="2" stroke-linecap="round" stroke-linejoin="round"/>
<path d="M30.4478 34.6997H13.4478C12.5115 34.6997 11.6137 34.328 10.9517 33.666C10.2897 33.004 9.91797 32.1061 9.91797 31.1699V27.8799L27.5879 13.5596L47.2378 29.9297" stroke="#1B1787" stroke-width="2" stroke-linecap="round" stroke-linejoin="round"/>
<path d="M47.1899 29.9297L41.0898 24.8496L49.9497 18.1299L59.3296 24.8096V29.9297" stroke="#1B1787" stroke-width="2" stroke-linecap="round" stroke-linejoin="round"/>
<path d="M44.3893 10.52C44.3893 11.1747 44.1953 11.8146 43.8316 12.3589C43.4679 12.9032 42.9511 13.3271 42.3463 13.5776C41.7415 13.8282 41.0758 13.8938 40.4337 13.7661C39.7916 13.6384 39.2018 13.3233 38.7389 12.8604C38.276 12.3974 37.9608 11.8076 37.8331 11.1655C37.7054 10.5235 37.7711 9.85775 38.0216 9.25293C38.2721 8.64811 38.696 8.13129 39.2403 7.76758C39.7847 7.40387 40.4245 7.20996 41.0792 7.20996C41.9571 7.20996 42.7993 7.55845 43.42 8.1792C44.0408 8.79994 44.3893 9.64215 44.3893 10.52Z" fill="#4ADBC8" stroke="#1B1787" stroke-width="2" stroke-linecap="round" stroke-linejoin="round"/>
</svg>
