<svg width="165" height="148" viewBox="0 0 165 148" fill="none" xmlns="http://www.w3.org/2000/svg">
<path d="M121.555 8.00009C101.867 13.1241 80.9503 10.248 63.3753 9.06718e-05C59.7712 -0.00918136 56.2009 0.692748 52.8685 2.06552C49.5361 3.43829 46.5072 5.45493 43.9554 8.00009L42.4256 9.52988V9.68027C37.9713 14.9344 35.6558 21.6715 35.9393 28.5538C36.2227 35.4361 39.0841 41.9601 43.9554 46.8302L44.9554 47.8302L52.3655 40.4303L51.3655 39.4303C48.1901 36.2439 46.407 31.9288 46.407 27.4303C46.407 22.9318 48.1901 18.6167 51.3655 15.4303C54.552 12.2549 58.8671 10.4718 63.3655 10.4718C67.864 10.4718 72.1791 12.2549 75.3655 15.4303L60.6253 30.17L68.0252 37.5802L90.1356 15.4601C93.322 12.2846 97.6371 10.5016 102.136 10.5016C106.634 10.5016 110.949 12.2846 114.136 15.4601C117.311 18.6465 119.094 22.9616 119.094 27.4601C119.094 31.9585 117.311 36.2736 114.136 39.4601L82.7254 70.94L78.4754 66.7003L71.0755 74.1002L79.0252 82.0499C80.0075 83.0294 81.3382 83.5797 82.7254 83.5797C84.1126 83.5797 85.4433 83.0294 86.4256 82.0499L121.596 46.8702C124.147 44.3217 126.171 41.2953 127.553 37.964C128.934 34.6326 129.644 31.0615 129.644 27.4552C129.644 23.8488 128.934 20.2778 127.553 16.9464C126.171 13.615 124.147 10.5886 121.596 8.04013L121.555 8.00009Z" fill="#1B1787"/>
<path d="M105.515 31.4981C106.436 30.5046 106.936 29.1931 106.911 27.8384C106.886 26.4838 106.337 25.1912 105.38 24.2325C104.423 23.2738 103.131 22.7233 101.776 22.6964C100.422 22.6694 99.1095 23.1681 98.1147 24.088L67.0444 55.1583L56.3647 44.4781L48.9648 51.878L67.0444 69.9683L105.515 31.4981Z" fill="#57D0DC"/>
<path d="M7.95964 145.674C5.92228 144.838 4.15718 143.454 2.86003 141.674C1.59259 139.886 0.917432 137.746 0.929856 135.554H9.15984C9.17854 136.26 9.33746 136.955 9.62761 137.599C9.91776 138.243 10.3333 138.822 10.8498 139.304C12.0098 140.277 13.4981 140.771 15.0099 140.684C16.536 140.769 18.0424 140.308 19.2599 139.384C19.7582 138.974 20.1561 138.455 20.423 137.867C20.6899 137.28 20.8189 136.639 20.8 135.994C20.8191 135.479 20.736 134.966 20.5558 134.484C20.3756 134.002 20.1015 133.56 19.7497 133.184C19.0142 132.419 18.1202 131.825 17.1301 131.444C15.7112 130.902 14.2659 130.431 12.8 130.034C10.7203 129.454 8.68472 128.726 6.70964 127.854C5.13011 127.115 3.75649 125.998 2.70964 124.604C1.5144 122.906 0.923185 120.857 1.02995 118.784C0.981465 116.673 1.57796 114.597 2.73991 112.834C3.92783 111.098 5.59565 109.747 7.53972 108.944C9.77404 108.01 12.1783 107.55 14.5998 107.594C18.0602 107.437 21.4721 108.455 24.28 110.484C25.5118 111.45 26.5169 112.674 27.2253 114.07C27.9336 115.465 28.328 116.999 28.3801 118.564H19.8898C19.8642 117.928 19.7009 117.305 19.4108 116.739C19.1207 116.173 18.7107 115.676 18.2096 115.284C17.019 114.375 15.5464 113.915 14.05 113.984C12.7425 113.918 11.4556 114.33 10.4299 115.144C9.9671 115.569 9.60539 116.092 9.37175 116.675C9.13811 117.259 9.03839 117.887 9.07976 118.514C9.06332 118.986 9.14364 119.457 9.3156 119.897C9.48756 120.337 9.74753 120.738 10.0798 121.074C10.8118 121.785 11.6743 122.349 12.6198 122.734C13.6198 123.154 15.0598 123.634 16.8898 124.194C18.9803 124.779 21.0258 125.513 23.0099 126.394C24.621 127.15 26.0243 128.286 27.0998 129.704C28.3013 131.388 28.9033 133.427 28.8097 135.494C28.8147 137.518 28.2609 139.504 27.2096 141.234C26.0761 143.055 24.4501 144.518 22.5197 145.454C20.231 146.548 17.7161 147.087 15.1799 147.024C12.7066 147.068 10.2501 146.608 7.95964 145.674Z" fill="#1B1787"/>
<path d="M35.369 123.063C36.47 120.798 38.1943 118.894 40.3392 117.574C42.4842 116.255 44.9608 115.574 47.4789 115.613C49.5629 115.563 51.6259 116.038 53.4789 116.993C55.0921 117.83 56.497 119.02 57.5892 120.473V116.113H65.3592V146.663H57.5892V142.193C56.5261 143.694 55.1157 144.915 53.4789 145.753C51.627 146.714 49.5649 147.198 47.4789 147.163C45.0021 147.18 42.5725 146.486 40.4789 145.163C38.3298 143.795 36.5997 141.861 35.4789 139.573C34.2082 136.994 33.5742 134.148 33.6293 131.273C33.5431 128.437 34.1396 125.62 35.369 123.063ZM56.4691 126.563C55.7767 125.273 54.7376 124.203 53.4691 123.473C52.2528 122.771 50.8732 122.402 49.4691 122.403C48.0505 122.385 46.6545 122.759 45.434 123.482C44.2134 124.205 43.2153 125.25 42.5492 126.503C41.7678 127.973 41.3783 129.619 41.4188 131.283C41.3855 132.959 41.7745 134.616 42.5492 136.103C43.2395 137.414 44.2773 138.512 45.5492 139.273C46.7352 139.998 48.0992 140.378 49.4891 140.373C50.8933 140.373 52.2728 140.004 53.4891 139.303C54.7576 138.573 55.7968 137.503 56.4891 136.213C57.2133 134.708 57.5892 133.058 57.5892 131.388C57.5892 129.717 57.2133 128.068 56.4891 126.563H56.4691Z" fill="#1B1787"/>
<path d="M80.6201 107.625V146.625H72.9004V107.625H80.6201Z" fill="#1B1787"/>
<path d="M130.581 116.113L121.651 146.663H113.321L107.75 125.323L102.181 146.663H93.8008L84.8008 116.113H92.6309L98.0405 139.383L103.881 116.113H112.041L117.781 139.333L123.181 116.113H130.581Z" fill="#1B1787"/>
<path d="M134.641 123.063C135.739 120.797 137.46 118.892 139.604 117.573C141.748 116.253 144.224 115.573 146.741 115.613C148.825 115.562 150.889 116.037 152.741 116.993C154.355 117.831 155.759 119.02 156.851 120.473V116.113H164.631V146.663H156.851V142.193C155.788 143.694 154.378 144.915 152.741 145.753C150.89 146.716 148.828 147.2 146.741 147.163C144.265 147.176 141.837 146.483 139.741 145.163C137.594 143.793 135.864 141.859 134.741 139.573C133.467 136.995 132.832 134.148 132.891 131.273C132.803 128.435 133.404 125.618 134.641 123.063ZM155.731 126.563C155.039 125.273 154 124.203 152.731 123.473C151.515 122.771 150.135 122.403 148.731 122.403C147.311 122.387 145.915 122.761 144.693 123.484C143.471 124.207 142.471 125.251 141.801 126.503C141.02 127.973 140.63 129.619 140.671 131.283C140.638 132.959 141.027 134.616 141.801 136.103C142.495 137.413 143.532 138.509 144.801 139.273C145.991 139.998 147.358 140.379 148.751 140.373C150.186 140.384 151.597 140.002 152.831 139.269C154.065 138.536 155.075 137.479 155.751 136.213C156.475 134.708 156.852 133.058 156.852 131.388C156.852 129.717 156.475 128.068 155.751 126.563H155.731Z" fill="#1B1787"/>
</svg>
