<svg width="270" height="93" viewBox="0 0 270 93" fill="none" xmlns="http://www.w3.org/2000/svg">
<path d="M151.4 8.89268C153.22 9.97268 155.49 10.6527 157.4 11.8927C161.4 14.3927 164.17 17.9826 167.02 21.5826C168.33 23.2326 168.86 23.393 169.68 25.503C171.2 29.433 172.03 34.2128 169.94 38.2228C169.449 38.8905 168.914 39.5252 168.34 40.1227C166.73 42.3827 165.71 44.353 163.51 46.213C163.36 46.333 163.1 46.3428 162.95 46.4928C162.8 46.6428 162.78 47.0127 162.6 47.1227C162.42 47.2327 162.12 47.1228 161.91 47.2628C159.62 48.4628 157.15 49.323 154.91 50.463C151.72 52.083 148.98 52.5629 145.91 53.9029C145.56 54.0529 143.65 54.9028 144.02 55.3028C144.79 55.4228 145.31 55.843 146.1 55.963C147.85 56.1431 149.611 56.2029 151.37 56.1427C152.6 56.0927 154.37 55.433 155.37 56.483C155.518 56.6338 155.632 56.8143 155.705 57.0128C155.778 57.2113 155.808 57.423 155.793 57.6339C155.778 57.8448 155.719 58.0504 155.618 58.2364C155.517 58.4225 155.378 58.5849 155.21 58.713C154.07 59.363 153.87 59.9329 153.04 60.8829C152.89 61.0529 151.39 62.4029 151.58 62.5729C152.9 62.5729 154.04 61.7228 155.22 61.2428C158.595 59.754 162.07 58.5045 165.62 57.503C166.43 57.303 168.62 56.3827 169.05 57.6427C169.79 59.8527 167.52 60.5726 166.42 62.0826C166.6 62.7926 167.15 62.2627 167.5 62.1827C169.165 61.6773 170.795 61.0628 172.38 60.3429C172.93 60.1329 173.61 60.0727 174.15 59.8727C178.32 58.2827 182.83 55.3328 187.35 55.3028C188.357 55.2324 189.356 55.5308 190.16 56.1427C190.515 57.0147 190.515 57.9909 190.16 58.8629L190.51 59.213L196.58 56.7428C197.83 56.4828 199 55.9729 200.21 55.6129C201.285 55.2013 202.402 54.9064 203.54 54.733C205.37 54.733 204.92 57.2127 204.03 58.1627C204.03 58.7327 206.16 58.0428 206.49 57.9728C211.02 57.1028 215.55 55.8628 220.19 55.7228C221.318 55.5698 222.463 55.6037 223.58 55.8229C223.93 56.0467 224.264 56.2936 224.58 56.5626C224.97 57.2026 224.2 58.7626 224.65 59.2926C224.92 59.5926 225.84 59.2926 226.26 59.2926C229.075 59.0311 231.869 58.57 234.62 57.9127C241.53 56.6127 248.69 55.3928 255.76 54.2828C257.25 54.0428 258.21 53.8828 259.76 53.7628C260.29 53.7628 261.21 53.1427 261.38 53.8927H261.58C261.83 53.7527 261.92 53.303 262.16 53.213C263.076 53.0554 264.001 52.9518 264.93 52.9029C266.12 52.7029 267.4 52.3527 268.57 52.2027C268.729 52.1606 268.897 52.159 269.057 52.1974C269.218 52.2358 269.366 52.3132 269.49 52.423C269.49 52.683 267.92 52.9128 267.71 53.0128C267.043 53.4521 266.337 53.8272 265.6 54.1329C264.71 54.3629 264.74 53.9127 264.6 53.8927C264.039 53.9258 263.489 54.0651 262.98 54.3028C262.68 54.5028 262.75 55.0629 261.98 54.8429C261.72 54.7729 261.65 54.3927 261.32 54.4527C261.32 55.0827 260.64 55.523 260.47 54.733L259.56 55.4127C258.56 54.7627 258.36 55.7726 257.88 55.8526C257.4 55.9326 257.19 55.7431 256.83 55.7731C256.172 55.9186 255.532 56.1328 254.92 56.4127C254.59 56.4827 254.14 56.2331 253.71 56.2731C253.28 56.3131 252.89 56.6627 252.56 56.6827C252.23 56.7027 252.03 56.5026 251.74 56.5426C251.45 56.5826 250.9 57.2428 249.89 57.2428C249.31 57.2428 249.36 56.5731 248.77 57.5231C248.51 57.6031 248.25 57.1728 247.83 57.2428C247.83 57.2428 247.55 57.7131 247.22 57.7731C246.89 57.8331 246.41 57.5026 246.15 57.5626C245.89 57.6226 245.8 57.8728 245.46 57.9728C242.83 58.7628 239.46 59.1127 236.77 59.6427C233.023 60.5378 229.231 61.2322 225.41 61.7228C223.83 61.8528 221.46 60.6328 222.01 58.7228C222.08 58.5028 223.01 57.6129 222.31 57.3829C221.494 57.2681 220.666 57.2681 219.85 57.3829C216.33 57.6558 212.868 58.4339 209.57 59.693L202.71 60.9527C202.037 60.6647 201.458 60.1936 201.04 59.5929C200.84 58.7329 201.59 58.1927 201.66 57.6627C201.8 56.7427 200.86 57.6628 200.49 57.7628C199.49 58.1028 197.95 58.5729 196.94 58.8229C196.244 58.9407 195.569 59.1634 194.94 59.483C192.8 60.563 190.56 61.363 188.4 62.483C187.4 62.993 185.67 64.713 184.93 62.713C184.33 61.083 186.1 60.783 186.43 59.463C185.6 59.253 185.69 59.6629 185.36 59.8629C184.16 60.6229 182.88 61.3627 181.8 62.1827C180.543 63.0049 179.125 63.5475 177.64 63.7731C177.131 63.6986 176.634 63.5607 176.16 63.3629C175.36 62.9529 175.52 61.5327 174.07 61.8727C173.77 61.9427 173.56 62.2226 173.27 62.3326C171.84 62.8926 170.43 63.5326 169.01 64.0826C166.26 65.0826 163.4 65.6627 160.96 67.3727C158.52 69.0827 156.16 71.9726 154.03 74.2926C150.6 78.0126 147.51 81.9829 143.73 85.4029C142.28 86.7129 140.93 88.4029 139.31 89.6529C138.59 90.2129 137.56 90.7826 136.8 91.3526C136.46 91.6126 136.18 92.0926 135.8 92.3526C134.56 93.0826 133 92.4627 133.24 90.9127C133.643 89.8372 134.166 88.8106 134.8 87.8526C136.204 85.8789 137.759 84.0169 139.45 82.2828C143.534 77.4923 148.102 73.1359 153.08 69.2828C154.94 67.9128 158.58 66.5027 160.08 65.1827C160.3 64.9827 160.55 64.4627 160.82 64.1827C161.65 63.3127 162.75 62.3428 163.62 61.5328C164.03 61.1528 164.79 60.8527 164.74 60.2027C164.626 60.1931 164.513 60.1931 164.4 60.2027C162.843 60.589 161.334 61.1458 159.9 61.8629C157.31 62.8629 154.59 64.1329 151.95 64.8629C151.78 64.8629 151.69 65.1227 151.58 65.1427C151.243 65.2846 150.874 65.3318 150.513 65.2789C150.152 65.226 149.811 65.0753 149.53 64.8429C149.153 64.6992 148.835 64.4348 148.625 64.0909C148.415 63.7471 148.326 63.3434 148.37 62.943C148.48 61.643 152.21 58.6129 152.14 58.3229C152.07 58.0329 151.84 58.1527 151.69 58.1427C150.41 58.1427 148.64 58.2327 147.45 58.1427C146.581 58.0281 145.719 57.8611 144.87 57.6427C143.737 57.5086 142.702 56.9337 141.99 56.0426C140.92 54.9626 140.91 54.3329 142.13 53.3829C143.5 52.3129 146.43 51.563 148.22 50.923C152.15 49.6358 155.996 48.1093 159.74 46.3526C163.19 44.5726 168.48 37.4927 169.19 33.7027C169.77 30.6027 168.43 25.7728 166.56 23.2428C160.66 15.2428 154.86 10.7228 144.78 9.24278C144.46 9.24278 144.09 9.29278 143.84 9.24278C143.59 9.19278 143.69 8.97294 143.6 8.90294C143.2 8.64294 142.6 8.58305 142.87 8.02305C143.18 7.24305 144.22 7.3627 144.94 7.4127C146.486 7.645 148 8.0578 149.45 8.64268C150.106 8.66689 150.759 8.75057 151.4 8.89268ZM180.98 59.8927C180.301 59.9865 179.631 60.1404 178.98 60.3526C178.6 60.4826 178.32 60.6128 177.85 60.7628C177.38 60.9128 177.07 61.6229 177.85 61.5729C178.827 61.2283 179.786 60.8311 180.72 60.3829C180.86 60.2529 180.98 60.1327 180.98 59.8927ZM151.72 73.463C151.58 73.333 150.57 74.0227 150.39 74.1627C146.14 77.2927 142.09 82.2127 138.64 86.1627C138.22 86.6427 137.79 86.5128 138.01 87.5528C138.25 87.6228 138.29 87.4529 138.43 87.3429C142.43 84.3429 146.15 79.8326 149.43 76.1026C150.323 75.3439 151.095 74.4541 151.72 73.463Z" fill="#00A7FC"/>
<path d="M110.529 24.2696C111.024 24.9704 111.318 25.7934 111.379 26.6494C111.163 27.4762 110.903 28.2906 110.599 29.0894C109.979 30.1894 108.999 31.2891 108.269 32.3491C104.589 37.6591 99.7092 42.5691 95.0392 47.0991C86.2415 55.5623 76.6808 63.1951 66.4791 69.8994C65.8039 70.326 65.1884 70.8403 64.649 71.4292C64.469 72.3292 65.2689 73.8892 65.7989 74.6192C70.6989 81.3992 83.3989 80.3093 90.7989 79.7593C94.3689 79.4993 98.0691 79.1392 101.689 78.6192C101.799 78.6192 102.689 78.0693 102.539 78.4893C102.509 78.6325 102.459 78.7707 102.389 78.8994C102.339 78.9594 101.279 79.7894 101.209 79.8194C100.979 79.9194 99.4191 80.1493 99.4391 79.7393H99.1891C98.8991 79.7893 98.7193 80.0995 98.3893 80.2095C96.0312 80.8806 93.5995 81.26 91.149 81.3394C89.949 81.4394 88.7089 81.5295 87.5689 81.7095C86.9708 81.8946 86.3588 82.0314 85.7389 82.1192C85.3789 82.1192 85.5093 81.6892 85.1793 81.6792C84.8493 81.6692 84.079 82.0892 83.649 82.1192C83.3167 82.1565 82.9813 82.1565 82.649 82.1192C80.209 81.8492 77.9493 82.1194 75.4493 81.6294C73.1075 81.2104 70.8355 80.4666 68.6993 79.4195C66.8673 78.2056 65.2821 76.6545 64.0289 74.8491C63.5499 74.092 63.1224 73.3037 62.7491 72.4893C62.2791 72.3793 59.5693 74.6295 58.9493 74.9795C57.2593 75.9795 54.7293 77.3191 52.9493 78.0991C51.7982 78.6004 50.6074 79.0051 49.3893 79.3091C48.4861 79.3683 47.5945 79.0788 46.899 78.4995C46.689 78.3095 45.8992 77.1894 45.8292 77.1294C45.7288 77.0944 45.6195 77.0944 45.5191 77.1294C44.3291 77.7694 43.0793 78.3295 41.8893 78.9795C40.3293 79.8195 37.759 81.7195 36.089 81.9795C34.419 82.2395 34.3491 81.0394 33.1891 80.3394C32.5708 80.6387 31.9701 80.9726 31.3893 81.3394C31.2093 81.4494 31.149 81.6991 30.919 81.8491C30.2389 82.1815 29.5335 82.4592 28.8092 82.6792C28.4605 82.7287 28.1049 82.6779 27.7843 82.5323C27.4636 82.3866 27.1913 82.1525 26.9991 81.8574C26.8069 81.5624 26.7028 81.2184 26.6993 80.8662C26.6958 80.5141 26.7929 80.1681 26.9791 79.8692C27.9905 78.3926 29.183 77.0488 30.5289 75.8692C30.9189 75.5592 32.8689 74.6194 33.2589 74.8194C33.4589 75.0694 34.0393 75.6993 33.8893 76.0093C33.0321 76.6148 32.1441 77.1757 31.2291 77.6895C30.9591 77.9095 29.0691 79.9094 29.2291 80.0694C29.5595 80.1712 29.9161 80.1464 30.2291 79.9995C30.6291 79.8095 30.6092 79.5595 30.7892 79.4395C32.1092 78.5795 33.6393 77.7293 34.9093 76.7193C35.1893 76.4893 35.5693 75.8992 35.9093 75.8692C36.1378 75.8554 36.3657 75.9005 36.5719 76C36.7781 76.0996 36.9556 76.2505 37.087 76.438C37.2184 76.6255 37.2992 76.8435 37.3224 77.0713C37.3455 77.2991 37.3103 77.5292 37.2193 77.7393C37.1593 77.8593 35.4793 79.8291 36.2193 79.7891C38.1052 79.0116 39.9132 78.0577 41.6192 76.9395C42.6192 76.3695 43.8092 75.8395 44.8092 75.2295C45.5092 74.7895 46.159 73.8195 46.919 73.6895C47.379 73.6095 47.669 74.0192 48.169 73.9292C48.4358 74.6751 48.5215 75.4738 48.419 76.2593C48.419 76.5193 47.939 76.9693 48.419 77.2593C48.899 77.5493 49.979 77.1791 50.419 77.0391C53.149 76.1691 57.2591 73.5392 59.7291 71.9292C60.666 71.353 61.5288 70.6647 62.2989 69.8794C62.2438 66.7908 62.8368 63.7249 64.0392 60.8794C67.3048 53.855 71.9859 47.5804 77.7892 42.4492C80.0092 40.5492 82.2391 38.4491 84.5191 36.5791C88.2468 33.7585 92.2117 31.2662 96.3692 29.1294C99.3692 27.4794 106.239 23.3891 109.519 23.7891C109.884 23.8825 110.226 24.046 110.529 24.2696ZM104.929 33.8394C106.512 31.8762 107.876 29.747 108.999 27.4893C109.109 27.1593 109.409 26.3193 109.239 26.0493C108.589 25.4893 107.659 25.8892 106.929 26.1192C103.458 27.3781 100.111 28.9548 96.9293 30.8291C91.5215 33.7096 86.4472 37.1775 81.7989 41.1695C80.8589 41.9995 79.9992 42.7792 79.1192 43.6592C78.9592 43.8192 78.8591 44.1293 78.7091 44.2393C78.5591 44.3493 78.1089 44.3395 77.9889 44.4995C77.8689 44.6595 77.989 44.9191 77.899 45.0391C77.809 45.1591 76.2089 46.2292 76.0289 46.4492C75.8489 46.6692 75.8593 47.0193 75.6993 47.2393C75.5393 47.4593 74.6992 48.2996 74.2892 48.7696C70.5292 53.3396 66.0693 59.2191 64.6993 65.0591C64.4287 66.2052 64.3109 67.3821 64.3492 68.5591C64.6642 68.5395 64.9667 68.4284 65.2193 68.2393C66.2352 67.637 67.2106 66.9689 68.1393 66.2393C76.0683 60.7065 83.6181 54.6498 90.7389 48.1094C95.0697 44.2402 99.183 40.1336 103.059 35.8091C103.659 35.1791 104.429 34.4394 104.979 33.8394H104.929Z" fill="#00A7FC"/>
<path d="M75.9096 32.7806C74.9183 33.8686 73.87 34.9035 72.7694 35.8807C71.8338 36.859 70.8314 37.7712 69.7694 38.6107C69.5394 38.7507 69.2396 38.7106 69.1596 38.7806C69.0796 38.8506 69.1596 39.0804 68.9096 39.2904C68.1634 39.819 67.3886 40.3068 66.5892 40.7508C64.9914 41.9425 63.3215 43.0346 61.5892 44.0208C61.3292 44.1408 60.7294 44.1704 60.5394 44.3304C60.3494 44.4904 60.4592 44.6806 60.2992 44.8206C59.6401 45.2016 58.9553 45.5357 58.2494 45.8206C58.0994 45.8206 57.8294 45.6808 57.7894 45.7308C57.7877 45.8657 57.7528 45.998 57.6884 46.1165C57.6239 46.235 57.5316 46.3357 57.4193 46.4105C56.1861 47.0864 54.9103 47.6813 53.5995 48.1908C52.5995 48.6908 50.8795 50.0406 49.8095 50.2806C49.6095 50.3306 49.3494 50.1705 49.2694 50.2205C49.0386 50.5275 48.7622 50.7976 48.4496 51.0208C45.5696 52.6608 42.4496 53.9206 39.4496 55.2806C37.4496 56.1906 35.1292 57.2205 33.0092 57.9705C32.3492 58.2005 29.6093 58.8205 29.6493 57.6805C29.6493 57.4805 29.7295 57.4504 29.8695 57.3504C30.7795 56.7204 33.0893 56.5605 34.1493 55.8905C42.6272 52.1799 50.9115 48.0413 58.9696 43.4906C68.4396 38.0506 79.1995 30.7307 79.3095 18.6707C79.3695 12.4907 74.6892 6.23073 69.2592 3.67073C62.2592 0.430733 57.0592 1.67058 50.2592 4.26058C45.7691 5.98079 41.5779 8.39718 37.8392 11.4207C36.8392 12.1807 36.1192 13.3207 34.8392 13.5907C34.5892 13.8207 34.9796 14.1008 34.7196 14.4408C34.4596 14.7808 34.1592 14.6806 34.0492 14.8206C33.5092 15.4706 33.4093 15.3406 32.8793 15.8206C32.3493 16.3006 32.0796 16.8906 31.6996 17.3006C23.7996 25.8106 17.9594 37.2406 13.7694 48.0506C11.2494 54.5406 8.55934 61.3208 6.43934 68.0008C6.19934 68.7708 5.77954 69.4307 5.63954 69.8807C5.54954 70.1807 5.74936 70.4308 5.70936 70.7508C5.56329 71.1135 5.39635 71.467 5.20936 71.8104C4.54936 74.0004 4.02954 76.2607 3.38954 78.3807C2.82159 80.0772 2.52119 81.8516 2.4994 83.6405C2.4994 83.9605 2.1493 84.3805 2.6493 84.6405C3.1493 84.9005 3.15934 84.4506 3.43934 84.3006C5.62934 83.1306 7.3296 80.9504 8.9496 79.0404C14.8896 72.0404 19.7396 61.0405 23.4696 52.4305C24.3096 50.5105 25.1393 47.7208 26.1093 45.9808C27.0793 44.2408 28.1796 45.5206 27.9296 46.8006C27.6383 47.6436 27.3046 48.4713 26.9296 49.2806C26.0096 51.5506 24.8195 53.8807 23.8495 56.1307C21.9395 60.5907 19.7193 65.1304 17.4393 69.3104C14.6693 74.4204 10.4395 81.3704 5.82948 85.1204C4.82948 85.9104 2.96956 87.4608 1.65956 86.7708C1.44956 86.6608 1.42942 86.4604 1.26942 86.3304C0.819421 85.9604 0.67948 86.2404 0.57948 85.3304C0.31948 82.8004 1.25934 80.0004 1.93934 77.6004C3.09934 73.6004 4.40952 69.6405 5.86952 65.7205C6.92952 62.9105 7.73952 59.9704 8.86952 57.1204C8.99952 56.8004 9.36936 56.6605 9.45936 56.4505C9.54936 56.2405 9.39936 56.1007 9.45936 55.9007C9.92491 54.3717 10.4825 52.8721 11.1293 51.4105C11.2693 51.1105 11.6194 50.8707 11.7094 50.5907C11.8616 49.8718 12.1069 49.1761 12.4393 48.5208C13.2693 46.8908 13.8794 45.0408 14.7094 43.2708C15.2313 42.1895 15.6593 41.065 15.9891 39.9105C16.0591 39.6805 16.5093 39.6306 16.6093 39.2606C16.7093 38.8906 16.4394 38.5606 16.5194 38.2606C16.5194 38.1206 16.8596 38.1308 16.9296 37.9408C16.9996 37.7508 16.8695 37.3504 17.0795 37.1004C17.2895 36.8504 17.5496 36.9108 17.7196 36.7708C18.3096 36.2608 18.9792 35.5808 18.0692 35.0208L19.2694 34.3905C19.4594 34.0205 19.0692 33.8606 19.0692 33.7606C19.0692 33.6606 19.6795 33.4208 19.8095 33.2708C20.0795 32.9608 20.1893 32.1307 19.6093 32.1507V31.9408C19.8193 31.4708 20.6095 31.3204 20.8695 31.1004C21.1295 30.8804 20.9494 30.6706 21.0394 30.5106C21.1294 30.3506 21.4492 30.3904 21.5492 30.1004C21.7492 29.4504 21.0893 29.2506 21.1493 29.0106C21.2093 28.7706 21.5696 28.8605 21.7196 28.7005C21.8696 28.5405 21.8796 28.0005 21.9296 27.9505C21.9796 27.9005 22.3992 27.8007 22.5692 27.6107C22.7392 27.4207 22.5695 27.2407 22.6395 27.1107C22.7095 26.9807 23.0893 26.7504 23.1693 26.5604C23.6888 25.1584 24.3594 23.8171 25.1693 22.5604C25.4596 22.2678 25.774 22.0003 26.1093 21.7606C26.2093 21.6006 26.2193 21.1704 26.3993 20.8504C27.2451 19.6207 28.1918 18.4634 29.2294 17.3905C34.5097 11.1444 41.1724 6.21419 48.6893 2.99056C58.4593 -1.19944 67.3995 -1.17952 75.3495 6.41048C82.9795 13.6905 82.6196 25.2706 75.9096 32.7806Z" fill="#00A7FC"/>
<path d="M151.98 25.3895C152.167 25.7013 152.308 26.0379 152.4 26.3895C152.49 27.3195 151.95 27.6594 151.58 28.3094C150.51 30.1794 149.36 32.2397 148.31 34.1297C147.918 34.8524 147.599 35.6129 147.36 36.3997C147.016 37.2331 146.608 38.0385 146.14 38.8094C144.32 42.1494 142.73 45.8097 141.01 49.0697C137.62 55.5797 133.92 62.0194 130.68 68.5394C130.28 69.3394 129.68 71.1098 129.26 71.7298C129.036 71.9875 128.751 72.1835 128.43 72.2996C128.37 72.2996 127.43 71.9795 127.43 71.9495C126.71 71.5895 127.49 70.8496 127.62 70.4696C128.07 69.3356 128.616 68.2417 129.25 67.1995C132.25 61.5795 135.25 56.0295 138.04 50.3895C138.4 49.6595 139.04 48.9595 139.04 48.1195H139.42C139.727 47.1138 140.15 46.1474 140.68 45.2396C143.5 39.6096 146.4 33.8796 149.46 28.2396C149.94 27.3596 150.52 25.4796 151.46 25.2396C151.552 25.2195 151.648 25.2227 151.739 25.2489C151.829 25.275 151.912 25.3233 151.98 25.3895Z" fill="#00A7FC"/>
</svg>
