<svg width="140" height="126" viewBox="0 0 140 126" fill="none" xmlns="http://www.w3.org/2000/svg">
<path d="M76.1094 43.8398V74.8701" stroke="#1B1787" stroke-width="5" stroke-linecap="round" stroke-linejoin="round"/>
<path d="M76.1094 87.4902V90.2598" stroke="#1B1787" stroke-width="5" stroke-linecap="round" stroke-linejoin="round"/>
<path d="M25.8385 115.8H126.368C128.156 115.802 129.914 115.337 131.467 114.452C133.02 113.567 134.315 112.291 135.224 110.752C136.133 109.213 136.625 107.462 136.65 105.675C136.675 103.887 136.234 102.124 135.368 100.56L85.0485 8.21973C84.1586 6.61996 82.8574 5.28731 81.2794 4.35938C79.7014 3.43144 77.9041 2.94238 76.0735 2.94238C74.2429 2.94238 72.4456 3.43144 70.8676 4.35938C69.2896 5.28731 67.9883 6.61996 67.0985 8.21973L16.8385 100.54C15.9702 102.104 15.5259 103.867 15.5497 105.656C15.5736 107.445 16.0647 109.197 16.9743 110.737C17.884 112.278 19.1806 113.553 20.7355 114.438C22.2904 115.322 24.0496 115.785 25.8385 115.78V115.8Z" stroke="#1B1787" stroke-width="5" stroke-linecap="round" stroke-linejoin="round"/>
<path opacity="0.2" d="M11.4092 125.37H118.969C121.887 125.37 124.685 124.211 126.747 122.148C128.81 120.086 129.969 117.287 129.969 114.37C129.973 112.508 129.498 110.675 128.589 109.05L74.8093 10.2695C73.8542 8.5623 72.4612 7.14094 70.7737 6.15137C69.0863 5.1618 67.1654 4.63965 65.2092 4.63965C63.253 4.63965 61.3322 5.1618 59.6448 6.15137C57.9573 7.14094 56.5643 8.5623 55.6092 10.2695L1.82925 109.05C0.920705 110.675 0.445481 112.508 0.449241 114.37C0.449222 117.281 1.60266 120.072 3.65691 122.134C5.71117 124.196 8.49879 125.36 11.4092 125.37Z" fill="#5CD6E1"/>
</svg>
