<svg width="75" height="23" viewBox="0 0 75 23" fill="none" xmlns="http://www.w3.org/2000/svg">
<path d="M7.58887 22.5796C9.55554 22.65 11.4745 21.9628 12.9492 20.6597C13.4268 20.1941 13.8038 19.6364 14.0586 19.02C14.3097 18.4044 14.4356 17.7444 14.4287 17.0796C14.4385 16.4585 14.3197 15.8426 14.0791 15.27C13.8539 14.6941 13.5136 14.17 13.0791 13.73C12.0331 12.7576 10.7196 12.1203 9.30859 11.8999L6.65918 11.3896C5.58918 11.1796 4.93848 10.6296 4.93848 9.88965C4.93848 8.88965 5.93922 8.20996 7.44922 8.20996C8.31132 8.18177 9.1504 8.49007 9.78906 9.06982C10.1436 9.45411 10.3672 9.94075 10.4287 10.46L14.249 9.60986C14.1246 8.52847 13.6217 7.52589 12.8291 6.77979C11.37 5.44226 9.44736 4.72499 7.46875 4.77979C5.64168 4.73829 3.86279 5.36804 2.46875 6.5498C1.95984 7.02119 1.55513 7.5935 1.2793 8.22998C1.00049 8.85944 0.860495 9.5416 0.869141 10.23C0.849701 10.8072 0.948424 11.3822 1.15918 11.9199C1.36932 12.4599 1.68888 12.9502 2.09863 13.3599C3.10203 14.2896 4.34543 14.9199 5.68848 15.1797L8.28906 15.7998C9.59906 16.0998 10.1787 16.5797 10.1787 17.4297C10.1787 18.4997 9.22844 19.0996 7.64844 19.0996C7.16166 19.1264 6.67497 19.0517 6.21875 18.8799C5.76379 18.7092 5.34888 18.4471 4.99902 18.1099C4.58704 17.692 4.34408 17.1361 4.31836 16.5498L0.40918 17.3999C0.528437 18.5424 1.04909 19.6055 1.87891 20.3999C2.64939 21.1227 3.55677 21.6835 4.54785 22.0493C5.53893 22.4152 6.59311 22.5786 7.64844 22.5298L7.58887 22.5796ZM36.5186 22.5298C37.5898 22.56 38.6572 22.3802 39.6592 22C40.6585 21.6195 41.5721 21.0447 42.3486 20.3096C43.342 19.3752 44.0586 18.1849 44.4189 16.8696L40.4189 15.5298C40.2385 16.2127 39.8671 16.8299 39.3486 17.3096C38.5893 18.0157 37.5856 18.3996 36.5488 18.3799C35.9842 18.3817 35.4239 18.2764 34.8984 18.0698C34.3749 17.86 33.8993 17.5473 33.499 17.1499C32.6934 16.1614 32.2529 14.9252 32.2529 13.6499C32.2529 12.3746 32.6934 11.1384 33.499 10.1499C34.3089 9.38234 35.3832 8.95623 36.499 8.95996C37.001 8.94182 37.501 9.02691 37.9688 9.20996C38.4366 9.39589 38.8619 9.67468 39.2188 10.0298C39.7224 10.5332 40.0908 11.1559 40.2891 11.8398L44.3691 10.4697C44.0297 9.19994 43.3685 8.03908 42.4492 7.09961C41.6509 6.34096 40.7087 5.74965 39.6787 5.35986C38.6443 4.96923 37.5438 4.78217 36.4385 4.80957C34.121 4.78743 31.8887 5.68272 30.2285 7.2998C28.5981 9.03214 27.6969 11.3248 27.71 13.7036C27.723 16.0825 28.6496 18.3652 30.2988 20.0796C31.9627 21.686 34.1862 22.5825 36.499 22.5796L36.5186 22.5298ZM22.6689 22.5796C23.957 22.6283 25.2258 22.2525 26.2793 21.5098V17.8696C25.6002 18.3262 24.7967 18.5637 23.9785 18.5498C23.6718 18.61 23.3549 18.5893 23.0586 18.4897C22.7596 18.3976 22.4881 18.2327 22.2686 18.0098C22.0486 17.7896 21.8873 17.5181 21.7988 17.2197C21.7239 16.9176 21.7239 16.6019 21.7988 16.2998V0.669922H17.2891V5.27979H26.3486V9.63965H17.2891V17.3896C17.2306 18.7574 17.7117 20.0935 18.6289 21.1099C19.1831 21.6135 19.8327 22.0013 20.5391 22.25C21.2458 22.5084 21.9976 22.6203 22.749 22.5796" fill="#661698"/>
<path d="M48.8291 16.7996V5.24977H50.7793V6.15943C51.0933 5.78772 51.4856 5.49091 51.9287 5.2898C52.3745 5.09025 52.8607 4.99776 53.3486 5.01978C55.5886 5.01978 57.209 6.80941 57.209 9.38941C57.209 11.9694 55.6386 13.8093 53.3486 13.8093C52.8589 13.827 52.3718 13.7307 51.9258 13.5276C51.4797 13.3245 51.0876 13.0204 50.7793 12.6394V16.8494L48.8291 16.7996ZM50.7793 8.39967V10.4998C50.9661 10.9377 51.2747 11.3123 51.6689 11.5794C52.0643 11.8474 52.5311 11.9904 53.0088 11.9895C54.3088 11.9895 55.1689 10.9897 55.1689 9.43971C55.1689 7.88971 54.3088 6.90943 53.0088 6.90943C52.5329 6.90011 52.0655 7.0363 51.6689 7.29957C51.2713 7.56717 50.962 7.94625 50.7793 8.38941" fill="#00C297"/>
<path d="M58.5294 10.8496C58.5158 10.5336 58.5684 10.2183 58.6837 9.92383C58.7991 9.62935 58.9747 9.36228 59.1994 9.13965C59.6707 8.66551 60.3012 8.38384 60.9689 8.34961L64.4689 7.93994V7.52979C64.4939 7.43474 64.4939 7.3348 64.4689 7.23975C64.4373 7.14433 64.3822 7.05836 64.3087 6.98975C64.2337 6.91449 64.1413 6.85929 64.0392 6.82959C63.9373 6.80536 63.8306 6.80536 63.7287 6.82959H59.299V5.08984H63.7287C65.4987 5.08984 66.4894 5.88959 66.4894 7.32959V13.1997H64.4894V12.1997C64.1518 12.6336 63.7118 12.9771 63.2091 13.1997C62.7002 13.4125 62.1497 13.5085 61.5988 13.48C61.2146 13.5152 60.8276 13.4743 60.4591 13.3599C60.0921 13.2558 59.7513 13.0749 59.4591 12.8296C59.1732 12.5952 58.9416 12.302 58.7794 11.9697C58.6272 11.658 58.5451 11.3166 58.5392 10.9697L58.5294 10.8496ZM62.089 11.8496C62.5827 11.8574 63.0697 11.7333 63.4992 11.4897C63.9236 11.262 64.2714 10.9141 64.4992 10.4897V9.48975L61.8293 9.83984C61.0893 9.92984 60.7189 10.2898 60.7189 10.8398C60.7189 11.3898 61.2493 11.8398 62.1593 11.8398" fill="#00C297"/>
<path d="M68.1289 15.0498H69.4287C69.5311 15.063 69.635 15.054 69.7334 15.0229C69.8318 14.9919 69.9228 14.9393 69.999 14.8696C70.1609 14.722 70.2694 14.5252 70.3086 14.3096L70.5488 13.5596L67.7891 5.0498H69.6484L71.3584 10.98L73.0088 5.0498H74.8389L71.8389 14.8296C71.4189 16.1696 70.8388 16.8896 69.5488 16.8896H68.1484L68.1289 15.0498Z" fill="#00C297"/>
</svg>
