<svg width="115" height="138" viewBox="0 0 115 138" fill="none" xmlns="http://www.w3.org/2000/svg">
<path d="M13.5596 19.71V34.71" stroke="#1B1787" stroke-width="2" stroke-linecap="round" stroke-linejoin="round"/>
<path d="M86.7803 22.21L101.44 19.71C101.978 19.6227 102.472 19.356 102.84 18.9532C103.208 18.5503 103.429 18.035 103.467 17.4908C103.505 16.9466 103.358 16.4054 103.05 15.9551C102.742 15.5048 102.291 15.1718 101.77 15.0101L58.3702 1.21002C57.8916 1.0602 57.378 1.0602 56.8995 1.21002L13.4903 15.0101C12.9693 15.1718 12.518 15.5048 12.21 15.9551C11.9021 16.4054 11.7548 16.9466 11.793 17.4908C11.8313 18.035 12.0521 18.5503 12.42 18.9532C12.7879 19.356 13.2809 19.6227 13.8194 19.71L28.4796 22.21" fill="#4ADBC8"/>
<path d="M86.7803 22.21L101.44 19.71C101.978 19.6227 102.472 19.356 102.84 18.9532C103.208 18.5503 103.429 18.035 103.467 17.4908C103.505 16.9466 103.358 16.4054 103.05 15.9551C102.742 15.5048 102.291 15.1718 101.77 15.0101L58.3702 1.21002C57.8916 1.0602 57.378 1.0602 56.8995 1.21002L13.4903 15.0101C12.9693 15.1718 12.518 15.5048 12.21 15.9551C11.9021 16.4054 11.7548 16.9466 11.793 17.4908C11.8313 18.035 12.0521 18.5503 12.42 18.9532C12.7879 19.356 13.2809 19.6227 13.8194 19.71L28.4796 22.21" stroke="#1B1787" stroke-width="2" stroke-linecap="round" stroke-linejoin="round"/>
<path d="M113.319 127.109V115.299C113.317 111.057 111.941 106.929 109.397 103.533C106.854 100.137 103.281 97.6554 99.21 96.4592L90.3301 93.8594L57.6396 113.289L24.9395 93.8594L16.0596 96.4592C11.9884 97.6562 8.41484 100.14 5.87305 103.538C3.33126 106.936 1.95833 111.066 1.95996 115.309V127.109C1.95996 129.573 2.93845 131.936 4.68067 133.678C6.42288 135.42 8.78614 136.399 11.25 136.399H104.05C106.509 136.391 108.865 135.41 110.603 133.668C112.34 131.927 113.317 129.569 113.319 127.109Z" fill="#4ADBC8" stroke="#1B1787" stroke-width="2" stroke-linecap="round" stroke-linejoin="round"/>
<path d="M90.3301 93.8594L70.4395 80.8594C70.4368 89.1694 68.0268 97.3005 63.5 104.269L57.6396 113.269" stroke="#1B1787" stroke-width="2" stroke-linecap="round" stroke-linejoin="round"/>
<path d="M24.9395 93.8594L44.8301 80.8594C44.8288 89.1714 47.2436 97.3045 51.7803 104.269L57.6396 113.269" stroke="#1B1787" stroke-width="2" stroke-linecap="round" stroke-linejoin="round"/>
<path d="M39.5996 35.0195V41.4795C39.5996 42.7243 39.1058 43.9182 38.2266 44.7993C37.3473 45.6805 36.1549 46.1768 34.9102 46.1794H30.2402V53.8496C30.2402 54.7938 30.6146 55.6993 31.2822 56.3669C31.9499 57.0346 32.8556 57.4097 33.7998 57.4097C34.0973 57.4093 34.3837 57.5231 34.5996 57.7278C34.8155 57.9325 34.9446 58.2124 34.96 58.5095C35.3261 64.2753 37.8747 69.685 42.0879 73.6382C46.3011 77.5913 51.8622 79.791 57.6396 79.7896C63.4153 79.7885 68.9745 77.5877 73.1855 73.6348C77.3966 69.6819 79.9435 64.2736 80.3096 58.5095C80.3274 58.2115 80.4592 57.9315 80.6768 57.7271C80.8943 57.5226 81.1809 57.4091 81.4795 57.4097C81.9465 57.4097 82.4095 57.3175 82.8408 57.1384C83.2722 56.9594 83.6634 56.6969 83.9932 56.3662C84.3229 56.0355 84.5849 55.643 84.7627 55.2112C84.9405 54.7793 85.0316 54.3166 85.0303 53.8496V46.1794H80.3701C79.1236 46.1794 77.9283 45.6844 77.0469 44.803C76.1655 43.9216 75.6699 42.726 75.6699 41.4795V35.0195" stroke="#1B1787" stroke-width="2" stroke-linecap="round" stroke-linejoin="round"/>
<path d="M44.8193 75.7998V80.8499" stroke="#1B1787" stroke-width="2" stroke-linecap="round" stroke-linejoin="round"/>
<path d="M70.4395 80.8701V75.8701" stroke="#1B1787" stroke-width="2" stroke-linecap="round" stroke-linejoin="round"/>
<path d="M71.1396 20.2798L62.75 19.2798C59.3496 18.8598 55.9102 18.8598 52.5098 19.2798L33.5801 21.6199L28.4795 22.2498V32.9598C28.482 33.4568 28.6604 33.937 28.9824 34.3157C29.3044 34.6944 29.75 34.9474 30.2402 35.0298C30.3567 35.0401 30.4734 35.0401 30.5898 35.0298H84.6895C84.7992 35.0397 84.9098 35.0397 85.0195 35.0298C85.5116 34.9495 85.9592 34.6975 86.2832 34.3186C86.6072 33.9397 86.7871 33.4583 86.79 32.9598V22.2498L81.6797 21.6199L81.0801 21.5498" fill="#4ADBC8"/>
<path d="M71.1396 20.2798L62.75 19.2798C59.3496 18.8598 55.9102 18.8598 52.5098 19.2798L33.5801 21.6199L28.4795 22.2498V32.9598C28.482 33.4568 28.6604 33.937 28.9824 34.3157C29.3044 34.6944 29.75 34.9474 30.2402 35.0298C30.3567 35.0401 30.4734 35.0401 30.5898 35.0298H84.6895C84.7992 35.0397 84.9098 35.0397 85.0195 35.0298C85.5116 34.9495 85.9592 34.6976 86.2832 34.3186C86.6072 33.9397 86.7871 33.4583 86.79 32.9598V22.2498L81.6797 21.6199L81.0801 21.5498" stroke="#1B1787" stroke-width="2" stroke-linecap="round" stroke-linejoin="round"/>
<path d="M85.0498 46.1802V34.9902" stroke="#1B1787" stroke-width="2" stroke-linecap="round" stroke-linejoin="round"/>
<path d="M30.2402 34.9902V46.1802" stroke="#1B1787" stroke-width="2" stroke-linecap="round" stroke-linejoin="round"/>
<path d="M9.05018 42.9697L6.16053 59.9697C6.09639 60.3462 6.11452 60.7322 6.21522 61.1006C6.31592 61.469 6.49681 61.811 6.74354 62.1025C6.99028 62.394 7.29724 62.6281 7.64393 62.7883C7.99063 62.9485 8.36847 63.0308 8.75038 63.0298H18.4398C18.8209 63.0294 19.1979 62.946 19.5433 62.7852C19.8888 62.6243 20.1952 62.39 20.4408 62.0986C20.6864 61.8073 20.8651 61.4658 20.9652 61.0981C21.0653 60.7305 21.0839 60.3454 21.0199 59.9697L18.1303 42.9697" stroke="#1B1787" stroke-width="2" stroke-linecap="round" stroke-linejoin="round"/>
<path d="M18.0996 37.0198C18.0996 36.4115 17.8589 35.828 17.4297 35.397C17.0005 34.9659 16.4178 34.7224 15.8096 34.7197H11.3193C10.7093 34.7197 10.1247 34.9622 9.69336 35.3936C9.26203 35.8249 9.01953 36.4098 9.01953 37.0198V43.0198H18.0996V37.0198Z" stroke="#1B1787" stroke-width="2" stroke-linecap="round" stroke-linejoin="round"/>
<path d="M68.5498 93.4492C61.3539 94.9827 53.9156 94.9827 46.7197 93.4492" stroke="#1B1787" stroke-width="2" stroke-linecap="round" stroke-linejoin="round"/>
</svg>
