<svg width="69" height="62" viewBox="0 0 69 62" fill="none" xmlns="http://www.w3.org/2000/svg">
<path d="M34.1299 6.3005C30.2986 3.08317 25.4006 1.41838 20.4023 1.63498C15.4041 1.85157 10.6685 3.93373 7.12988 7.47042C5.26735 9.32825 3.78951 11.5352 2.78125 13.9651C1.77299 16.3949 1.25391 18.9999 1.25391 21.6306C1.25391 24.2613 1.77299 26.8658 2.78125 29.2956C3.78951 31.7254 5.26735 33.9329 7.12988 35.7907L30.71 59.3703C31.6483 60.325 32.9229 60.8744 34.2612 60.9006C35.5995 60.9268 36.8947 60.4277 37.8696 59.5105C38.3559 59.0447 38.7444 58.4867 39.0122 57.8689C39.28 57.251 39.4217 56.5857 39.4292 55.9123C39.4366 55.239 39.3097 54.5711 39.0557 53.9475C38.8016 53.3238 38.4256 52.7569 37.9497 52.2805L39.0698 53.4006C40.0081 54.3553 41.2828 54.9042 42.6211 54.9304C43.9594 54.9566 45.2551 54.458 46.23 53.5407C46.7156 53.0743 47.1032 52.5154 47.3701 51.8972C47.6371 51.279 47.7777 50.6135 47.7842 49.9402C47.7907 49.2668 47.6631 48.5991 47.4082 47.9758C47.1533 47.3525 46.7763 46.7861 46.2998 46.3103L47.4199 47.4304C48.3582 48.3841 49.6317 48.9336 50.9692 48.9616C52.3068 48.9897 53.6022 48.4938 54.5796 47.5803C55.0662 47.1136 55.4552 46.5549 55.7231 45.9362C55.9911 45.3176 56.1327 44.6514 56.1401 43.9773C56.1476 43.3031 56.0208 42.6344 55.7666 42.01C55.5124 41.3855 55.1358 40.8179 54.6597 40.3405L55.7798 41.4607C56.72 42.4194 58.0025 42.9651 59.3452 42.9782C60.688 42.9914 61.9812 42.4707 62.9399 41.5305C63.8987 40.5903 64.4444 39.3078 64.4575 37.9651C64.4706 36.6223 63.95 35.3291 63.0098 34.3703L48.1597 19.5207" fill="#4ADBC8"/>
<path d="M34.1299 6.3005C30.2986 3.08317 25.4006 1.41838 20.4023 1.63498C15.4041 1.85157 10.6685 3.93373 7.12988 7.47042C5.26735 9.32825 3.78951 11.5352 2.78125 13.9651C1.77299 16.3949 1.25391 18.9999 1.25391 21.6306C1.25391 24.2613 1.77299 26.8658 2.78125 29.2956C3.78951 31.7254 5.26735 33.9329 7.12988 35.7907L30.71 59.3703C31.6483 60.325 32.9229 60.8744 34.2612 60.9006C35.5995 60.9268 36.8947 60.4277 37.8696 59.5105C38.3559 59.0447 38.7444 58.4867 39.0122 57.8689C39.28 57.251 39.4217 56.5857 39.4292 55.9123C39.4366 55.239 39.3097 54.5711 39.0557 53.9475C38.8016 53.3238 38.4256 52.7569 37.9497 52.2805L39.0698 53.4006C40.0081 54.3553 41.2828 54.9042 42.6211 54.9304C43.9594 54.9566 45.2551 54.458 46.23 53.5407C46.7156 53.0743 47.1032 52.5154 47.3701 51.8972C47.6371 51.279 47.7777 50.6135 47.7842 49.9402C47.7907 49.2668 47.6631 48.5991 47.4082 47.9758C47.1533 47.3525 46.7763 46.7861 46.2998 46.3103L47.4199 47.4304C48.3582 48.3841 49.6317 48.9336 50.9692 48.9616C52.3068 48.9897 53.6022 48.4938 54.5796 47.5803C55.0662 47.1136 55.4552 46.5549 55.7231 45.9362C55.9911 45.3176 56.1327 44.6514 56.1401 43.9773C56.1476 43.3031 56.0208 42.6344 55.7666 42.01C55.5124 41.3855 55.1358 40.8179 54.6597 40.3405L55.7798 41.4607C56.72 42.4194 58.0025 42.9651 59.3452 42.9782C60.688 42.9914 61.9812 42.4707 62.9399 41.5305C63.8987 40.5903 64.4444 39.3078 64.4575 37.9651C64.4706 36.6223 63.95 35.3291 63.0098 34.3703L48.1597 19.5207" stroke="#1B1787" stroke-width="2" stroke-linecap="round" stroke-linejoin="round"/>
<path d="M37.8999 52.2803L29.9102 44.2803" stroke="#1B1787" stroke-width="2" stroke-linecap="round" stroke-linejoin="round"/>
<path d="M46.2603 46.3096L37.0703 37.1201" stroke="#1B1787" stroke-width="2" stroke-linecap="round" stroke-linejoin="round"/>
<path d="M54.6206 40.3398L44.2305 29.96" stroke="#1B1787" stroke-width="2" stroke-linecap="round" stroke-linejoin="round"/>
<path d="M62.3589 33.7998C65.6139 30.0273 67.3203 25.1623 67.1348 20.1831C66.9493 15.2039 64.8856 10.4798 61.3589 6.95996C59.5294 5.12915 57.3569 3.67645 54.9658 2.68555C52.5748 1.69465 50.0121 1.18457 47.4238 1.18457C44.8356 1.18457 42.2729 1.69465 39.8818 2.68555C37.4908 3.67645 35.3183 5.12915 33.4888 6.95996L20.8086 19.6299L22.0088 20.8296C23.5914 22.4106 25.7367 23.2988 27.9736 23.2988C30.2106 23.2988 32.3564 22.4106 33.939 20.8296L37.939 16.8296L38.0986 16.9897C39.0385 17.9307 40.1547 18.6772 41.3833 19.1865C42.6119 19.6958 43.9288 19.958 45.2588 19.958C46.5887 19.958 47.9057 19.6958 49.1343 19.1865C50.3628 18.6772 51.4791 17.9307 52.4189 16.9897L52.4888 16.9199" fill="white"/>
<path d="M62.3589 33.7998C65.6139 30.0273 67.3203 25.1623 67.1348 20.1831C66.9493 15.2039 64.8856 10.4798 61.3589 6.95996C59.5294 5.12915 57.3569 3.67645 54.9658 2.68555C52.5748 1.69465 50.0121 1.18457 47.4238 1.18457C44.8356 1.18457 42.2729 1.69465 39.8818 2.68555C37.4908 3.67645 35.3183 5.12915 33.4888 6.95996L20.8086 19.6299L22.0088 20.8296C23.5914 22.4106 25.7367 23.2988 27.9736 23.2988C30.2106 23.2988 32.3564 22.4106 33.939 20.8296L37.939 16.8296L38.0986 16.9897C39.0385 17.9307 40.1547 18.6772 41.3833 19.1865C42.6119 19.6958 43.9288 19.958 45.2588 19.958C46.5887 19.958 47.9057 19.6958 49.1343 19.1865C50.3628 18.6772 51.4791 17.9307 52.4189 16.9897L52.4888 16.9199" stroke="#1B1787" stroke-width="2" stroke-linecap="round" stroke-linejoin="round"/>
</svg>
