<svg width="79" height="46" viewBox="0 0 79 46" fill="none" xmlns="http://www.w3.org/2000/svg">
<path d="M22.8101 44.3701C27.0792 44.3701 30.54 40.9088 30.54 36.6396C30.54 32.3705 27.0792 28.9102 22.8101 28.9102C18.5409 28.9102 15.0801 32.3705 15.0801 36.6396C15.0801 40.9088 18.5409 44.3701 22.8101 44.3701Z" fill="#4ADBC8" stroke="#1B1787" stroke-width="2" stroke-linecap="round" stroke-linejoin="round"/>
<circle cx="22.8105" cy="36.6396" r="1" fill="#1B1787"/>
<path d="M61.769 44.3799C66.0382 44.3799 69.499 40.9196 69.499 36.6504C69.499 32.3812 66.0382 28.9199 61.769 28.9199C57.4999 28.9199 54.0391 32.3812 54.0391 36.6504C54.0391 40.9196 57.4999 44.3799 61.769 44.3799Z" fill="#4ADBC8" stroke="#1B1787" stroke-width="2" stroke-linecap="round" stroke-linejoin="round"/>
<circle cx="61.7695" cy="36.6396" r="1" fill="#1B1787"/>
<path d="M61.0503 6.50049V18.0903H74.1904C74.5996 18.0779 75.0067 18.1494 75.3872 18.3003C75.7677 18.4512 76.1134 18.6783 76.4028 18.9678C76.6923 19.2572 76.9194 19.6029 77.0703 19.9834C77.2212 20.3639 77.2927 20.771 77.2803 21.1802V38.1802H69.6304M72.4604 17.8604L67.2305 5.71045H54.8604M54.0903 30.4502V1.08008H10.4902L7.40039 38.1802H15.0503M67.4702 31.1802H76.4702M53.9805 38.1802H30.6401M8.14014 31.1802H17.1401M28.5303 31.1802H56.1401" stroke="#1B1787" stroke-width="2" stroke-linecap="round" stroke-linejoin="round"/>
<path d="M11.8398 23.7002H1.16016" stroke="#1B1787" stroke-width="2" stroke-linecap="round" stroke-linejoin="round"/>
<path d="M22.6709 16.1602H5.80078" stroke="#1B1787" stroke-width="2" stroke-linecap="round" stroke-linejoin="round"/>
<path d="M15.7104 8.62012H3.48047" stroke="#1B1787" stroke-width="2" stroke-linecap="round" stroke-linejoin="round"/>
<path d="M28.3901 8.62012H22.6699" stroke="#1B1787" stroke-width="2" stroke-linecap="round" stroke-linejoin="round"/>
<path d="M32.4912 16.1602H29.6211" stroke="#1B1787" stroke-width="2" stroke-linecap="round" stroke-linejoin="round"/>
</svg>
