<svg width="62" height="61" viewBox="0 0 62 61" fill="none" xmlns="http://www.w3.org/2000/svg">
<path d="M5.16992 1.19043H25.1699C26.0531 1.19043 26.8999 1.54103 27.5244 2.16553C28.1489 2.79002 28.5 3.63734 28.5 4.52051V24.5205C28.5 25.4046 28.1491 26.2523 27.5249 26.8784C26.9007 27.5045 26.054 27.8577 25.1699 27.8604H5.16992C4.28583 27.8577 3.43866 27.5045 2.81445 26.8784C2.19024 26.2523 1.83984 25.4046 1.83984 24.5205V4.52051C1.83984 3.63734 2.19045 2.79002 2.81494 2.16553C3.43944 1.54103 4.28675 1.19043 5.16992 1.19043Z" stroke="#1B1787" stroke-width="2" stroke-linecap="round" stroke-linejoin="round"/>
<path d="M36.9297 32.9502H56.9297C57.8129 32.9502 58.6602 33.3013 59.2847 33.9258C59.9092 34.5503 60.2598 35.3971 60.2598 36.2803V56.2803C60.2598 57.1644 59.9094 58.0126 59.2852 58.6387C58.6609 59.2648 57.8138 59.6175 56.9297 59.6201H36.9297C36.0456 59.6175 35.1989 59.2648 34.5747 58.6387C33.9505 58.0126 33.5996 57.1644 33.5996 56.2803V36.2803C33.5996 35.3971 33.9507 34.5503 34.5752 33.9258C35.1997 33.3013 36.0465 32.9502 36.9297 32.9502Z" fill="#4ADBC8" stroke="#1B1787" stroke-width="2" stroke-linecap="round" stroke-linejoin="round"/>
<path d="M9.42969 21.8003L14.8896 7.4502C14.9146 7.38982 14.9569 7.33807 15.0112 7.30176C15.0655 7.26544 15.1295 7.24609 15.1948 7.24609C15.2601 7.24609 15.3241 7.26544 15.3784 7.30176C15.4327 7.33807 15.4751 7.38982 15.5 7.4502L20.9199 21.8003" stroke="#1B1787" stroke-width="2" stroke-linecap="round" stroke-linejoin="round"/>
<path d="M11.1406 18.2197H19.2407" stroke="#1B1787" stroke-width="2" stroke-linecap="round" stroke-linejoin="round"/>
<path d="M6.80859 37.6699V46.1597C6.80859 47.446 7.31994 48.6798 8.22949 49.5894C9.13904 50.4989 10.3724 51.0098 11.6587 51.0098H23.7788" stroke="#1B1787" stroke-width="2" stroke-linecap="round" stroke-linejoin="round"/>
<path d="M20.1406 47.3701L23.7808 51.0103L20.1406 54.6504" stroke="#1B1787" stroke-width="2" stroke-linecap="round" stroke-linejoin="round"/>
<path d="M55.3003 23.1299V14.6396C55.3003 13.3533 54.7894 12.12 53.8799 11.2104C52.9703 10.3009 51.7365 9.79004 50.4502 9.79004H38.3301" stroke="#1B1787" stroke-width="2" stroke-linecap="round" stroke-linejoin="round"/>
<path d="M41.9604 13.4302L38.3301 9.79053L41.9604 6.16016" stroke="#1B1787" stroke-width="2" stroke-linecap="round" stroke-linejoin="round"/>
</svg>
