<svg width="53" height="76" viewBox="0 0 53 76" fill="none" xmlns="http://www.w3.org/2000/svg">
<path d="M26.1914 7.7998V13.6797" stroke="#1B1787" stroke-width="2" stroke-linecap="round" stroke-linejoin="round"/>
<path d="M23.25 10.6904H29.1299" stroke="#1B1787" stroke-width="2" stroke-linecap="round" stroke-linejoin="round"/>
<path d="M39.8809 14.9697V19.7998H12.541V7.95998C12.5392 7.38197 12.6521 6.80932 12.8736 6.27541C13.095 5.7415 13.4202 5.25663 13.8306 4.84963L15.8306 2.84963C16.6552 2.02432 17.7742 1.56027 18.9409 1.55959H33.521C34.099 1.55773 34.6717 1.67114 35.2056 1.8926C35.7395 2.11406 36.2239 2.43919 36.6309 2.84963L38.6309 4.84963C39.0413 5.25663 39.3665 5.7415 39.5879 6.27541C39.8094 6.80932 39.9228 7.38197 39.9209 7.95998V14.96L39.8809 14.9697Z" fill="#4ADBC8" stroke="#1B1787" stroke-width="2" stroke-linecap="round" stroke-linejoin="round"/>
<path d="M8.0503 74.4702C7.14334 74.4702 6.24504 74.2917 5.40724 73.9443C4.56944 73.597 3.80835 73.0876 3.16749 72.4458C2.52664 71.804 2.01903 71.0424 1.67286 70.2041C1.32669 69.3658 1.14909 68.467 1.1504 67.5601V54.9502C1.148 53.6521 1.55706 52.3865 2.31886 51.3354C3.08066 50.2844 4.15575 49.5018 5.39015 49.1001L19.7705 44.5703L26.2002 51.6904L32.6304 44.5703L46.9502 49.0801C48.2001 49.472 49.2921 50.2528 50.0674 51.3086C50.8426 52.3644 51.2606 53.6403 51.2603 54.9502V67.5601C51.2616 68.467 51.084 69.3658 50.7378 70.2041C50.3916 71.0424 49.8835 71.804 49.2427 72.4458C48.6018 73.0876 47.8407 73.597 47.0029 73.9443C46.1651 74.2917 45.2673 74.4702 44.3604 74.4702H8.0503Z" fill="#4ADBC8" stroke="#1B1787" stroke-width="2" stroke-linecap="round" stroke-linejoin="round"/>
<path d="M32.6514 38.7998V44.5498L26.2114 51.6699L19.7812 44.5498V38.7998" stroke="#1B1787" stroke-width="2" stroke-linecap="round" stroke-linejoin="round"/>
<path d="M37.25 19.7998V30.2998C37.2473 33.0033 36.1714 35.5952 34.2588 37.5059C32.3462 39.4166 29.7533 40.4897 27.0498 40.4897H25.3696C22.6671 40.4897 20.0755 39.4164 18.1646 37.5054C16.2536 35.5944 15.1797 33.0024 15.1797 30.2998V19.7998" stroke="#1B1787" stroke-width="2" stroke-linecap="round" stroke-linejoin="round"/>
<path d="M37.25 19.7998H39.46C39.8626 19.7998 40.2614 19.8793 40.6333 20.0337C41.0052 20.1881 41.3427 20.4145 41.627 20.6997C41.9112 20.9849 42.1364 21.3234 42.2896 21.6958C42.4427 22.0682 42.5213 22.4669 42.52 22.8696V25.1597C42.5213 25.5624 42.4427 25.9616 42.2896 26.334C42.1364 26.7064 41.9112 27.0449 41.627 27.3301C41.3427 27.6153 41.0052 27.8417 40.6333 27.9961C40.2614 28.1505 39.8626 28.23 39.46 28.23H37.25V19.7998Z" stroke="#1B1787" stroke-width="2" stroke-linecap="round" stroke-linejoin="round"/>
<path d="M15.1802 19.7998H12.9702C12.5667 19.7985 12.167 19.877 11.794 20.0308C11.4209 20.1846 11.0817 20.4105 10.7964 20.6958C10.5111 20.9812 10.2852 21.3203 10.1314 21.6934C9.97755 22.0664 9.89909 22.4661 9.90041 22.8696V25.1597C9.89909 25.5632 9.97755 25.9634 10.1314 26.3364C10.2852 26.7095 10.5111 27.0482 10.7964 27.3335C11.0817 27.6189 11.4209 27.8452 11.794 27.999C12.167 28.1529 12.5667 28.2313 12.9702 28.23H15.1802V19.7998Z" stroke="#1B1787" stroke-width="2" stroke-linecap="round" stroke-linejoin="round"/>
<path d="M21.4609 23.7998V25.25" stroke="#1B1787" stroke-width="2" stroke-linecap="round" stroke-linejoin="round"/>
<path d="M30.9414 23.7998V25.25" stroke="#1B1787" stroke-width="2" stroke-linecap="round" stroke-linejoin="round"/>
<path d="M44.4308 58.5298C44.4308 58.9812 44.297 59.4222 44.046 59.7974C43.7951 60.1725 43.4383 60.465 43.0211 60.6372C42.6039 60.8095 42.1448 60.8539 41.7023 60.7652C41.2597 60.6764 40.8537 60.4586 40.5353 60.1387C40.2168 59.8188 40.0005 59.4112 39.9137 58.9683C39.8269 58.5254 39.8734 58.0668 40.0475 57.6504C40.2216 57.234 40.5155 56.8787 40.8917 56.6294C41.268 56.3801 41.7094 56.248 42.1608 56.25C42.4597 56.25 42.7558 56.3087 43.0319 56.4234C43.3079 56.5381 43.5587 56.7061 43.7697 56.918C43.9806 57.1298 44.1474 57.3817 44.2609 57.6582C44.3744 57.9348 44.4321 58.2309 44.4308 58.5298Z" stroke="#1B1787" stroke-width="2" stroke-linecap="round" stroke-linejoin="round"/>
<path d="M14.9493 60.7998H17.0992V56.25C17.1281 55.6339 17.0319 55.0182 16.816 54.4404C16.6001 53.8626 16.2692 53.3344 15.8434 52.8882C15.4176 52.4419 14.9055 52.0869 14.3385 51.8442C13.7714 51.6015 13.1613 51.4766 12.5445 51.4766C11.9277 51.4766 11.3172 51.6015 10.7501 51.8442C10.1831 52.0869 9.67104 52.4419 9.24522 52.8882C8.81941 53.3344 8.48894 53.8626 8.27306 54.4404C8.05717 55.0182 7.96049 55.6339 7.98937 56.25V60.7998H10.2696" stroke="#1B1787" stroke-width="2" stroke-linecap="round" stroke-linejoin="round"/>
<path d="M12.541 51.6899V46.8496" stroke="#1B1787" stroke-width="2" stroke-linecap="round" stroke-linejoin="round"/>
<path d="M42.1602 56.2505V47.5703" stroke="#1B1787" stroke-width="2" stroke-linecap="round" stroke-linejoin="round"/>
<path d="M15.1797 28.23L26.1797 26.6396L37.1797 28.23" stroke="#1B1787" stroke-width="2" stroke-linecap="round" stroke-linejoin="round"/>
</svg>
