<svg width="61" height="20" viewBox="0 0 61 20" fill="none" xmlns="http://www.w3.org/2000/svg">
<path fill-rule="evenodd" clip-rule="evenodd" d="M26.5889 19.499H21.7295L24.7686 0.708984H29.6289L26.5889 19.499Z" fill="#006AAA"/>
<path fill-rule="evenodd" clip-rule="evenodd" d="M44.209 1.16954C42.8179 0.634432 41.339 0.362845 39.8486 0.369251C35.0486 0.369251 31.6684 2.91921 31.6484 6.57921C31.6484 9.27921 34.0692 10.7793 35.9092 11.6793C37.7492 12.5793 38.4287 13.1996 38.4287 14.0196C38.4287 15.2796 36.9088 15.8595 35.5088 15.8595C33.93 15.9032 32.3649 15.5598 30.9492 14.8595L30.3086 14.5592L29.6289 18.7794C31.3568 19.4499 33.1954 19.7891 35.0488 19.7794C40.1488 19.7794 43.4688 17.2595 43.5088 13.3595C43.5088 11.2195 42.2287 9.57937 39.4287 8.23937C37.7287 7.37937 36.6885 6.79954 36.6885 5.91954C36.6885 5.03954 37.5693 4.29943 39.4893 4.29943C40.7316 4.26309 41.9653 4.50949 43.0986 5.01964L43.5391 5.21935L44.209 1.16954Z" fill="#006AAA"/>
<path d="M50.6592 12.7993L52.5986 7.53951C52.5986 7.53951 52.9993 6.43921 53.2393 5.73921L53.5791 7.35933C53.5791 7.35933 54.4992 11.8593 54.6992 12.7993H50.6592ZM56.6592 0.669389H52.8984C52.3612 0.60502 51.8185 0.724103 51.3574 1.00728C50.8964 1.29046 50.5439 1.72117 50.3584 2.22945L43.1484 19.4594H48.2393L49.2393 16.6391H55.4785C55.6185 17.2991 56.0586 19.4594 56.0586 19.4594H60.5586L56.6592 0.669389Z" fill="#006AAA"/>
<path fill-rule="evenodd" clip-rule="evenodd" d="M17.6689 0.708984L12.9092 13.519L12.3887 10.9189C11.2084 7.55003 8.81649 4.74113 5.67871 3.03906L10.0391 19.479H15.1689L22.8086 0.708984H17.6689Z" fill="#006AAA"/>
<path fill-rule="evenodd" clip-rule="evenodd" d="M8.49902 0.709957H0.678711L0.598633 1.08984C6.69863 2.64984 10.7387 6.39992 12.3887 10.9199L10.6992 2.29004C10.5975 1.79873 10.3147 1.36346 9.90723 1.0708C9.49972 0.778132 8.99707 0.649373 8.49902 0.709957Z" fill="#FCB331"/>
</svg>
