<svg width="35" height="32" viewBox="0 0 35 32" fill="none" xmlns="http://www.w3.org/2000/svg">
<path d="M34.3584 25.1901V28.1901C34.3584 28.9857 34.0431 29.7486 33.4805 30.3112C32.9179 30.8738 32.154 31.1901 31.3584 31.1901H5.20898C3.92084 31.1875 2.68625 30.6742 1.77539 29.7633C0.864536 28.8525 0.351275 27.6179 0.348633 26.3297V5.65006C0.351275 4.36192 0.864536 3.12732 1.77539 2.21646C2.68625 1.30561 3.92084 0.792835 5.20898 0.790193H27.709C27.96 0.771599 28.2117 0.804562 28.4492 0.887849C28.6867 0.971137 28.9044 1.10279 29.0889 1.27408C29.2733 1.44537 29.4209 1.65273 29.5215 1.88345C29.6221 2.11418 29.6738 2.36319 29.6738 2.6149C29.6738 2.86661 29.6221 3.11562 29.5215 3.34635C29.4209 3.57707 29.2733 3.78444 29.0889 3.95572C28.9044 4.12701 28.6867 4.25866 28.4492 4.34195C28.2117 4.42524 27.96 4.45869 27.709 4.4401H5.20898C4.90577 4.46763 4.62329 4.60737 4.41797 4.83219C4.21265 5.057 4.09961 5.35048 4.09961 5.65494C4.09961 5.9594 4.21265 6.25288 4.41797 6.47769C4.62329 6.70251 4.90577 6.84225 5.20898 6.86978H31.3584C32.154 6.86978 32.9179 7.18608 33.4805 7.74869C34.0431 8.3113 34.3584 9.07413 34.3584 9.86978V12.8698H28.2793C27.4809 12.8698 26.6898 13.0271 25.9521 13.3327C25.2145 13.6382 24.5441 14.086 23.9795 14.6505C23.4149 15.2151 22.9677 15.8855 22.6621 16.6232C22.3566 17.3609 22.1992 18.1514 22.1992 18.9499C22.1992 19.7483 22.3566 20.5389 22.6621 21.2765C22.9677 22.0142 23.4149 22.6846 23.9795 23.2492C24.5441 23.8138 25.2145 24.2615 25.9521 24.567C26.6898 24.8726 27.4809 25.0299 28.2793 25.0299L34.3584 25.1901Z" fill="black"/>
</svg>
